# File generated by IfcOpenShell v0.7.0-f7c03db75
mtllib IfcFurniture_0416184705914747.mtl
g product-ece64aa2-1c7f-4740-b73c-0137889339e1-body
s 1
v 0.05 0.0102178859189237 0.232161457218452
v 0.945055084871538 0.0102178859189237 0.232161457218452
v 0.945055084871538 1.01568059518442e-15 0.0860388808427952
v 0.05 1.01568059518442e-15 0.0860388808427952
v 0.05 1.01568059518442e-15 0.0860388808427952
v 0.945055084871538 1.01568059518442e-15 0.0860388808427952
v 0.945055084871538 0.00498782025130024 0.0856900984740745
v 0.05 0.00498782025130024 0.0856900984740745
v 0.05 0.00498782025130024 0.0856900984740745
v 0.945055084871538 0.00498782025130024 0.0856900984740745
v 0.945055084871538 0.015205706170223 0.231812674849732
v 0.05 0.015205706170223 0.231812674849732
v 0.05 0.015205706170223 0.231812674849732
v 0.945055084871538 0.015205706170223 0.231812674849732
v 0.945055084871538 0.0102178859189237 0.232161457218452
v 0.05 0.0102178859189237 0.232161457218452
v 0.05 0.0102178859189237 0.232161457218452
v 0.05 1.01568059518442e-15 0.0860388808427952
v 0.05 0.00498782025130024 0.0856900984740745
v 0.05 0.015205706170223 0.231812674849732
v 0.945055084871538 0.0102178859189237 0.232161457218452
v 0.945055084871538 1.01568059518442e-15 0.0860388808427952
v 0.945055084871538 0.00498782025130024 0.0856900984740745
v 0.945055084871538 0.015205706170223 0.231812674849732
v 0.05 0.0102178859189159 0.402161457218454
v 0.945055084871538 0.0102178859189159 0.402161457218454
v 0.945055084871538 8.86964113266941e-15 0.256038880842795
v 0.05 8.86964113266941e-15 0.256038880842795
v 0.05 8.86964113266941e-15 0.256038880842795
v 0.945055084871538 8.86964113266941e-15 0.256038880842795
v 0.945055084871538 0.00498782025130809 0.255690098474074
v 0.05 0.00498782025130809 0.255690098474074
v 0.05 0.00498782025130809 0.255690098474074
v 0.945055084871538 0.00498782025130809 0.255690098474074
v 0.945055084871538 0.0152057061702151 0.401812674849734
v 0.05 0.0152057061702151 0.401812674849734
v 0.05 0.0152057061702151 0.401812674849734
v 0.945055084871538 0.0152057061702151 0.401812674849734
v 0.945055084871538 0.0102178859189159 0.402161457218454
v 0.05 0.0102178859189159 0.402161457218454
v 0.05 0.0102178859189159 0.402161457218454
v 0.05 8.86964113266941e-15 0.256038880842795
v 0.05 0.00498782025130809 0.255690098474074
v 0.05 0.0152057061702151 0.401812674849734
v 0.945055084871538 0.0102178859189159 0.402161457218454
v 0.945055084871538 8.86964113266941e-15 0.256038880842795
v 0.945055084871538 0.00498782025130809 0.255690098474074
v 0.945055084871538 0.0152057061702151 0.401812674849734
v 0.05 0.0102178859189159 0.557161457218454
v 0.945055084871538 0.0102178859189159 0.557161457218454
v 0.945055084871538 8.86964113266941e-15 0.411038880842794
v 0.05 8.86964113266941e-15 0.411038880842794
v 0.05 8.86964113266941e-15 0.411038880842794
v 0.945055084871538 8.86964113266941e-15 0.411038880842794
v 0.945055084871538 0.00498782025130809 0.410690098474074
v 0.05 0.00498782025130809 0.410690098474074
v 0.05 0.00498782025130809 0.410690098474074
v 0.945055084871538 0.00498782025130809 0.410690098474074
v 0.945055084871538 0.0152057061702151 0.556812674849734
v 0.05 0.0152057061702151 0.556812674849734
v 0.05 0.0152057061702151 0.556812674849734
v 0.945055084871538 0.0152057061702151 0.556812674849734
v 0.945055084871538 0.0102178859189159 0.557161457218454
v 0.05 0.0102178859189159 0.557161457218454
v 0.05 0.0102178859189159 0.557161457218454
v 0.05 8.86964113266941e-15 0.411038880842794
v 0.05 0.00498782025130809 0.410690098474074
v 0.05 0.0152057061702151 0.556812674849734
v 0.945055084871538 0.0102178859189159 0.557161457218454
v 0.945055084871538 8.86964113266941e-15 0.411038880842794
v 0.945055084871538 0.00498782025130809 0.410690098474074
v 0.945055084871538 0.0152057061702151 0.556812674849734
v 0.05 0.0102178859189159 0.712161457218455
v 0.945055084871538 0.0102178859189159 0.712161457218455
v 0.945055084871538 8.8705084944074e-15 0.566038880842796
v 0.05 8.8705084944074e-15 0.566038880842796
v 0.05 8.8705084944074e-15 0.566038880842796
v 0.945055084871538 8.8705084944074e-15 0.566038880842796
v 0.945055084871538 0.00498782025130809 0.565690098474075
v 0.05 0.00498782025130809 0.565690098474075
v 0.05 0.00498782025130809 0.565690098474075
v 0.945055084871538 0.00498782025130809 0.565690098474075
v 0.945055084871538 0.0152057061702151 0.711812674849735
v 0.05 0.0152057061702151 0.711812674849735
v 0.05 0.0152057061702151 0.711812674849735
v 0.945055084871538 0.0152057061702151 0.711812674849735
v 0.945055084871538 0.0102178859189159 0.712161457218455
v 0.05 0.0102178859189159 0.712161457218455
v 0.05 0.0102178859189159 0.712161457218455
v 0.05 8.8705084944074e-15 0.566038880842796
v 0.05 0.00498782025130809 0.565690098474075
v 0.05 0.0152057061702151 0.711812674849735
v 0.945055084871538 0.0102178859189159 0.712161457218455
v 0.945055084871538 8.8705084944074e-15 0.566038880842796
v 0.945055084871538 0.00498782025130809 0.565690098474075
v 0.945055084871538 0.0152057061702151 0.711812674849735
v 0 0.00045570892255776 0.78
v 0 0.0176646770814368 0.78
v 0.995055084871542 0.0176646770814368 0.78
v 0.995055084871542 0.00045570892255776 0.78
v 0.995055084871542 0.00045570892255776 0.78
v 0.995055084871542 0.0176646770814368 0.78
v 0.995055084871542 0.0176646770814368 0
v 0.995055084871542 0.00045570892255776 0
v 0.995055084871542 0.00045570892255776 0
v 0.995055084871542 0.0176646770814368 0
v 0 0.0176646770814368 0
v 0 0.00045570892255776 0
v 0 0.00045570892255776 0
v 0 0.0176646770814368 0
v 0 0.0176646770814368 0.78
v 0 0.00045570892255776 0.78
v 0.050000000000006 0.00045570892255776 0.73
v 0.050000000000006 0.0176646770814368 0.73
v 0.049999999999998 0.0176646770814368 0.05
v 0.049999999999998 0.00045570892255776 0.05
v 0.049999999999998 0.00045570892255776 0.05
v 0.049999999999998 0.0176646770814368 0.05
v 0.945055084871544 0.0176646770814368 0.05
v 0.945055084871544 0.00045570892255776 0.05
v 0.945055084871544 0.00045570892255776 0.05
v 0.945055084871544 0.0176646770814368 0.05
v 0.945055084871544 0.0176646770814368 0.73
v 0.945055084871544 0.00045570892255776 0.73
v 0.945055084871544 0.00045570892255776 0.73
v 0.945055084871544 0.0176646770814368 0.73
v 0.050000000000006 0.0176646770814368 0.73
v 0.050000000000006 0.00045570892255776 0.73
v 0 0.00045570892255776 0.78
v 0.995055084871542 0.00045570892255776 0.78
v 0.995055084871542 0.00045570892255776 0
v 0 0.00045570892255776 0
v 0.050000000000006 0.00045570892255776 0.73
v 0.049999999999998 0.00045570892255776 0.05
v 0.945055084871544 0.00045570892255776 0.05
v 0.945055084871544 0.00045570892255776 0.73
v 0 0.0176646770814368 0.78
v 0.995055084871542 0.0176646770814368 0.78
v 0.995055084871542 0.0176646770814368 0
v 0 0.0176646770814368 0
v 0.050000000000006 0.0176646770814368 0.73
v 0.049999999999998 0.0176646770814368 0.05
v 0.945055084871544 0.0176646770814368 0.05
v 0.945055084871544 0.0176646770814368 0.73
vn 0 -0.997564050259824 0.0697564737441314
vn 0 -0.997564050259824 0.0697564737441314
vn 0 -0.997564050259824 0.0697564737441314
vn 0 -0.997564050259824 0.0697564737441314
vn -0 -0.0697564737441314 -0.997564050259824
vn -0 -0.0697564737441314 -0.997564050259824
vn -0 -0.0697564737441314 -0.997564050259824
vn -0 -0.0697564737441314 -0.997564050259824
vn 0 0.997564050259824 -0.0697564737441314
vn 0 0.997564050259824 -0.0697564737441314
vn 0 0.997564050259824 -0.0697564737441314
vn 0 0.997564050259824 -0.0697564737441314
vn 0 0.0697564737441314 0.997564050259824
vn 0 0.0697564737441314 0.997564050259824
vn 0 0.0697564737441314 0.997564050259824
vn 0 0.0697564737441314 0.997564050259824
vn -1 -0 -0
vn -1 -0 -0
vn -1 -0 -0
vn -1 -0 -0
vn 1 0 0
vn 1 0 0
vn 1 0 0
vn 1 0 0
vn 0 -0.997564050259831 0.0697564737440237
vn 0 -0.997564050259831 0.0697564737440237
vn 0 -0.997564050259831 0.0697564737440237
vn 0 -0.997564050259831 0.0697564737440237
vn -0 -0.0697564737440237 -0.997564050259831
vn -0 -0.0697564737440237 -0.997564050259831
vn -0 -0.0697564737440237 -0.997564050259831
vn -0 -0.0697564737440237 -0.997564050259831
vn 0 0.997564050259831 -0.0697564737440237
vn 0 0.997564050259831 -0.0697564737440237
vn 0 0.997564050259831 -0.0697564737440237
vn 0 0.997564050259831 -0.0697564737440237
vn 0 0.0697564737440237 0.997564050259831
vn 0 0.0697564737440237 0.997564050259831
vn 0 0.0697564737440237 0.997564050259831
vn 0 0.0697564737440237 0.997564050259831
vn -1 -0 -0
vn -1 -0 -0
vn -1 -0 -0
vn -1 -0 -0
vn 1 0 0
vn 1 0 0
vn 1 0 0
vn 1 0 0
vn 0 -0.997564050259831 0.0697564737440237
vn 0 -0.997564050259831 0.0697564737440237
vn 0 -0.997564050259831 0.0697564737440237
vn 0 -0.997564050259831 0.0697564737440237
vn -0 -0.0697564737440237 -0.997564050259831
vn -0 -0.0697564737440237 -0.997564050259831
vn -0 -0.0697564737440237 -0.997564050259831
vn -0 -0.0697564737440237 -0.997564050259831
vn 0 0.997564050259831 -0.0697564737440237
vn 0 0.997564050259831 -0.0697564737440237
vn 0 0.997564050259831 -0.0697564737440237
vn 0 0.997564050259831 -0.0697564737440237
vn 0 0.0697564737440237 0.997564050259831
vn 0 0.0697564737440237 0.997564050259831
vn 0 0.0697564737440237 0.997564050259831
vn 0 0.0697564737440237 0.997564050259831
vn -1 -0 -0
vn -1 -0 -0
vn -1 -0 -0
vn -1 -0 -0
vn 1 0 0
vn 1 0 0
vn 1 0 0
vn 1 0 0
vn 0 -0.997564050259831 0.0697564737440237
vn 0 -0.997564050259831 0.0697564737440237
vn 0 -0.997564050259831 0.0697564737440237
vn 0 -0.997564050259831 0.0697564737440237
vn -0 -0.0697564737440237 -0.997564050259831
vn -0 -0.0697564737440237 -0.997564050259831
vn -0 -0.0697564737440237 -0.997564050259831
vn -0 -0.0697564737440237 -0.997564050259831
vn 0 0.997564050259831 -0.0697564737440237
vn 0 0.997564050259831 -0.0697564737440237
vn 0 0.997564050259831 -0.0697564737440237
vn 0 0.997564050259831 -0.0697564737440237
vn 0 0.0697564737440237 0.997564050259831
vn 0 0.0697564737440237 0.997564050259831
vn 0 0.0697564737440237 0.997564050259831
vn 0 0.0697564737440237 0.997564050259831
vn -1 -0 -0
vn -1 -0 -0
vn -1 -0 -0
vn -1 -0 -0
vn 1 0 0
vn 1 0 0
vn 1 0 0
vn 1 0 0
vn 0 0 1
vn 0 0 1
vn 0 0 1
vn 0 0 1
vn 1 0 0
vn 1 0 0
vn 1 0 0
vn 1 0 0
vn -0 -0 -1
vn -0 -0 -1
vn -0 -0 -1
vn -0 -0 -1
vn -1 0 0
vn -1 0 0
vn -1 0 0
vn -1 0 0
vn 1 0 -1.18369366596064e-14
vn 1 0 -1.18369366596064e-14
vn 1 0 -1.18369366596064e-14
vn 1 0 -1.18369366596064e-14
vn 0 0 1
vn 0 0 1
vn 0 0 1
vn 0 0 1
vn -1 0 0
vn -1 0 0
vn -1 0 0
vn -1 0 0
vn -0 -0 -1
vn -0 -0 -1
vn -0 -0 -1
vn -0 -0 -1
vn 0 -1 0
vn 0 -1 0
vn 0 -1 0
vn 0 -1 0
vn 0 -1 0
vn 0 -1 0
vn 0 -1 0
vn 0 -1 0
vn 0 1 0
vn 0 1 0
vn 0 1 0
vn 0 1 0
vn 0 1 0
vn 0 1 0
vn 0 1 0
vn 0 1 0
usemtl DefaultMaterial
f 2//2 1//1 4//4
f 3//3 2//2 4//4
f 6//6 5//5 8//8
f 7//7 6//6 8//8
f 10//10 9//9 12//12
f 11//11 10//10 12//12
f 14//14 13//13 16//16
f 15//15 14//14 16//16
f 20//20 19//19 18//18
f 17//17 20//20 18//18
f 22//22 23//23 24//24
f 22//22 24//24 21//21
f 26//26 25//25 28//28
f 27//27 26//26 28//28
f 30//30 29//29 32//32
f 31//31 30//30 32//32
f 34//34 33//33 36//36
f 35//35 34//34 36//36
f 38//38 37//37 40//40
f 39//39 38//38 40//40
f 44//44 43//43 42//42
f 41//41 44//44 42//42
f 46//46 47//47 48//48
f 46//46 48//48 45//45
f 50//50 49//49 52//52
f 51//51 50//50 52//52
f 54//54 53//53 56//56
f 55//55 54//54 56//56
f 58//58 57//57 60//60
f 59//59 58//58 60//60
f 62//62 61//61 64//64
f 63//63 62//62 64//64
f 68//68 67//67 66//66
f 65//65 68//68 66//66
f 70//70 71//71 72//72
f 70//70 72//72 69//69
f 74//74 73//73 76//76
f 75//75 74//74 76//76
f 78//78 77//77 80//80
f 79//79 78//78 80//80
f 82//82 81//81 84//84
f 83//83 82//82 84//84
f 86//86 85//85 88//88
f 87//87 86//86 88//88
f 92//92 91//91 90//90
f 89//89 92//92 90//90
f 94//94 95//95 96//96
f 94//94 96//96 93//93
f 98//98 97//97 100//100
f 99//99 98//98 100//100
f 102//102 101//101 104//104
f 103//103 102//102 104//104
f 106//106 105//105 108//108
f 107//107 106//106 108//108
f 110//110 109//109 112//112
f 111//111 110//110 112//112
f 114//114 113//113 116//116
f 115//115 114//114 116//116
f 118//118 117//117 120//120
f 119//119 118//118 120//120
f 122//122 121//121 124//124
f 123//123 122//122 124//124
f 126//126 125//125 128//128
f 127//127 126//126 128//128
f 133//133 129//129 134//134
f 134//134 129//129 132//132
f 129//129 133//133 130//130
f 130//130 133//133 136//136
f 136//136 135//135 131//131
f 130//130 136//136 131//131
f 134//134 132//132 131//131
f 135//135 134//134 131//131
f 142//142 137//137 141//141
f 140//140 137//137 142//142
f 138//138 141//141 137//137
f 144//144 141//141 138//138
f 139//139 143//143 144//144
f 139//139 144//144 138//138
f 139//139 140//140 142//142
f 139//139 142//142 143//143
