# File generated by IfcOpenShell v0.7.0-f7c03db75
mtllib IfcMember_0416184706012808.mtl
g product-4fbdbada-6c11-456c-8f05-e0c4b6846fce-body
s 1
v -45.313604404808 2.49170195562267 0
v -45.313604404808 2.54170195562267 0
v -44.9102688961402 2.54170195562267 0
v -44.9102688961402 2.49170195562267 0
v -45.313604404808 2.49170195562267 0.229101237916169
v -45.313604404808 2.54170195562267 0.229101237916169
v -45.313604404808 2.54170195562267 0
v -45.313604404808 2.49170195562267 0
v -45.313604404808 2.49170195562267 0.229101237916169
v -45.313604404808 2.54170195562267 0.229101237916169
v -41.7297159664653 2.49170195562266 2.29672918311779
v -41.7297159664653 2.54170195562266 2.29672918311779
v -45.313604404808 2.54170195562267 0.229101237916169
v -45.313604404808 2.54170195562267 0
v -41.7297159664653 2.54170195562266 2.29672918311779
v -41.6226049787423 2.54170195562266 1.89672918311779
v -44.9102688961402 2.54170195562267 0
v -41.6226049787423 2.54170195562266 1.89672918311779
v -44.9102688961402 2.54170195562267 0
v -41.6226049787423 2.49170195562266 1.89672918311779
v -44.9102688961402 2.49170195562267 0
v -45.313604404808 2.49170195562267 0
v -45.313604404808 2.49170195562267 0.229101237916169
v -44.9102688961402 2.49170195562267 0
v -41.6226049787423 2.49170195562266 1.89672918311779
v -41.7297159664653 2.49170195562266 2.29672918311779
v -36.5336044048117 2.49170195562264 4.57910123791858
v -36.5336044048117 2.49170195562264 4.11730643730917
v -36.5336044048117 2.54170195562264 4.11730643730917
v -36.5336044048117 2.54170195562264 4.57910123791858
v -40.4897159664643 2.54170195562266 2.29672918311779
v -40.4897159664643 2.49170195562266 2.29672918311779
v -36.5336044048117 2.49170195562264 4.57910123791858
v -36.5336044048117 2.54170195562264 4.57910123791858
v -40.3826049787414 2.54170195562266 1.8967291831178
v -40.4897159664643 2.54170195562266 2.29672918311779
v -36.5336044048117 2.54170195562264 4.57910123791858
v -36.5336044048117 2.54170195562264 4.11730643730917
v -40.3826049787414 2.49170195562266 1.8967291831178
v -40.3826049787414 2.54170195562266 1.8967291831178
v -36.5336044048117 2.54170195562264 4.11730643730917
v -36.5336044048117 2.49170195562264 4.11730643730917
v -40.4897159664643 2.49170195562266 2.29672918311779
v -40.3826049787414 2.49170195562266 1.8967291831178
v -36.5336044048117 2.49170195562264 4.11730643730917
v -36.5336044048117 2.49170195562264 4.57910123791858
v -41.7297159664653 2.49170195562266 2.29672918311779
v -41.7297159664653 2.54170195562266 2.29672918311779
v -40.4897159664643 2.49170195562266 2.29672918311779
v -40.4897159664643 2.54170195562266 2.29672918311779
v -41.7297159664653 2.54170195562266 2.29672918311779
v -41.6226049787423 2.54170195562266 1.89672918311779
v -40.4897159664643 2.54170195562266 2.29672918311779
v -40.3826049787414 2.54170195562266 1.8967291831178
v -41.6226049787423 2.54170195562266 1.89672918311779
v -41.6226049787423 2.49170195562266 1.89672918311779
v -40.3826049787414 2.54170195562266 1.8967291831178
v -40.3826049787414 2.49170195562266 1.8967291831178
v -41.6226049787423 2.49170195562266 1.89672918311779
v -41.7297159664653 2.49170195562266 2.29672918311779
v -40.3826049787414 2.49170195562266 1.8967291831178
v -40.4897159664643 2.49170195562266 2.29672918311779
vn 0 0 -1
vn 0 0 -1
vn 0 0 -1
vn 0 0 -1
vn -1 0 0
vn -1 0 0
vn -1 0 0
vn -1 0 0
vn -0.49972245349029 0 0.866185586048189
vn -0.49972245349029 0 0.866185586048189
vn -0.49972245349029 0 0.866185586048189
vn -0.49972245349029 0 0.866185586048189
vn 0 1 0
vn 0 1 0
vn 0 1 0
vn 0 1 0
vn 0 1 0
vn 0.49972245349029 0 -0.866185586048189
vn 0.49972245349029 0 -0.866185586048189
vn 0.49972245349029 0 -0.866185586048189
vn 0.49972245349029 0 -0.866185586048189
vn 0 -1 0
vn 0 -1 0
vn 0 -1 0
vn 0 -1 0
vn 0 -1 0
vn 1 0 0
vn 1 0 0
vn 1 0 0
vn 1 0 0
vn -0.499722453489775 0 0.866185586048486
vn -0.499722453489775 0 0.866185586048486
vn -0.499722453489775 0 0.866185586048486
vn -0.499722453489775 0 0.866185586048486
vn 0 1 0
vn 0 1 0
vn 0 1 0
vn 0 1 0
vn 0.499722453489775 0 -0.866185586048486
vn 0.499722453489775 0 -0.866185586048486
vn 0.499722453489775 0 -0.866185586048486
vn 0.499722453489775 0 -0.866185586048486
vn 0 -1 0
vn 0 -1 0
vn 0 -1 0
vn 0 -1 0
vn 0 0 1
vn 0 0 1
vn 0 0 1
vn 0 0 1
vn 0 1 0
vn 0 1 0
vn 0 1 0
vn 0 1 0
vn 0 0 -1
vn 0 0 -1
vn 0 0 -1
vn 0 0 -1
vn 0 -1 0
vn 0 -1 0
vn 0 -1 0
vn 0 -1 0
usemtl IfcMember
f 4//4 1//1 2//2
f 4//4 2//2 3//3
f 7//7 5//5 6//6
f 7//7 8//8 5//5
f 11//11 10//10 9//9
f 12//12 10//10 11//11
f 17//17 14//14 13//13
f 15//15 17//17 13//13
f 16//16 17//17 15//15
f 20//20 19//19 18//18
f 20//20 21//21 19//19
f 23//23 22//22 24//24
f 26//26 24//24 25//25
f 26//26 23//23 24//24
f 30//30 27//27 28//28
f 30//30 28//28 29//29
f 33//33 31//31 32//32
f 34//34 31//31 33//33
f 38//38 35//35 36//36
f 38//38 36//36 37//37
f 42//42 39//39 40//40
f 42//42 40//40 41//41
f 45//45 43//43 44//44
f 46//46 43//43 45//45
f 50//50 48//48 47//47
f 50//50 47//47 49//49
f 53//53 52//52 51//51
f 54//54 52//52 53//53
f 58//58 56//56 55//55
f 58//58 55//55 57//57
f 62//62 60//60 59//59
f 62//62 59//59 61//61
