# File generated by IfcOpenShell v0.7.0-f7c03db75
mtllib IfcWall_0416184708465291.mtl
g product-af2a45ba-8505-4107-af48-e5b161ddc7de-body
s 1
v 0 -0.13 0
v 13.228 -0.13 0
v 13.228 -0.13 0.8
v 0.13 -0.13 0.8
v 0.13 -0.13 1
v 1.8 -0.13 1
v 1.8 -0.13 4
v 2.3 -0.13 4
v 2.3 -0.13 1
v 2.8 -0.13 1
v 2.8 -0.13 4
v 3.3 -0.13 4
v 3.3 -0.13 1
v 3.8 -0.13 1
v 3.8 -0.13 4
v 4.3 -0.13 4
v 4.3 -0.13 1
v 4.8 -0.13 1
v 4.8 -0.13 4
v 5.3 -0.13 4
v 5.3 -0.13 1
v 5.8 -0.13 1
v 5.8 -0.13 4
v 6.3 -0.13 4
v 6.3 -0.13 1
v 6.8 -0.13 1
v 6.8 -0.13 4
v 7.3 -0.13 4
v 7.3 -0.13 1
v 7.8 -0.13 1
v 7.8 -0.13 4
v 8.3 -0.13 4
v 8.3 -0.13 1
v 8.8 -0.13 1
v 8.8 -0.13 4
v 9.3 -0.13 4
v 9.3 -0.13 1
v 9.8 -0.13 1
v 9.8 -0.13 4
v 10.3 -0.13 4
v 10.3 -0.13 1
v 10.8 -0.13 1
v 10.8 -0.13 4
v 11.3 -0.13 4
v 11.3 -0.13 1
v 11.8 -0.13 1
v 11.8 -0.13 4
v 12.3 -0.13 4
v 12.3 -0.13 1
v 13.228 -0.13 1
v 13.228 -0.13 6.7
v 0 -0.13 6.7
v 0 -0.13 0
v 13.228 -0.13 0
v 0 0.13 0
v 13.228 0.13 0
v 13.228 0.13 0
v 0 0.13 0
v 0 0.13 6.7
v 13.228 0.13 6.7
v 12.3 0.13 1
v 12.3 0.13 4
v 11.8 0.13 4
v 11.8 0.13 1
v 11.3 0.13 1
v 11.3 0.13 4
v 10.8 0.13 4
v 10.8 0.13 1
v 10.3 0.13 1
v 10.3 0.13 4
v 9.8 0.13 4
v 9.8 0.13 1
v 9.3 0.13 1
v 9.3 0.13 4
v 8.8 0.13 4
v 8.8 0.13 1
v 8.3 0.13 1
v 8.3 0.13 4
v 7.8 0.13 4
v 7.8 0.13 1
v 7.3 0.13 1
v 7.3 0.13 4
v 6.8 0.13 4
v 6.8 0.13 1
v 6.3 0.13 1
v 6.3 0.13 4
v 5.8 0.13 4
v 5.8 0.13 1
v 5.3 0.13 1
v 5.3 0.13 4
v 4.8 0.13 4
v 4.8 0.13 1
v 4.3 0.13 1
v 4.3 0.13 4
v 3.8 0.13 4
v 3.8 0.13 1
v 3.3 0.13 1
v 3.3 0.13 4
v 2.8 0.13 4
v 2.8 0.13 1
v 2.3 0.13 1
v 2.3 0.13 4
v 1.8 0.13 4
v 1.8 0.13 1
v 13.228 -0.13 6.7
v 0 -0.13 6.7
v 13.228 0.13 6.7
v 0 0.13 6.7
v 12.3 -0.13 4
v 12.3 0.13 4
v 12.3 0.13 1
v 12.3 0 1
v 12.3 -0.13 1
v 12.3 -0.13 4
v 12.3 0.13 4
v 11.8 -0.13 4
v 11.8 0.13 4
v 11.8 -0.13 4
v 11.8 0.13 4
v 11.8 -0.13 1
v 11.8 0 1
v 11.8 0.13 1
v 11.8 0.13 1
v 12.3 0.13 1
v 11.8 0 1
v 12.3 0 1
v 11.3 -0.13 4
v 11.3 0.13 4
v 11.3 0.13 1
v 11.3 0 1
v 11.3 -0.13 1
v 11.3 -0.13 4
v 11.3 0.13 4
v 10.8 -0.13 4
v 10.8 0.13 4
v 10.8 -0.13 4
v 10.8 0.13 4
v 10.8 -0.13 1
v 10.8 0 1
v 10.8 0.13 1
v 10.8 0.13 1
v 11.3 0.13 1
v 10.8 0 1
v 11.3 0 1
v 10.3 -0.13 4
v 10.3 0.13 4
v 10.3 0.13 1
v 10.3 0 1
v 10.3 -0.13 1
v 10.3 -0.13 4
v 10.3 0.13 4
v 9.8 -0.13 4
v 9.8 0.13 4
v 9.8 -0.13 4
v 9.8 0.13 4
v 9.8 -0.13 1
v 9.8 0 1
v 9.8 0.13 1
v 9.8 0.13 1
v 10.3 0.13 1
v 9.8 0 1
v 10.3 0 1
v 9.3 -0.13 4
v 9.3 0.13 4
v 9.3 0.13 1
v 9.3 0 1
v 9.3 -0.13 1
v 9.3 -0.13 4
v 9.3 0.13 4
v 8.8 -0.13 4
v 8.8 0.13 4
v 8.8 -0.13 4
v 8.8 0.13 4
v 8.8 -0.13 1
v 8.8 0 1
v 8.8 0.13 1
v 8.8 0.13 1
v 9.3 0.13 1
v 8.8 0 1
v 9.3 0 1
v 8.3 -0.13 4
v 8.3 0.13 4
v 8.3 0.13 1
v 8.3 0 1
v 8.3 -0.13 1
v 8.3 -0.13 4
v 8.3 0.13 4
v 7.8 -0.13 4
v 7.8 0.13 4
v 7.8 -0.13 4
v 7.8 0.13 4
v 7.8 -0.13 1
v 7.8 0 1
v 7.8 0.13 1
v 7.8 0.13 1
v 8.3 0.13 1
v 7.8 0 1
v 8.3 0 1
v 7.3 -0.13 4
v 7.3 0.13 4
v 7.3 0.13 1
v 7.3 0 1
v 7.3 -0.13 1
v 7.3 -0.13 4
v 7.3 0.13 4
v 6.8 -0.13 4
v 6.8 0.13 4
v 6.8 -0.13 4
v 6.8 0.13 4
v 6.8 -0.13 1
v 6.8 0 1
v 6.8 0.13 1
v 6.8 0.13 1
v 7.3 0.13 1
v 6.8 0 1
v 7.3 0 1
v 6.3 -0.13 4
v 6.3 0.13 4
v 6.3 0.13 1
v 6.3 0 1
v 6.3 -0.13 1
v 6.3 -0.13 4
v 6.3 0.13 4
v 5.8 -0.13 4
v 5.8 0.13 4
v 5.8 -0.13 4
v 5.8 0.13 4
v 5.8 -0.13 1
v 5.8 0 1
v 5.8 0.13 1
v 5.8 0.13 1
v 6.3 0.13 1
v 5.8 0 1
v 6.3 0 1
v 5.3 -0.13 4
v 5.3 0.13 4
v 5.3 0.13 1
v 5.3 0 1
v 5.3 -0.13 1
v 5.3 -0.13 4
v 5.3 0.13 4
v 4.8 -0.13 4
v 4.8 0.13 4
v 4.8 -0.13 4
v 4.8 0.13 4
v 4.8 -0.13 1
v 4.8 0 1
v 4.8 0.13 1
v 4.8 0.13 1
v 5.3 0.13 1
v 4.8 0 1
v 5.3 0 1
v 4.3 -0.13 4
v 4.3 0.13 4
v 4.3 0.13 1
v 4.3 0 1
v 4.3 -0.13 1
v 4.3 -0.13 4
v 4.3 0.13 4
v 3.8 -0.13 4
v 3.8 0.13 4
v 3.8 -0.13 4
v 3.8 0.13 4
v 3.8 -0.13 1
v 3.8 0 1
v 3.8 0.13 1
v 3.8 0.13 1
v 4.3 0.13 1
v 3.8 0 1
v 4.3 0 1
v 3.3 -0.13 4
v 3.3 0.13 4
v 3.3 0.13 1
v 3.3 0 1
v 3.3 -0.13 1
v 3.3 -0.13 4
v 3.3 0.13 4
v 2.8 -0.13 4
v 2.8 0.13 4
v 2.8 -0.13 4
v 2.8 0.13 4
v 2.8 -0.13 1
v 2.8 0 1
v 2.8 0.13 1
v 2.8 0.13 1
v 3.3 0.13 1
v 2.8 0 1
v 3.3 0 1
v 2.3 -0.13 4
v 2.3 0.13 4
v 2.3 0.13 1
v 2.3 0 1
v 2.3 -0.13 1
v 2.3 -0.13 4
v 2.3 0.13 4
v 1.8 -0.13 4
v 1.8 0.13 4
v 1.8 -0.13 4
v 1.8 0.13 4
v 1.8 -0.13 1
v 1.8 0 1
v 1.8 0.13 1
v 1.8 0.13 1
v 2.3 0.13 1
v 1.8 0 1
v 2.3 0 1
v 13.228 0.13 0
v 13.228 -0.13 0
v 13.228 0.13 6.7
v 13.228 -0.13 6.7
v 13.228 -0.13 1
v 13.228 0 1
v 13.228 0 0.8
v 13.228 -0.13 0.8
v 0 -0.13 6.7
v 0 -0.13 0
v 0 0.13 6.7
v 0 0.13 0
v 13.228 0 0.8
v 0.13 0 0.8
v 0.13 -0.13 0.8
v 13.228 -0.13 0.8
v 12.3 0 1
v 13.228 0 1
v 13.228 -0.13 1
v 12.3 -0.13 1
v 0.13 0 0.8
v 0.13 0 1
v 0.13 -0.13 1
v 0.13 -0.13 0.8
v 0.13 0 0.8
v 0.13 0 1
v 13.228 0 0.8
v 13.228 0 1
v 12.3 0 1
v 11.8 0 1
v 11.3 0 1
v 10.8 0 1
v 10.3 0 1
v 9.8 0 1
v 9.3 0 1
v 8.8 0 1
v 8.3 0 1
v 7.8 0 1
v 7.3 0 1
v 6.8 0 1
v 6.3 0 1
v 5.8 0 1
v 5.3 0 1
v 4.8 0 1
v 4.3 0 1
v 3.8 0 1
v 3.3 0 1
v 2.8 0 1
v 2.3 0 1
v 1.8 0 1
v 11.3 0 1
v 11.8 0 1
v 11.8 -0.13 1
v 11.3 -0.13 1
v 10.3 0 1
v 10.8 0 1
v 10.8 -0.13 1
v 10.3 -0.13 1
v 9.3 0 1
v 9.8 0 1
v 9.8 -0.13 1
v 9.3 -0.13 1
v 8.3 0 1
v 8.8 0 1
v 8.8 -0.13 1
v 8.3 -0.13 1
v 7.3 0 1
v 7.8 0 1
v 7.8 -0.13 1
v 7.3 -0.13 1
v 6.3 0 1
v 6.8 0 1
v 6.8 -0.13 1
v 6.3 -0.13 1
v 5.3 0 1
v 5.8 0 1
v 5.8 -0.13 1
v 5.3 -0.13 1
v 4.3 0 1
v 4.8 0 1
v 4.8 -0.13 1
v 4.3 -0.13 1
v 3.3 0 1
v 3.8 0 1
v 3.8 -0.13 1
v 3.3 -0.13 1
v 2.3 0 1
v 2.8 0 1
v 2.8 -0.13 1
v 2.3 -0.13 1
v 0.13 0 1
v 1.8 0 1
v 1.8 -0.13 1
v 0.13 -0.13 1
vn 0 -1 0
vn 0 -1 0
vn 0 -1 0
vn 0 -1 0
vn 0 -1 0
vn 0 -1 0
vn 0 -1 0
vn 0 -1 0
vn 0 -1 0
vn 0 -1 0
vn 0 -1 0
vn 0 -1 0
vn 0 -1 0
vn 0 -1 0
vn 0 -1 0
vn 0 -1 0
vn 0 -1 0
vn 0 -1 0
vn 0 -1 0
vn 0 -1 0
vn 0 -1 0
vn 0 -1 0
vn 0 -1 0
vn 0 -1 0
vn 0 -1 0
vn 0 -1 0
vn 0 -1 0
vn 0 -1 0
vn 0 -1 0
vn 0 -1 0
vn 0 -1 0
vn 0 -1 0
vn 0 -1 0
vn 0 -1 0
vn 0 -1 0
vn 0 -1 0
vn 0 -1 0
vn 0 -1 0
vn 0 -1 0
vn 0 -1 0
vn 0 -1 0
vn 0 -1 0
vn 0 -1 0
vn 0 -1 0
vn 0 -1 0
vn 0 -1 0
vn 0 -1 0
vn 0 -1 0
vn 0 -1 0
vn 0 -1 0
vn 0 -1 0
vn 0 -1 0
vn 0 0 -1
vn 0 0 -1
vn 0 0 -1
vn 0 0 -1
vn 0 1 0
vn 0 1 0
vn 0 1 0
vn 0 1 0
vn 0 1 0
vn 0 1 0
vn 0 1 0
vn 0 1 0
vn 0 1 0
vn 0 1 0
vn 0 1 0
vn 0 1 0
vn 0 1 0
vn 0 1 0
vn 0 1 0
vn 0 1 0
vn 0 1 0
vn 0 1 0
vn 0 1 0
vn 0 1 0
vn 0 1 0
vn 0 1 0
vn 0 1 0
vn 0 1 0
vn 0 1 0
vn 0 1 0
vn 0 1 0
vn 0 1 0
vn 0 1 0
vn 0 1 0
vn 0 1 0
vn 0 1 0
vn 0 1 0
vn 0 1 0
vn 0 1 0
vn 0 1 0
vn 0 1 0
vn 0 1 0
vn 0 1 0
vn 0 1 0
vn 0 1 0
vn 0 1 0
vn 0 1 0
vn 0 1 0
vn 0 1 0
vn 0 1 0
vn 0 1 0
vn 0 1 0
vn 0 0 1
vn 0 0 1
vn 0 0 1
vn 0 0 1
vn -1 0 0
vn -1 0 0
vn -1 0 0
vn -1 0 0
vn -1 0 0
vn 0 0 -1
vn 0 0 -1
vn 0 0 -1
vn 0 0 -1
vn 1 0 0
vn 1 0 0
vn 1 0 0
vn 1 0 0
vn 1 0 0
vn 0 0 1
vn 0 0 1
vn 0 0 1
vn 0 0 1
vn -1 0 0
vn -1 0 0
vn -1 0 0
vn -1 0 0
vn -1 0 0
vn 0 0 -1
vn 0 0 -1
vn 0 0 -1
vn 0 0 -1
vn 1 0 0
vn 1 0 0
vn 1 0 0
vn 1 0 0
vn 1 0 0
vn 0 0 1
vn 0 0 1
vn 0 0 1
vn 0 0 1
vn -1 0 0
vn -1 0 0
vn -1 0 0
vn -1 0 0
vn -1 0 0
vn 0 0 -1
vn 0 0 -1
vn 0 0 -1
vn 0 0 -1
vn 1 0 0
vn 1 0 0
vn 1 0 0
vn 1 0 0
vn 1 0 0
vn 0 0 1
vn 0 0 1
vn 0 0 1
vn 0 0 1
vn -1 0 0
vn -1 0 0
vn -1 0 0
vn -1 0 0
vn -1 0 0
vn 0 0 -1
vn 0 0 -1
vn 0 0 -1
vn 0 0 -1
vn 1 0 0
vn 1 0 0
vn 1 0 0
vn 1 0 0
vn 1 0 0
vn 0 0 1
vn 0 0 1
vn 0 0 1
vn 0 0 1
vn -1 0 0
vn -1 0 0
vn -1 0 0
vn -1 0 0
vn -1 0 0
vn 0 0 -1
vn 0 0 -1
vn 0 0 -1
vn 0 0 -1
vn 1 0 0
vn 1 0 0
vn 1 0 0
vn 1 0 0
vn 1 0 0
vn 0 0 1
vn 0 0 1
vn 0 0 1
vn 0 0 1
vn -1 0 0
vn -1 0 0
vn -1 0 0
vn -1 0 0
vn -1 0 0
vn 0 0 -1
vn 0 0 -1
vn 0 0 -1
vn 0 0 -1
vn 1 0 0
vn 1 0 0
vn 1 0 0
vn 1 0 0
vn 1 0 0
vn 0 0 1
vn 0 0 1
vn 0 0 1
vn 0 0 1
vn -1 0 0
vn -1 0 0
vn -1 0 0
vn -1 0 0
vn -1 0 0
vn 0 0 -1
vn 0 0 -1
vn 0 0 -1
vn 0 0 -1
vn 1 0 0
vn 1 0 0
vn 1 0 0
vn 1 0 0
vn 1 0 0
vn 0 0 1
vn 0 0 1
vn 0 0 1
vn 0 0 1
vn -1 0 0
vn -1 0 0
vn -1 0 0
vn -1 0 0
vn -1 0 0
vn 0 0 -1
vn 0 0 -1
vn 0 0 -1
vn 0 0 -1
vn 1 0 0
vn 1 0 0
vn 1 0 0
vn 1 0 0
vn 1 0 0
vn 0 0 1
vn 0 0 1
vn 0 0 1
vn 0 0 1
vn -1 0 0
vn -1 0 0
vn -1 0 0
vn -1 0 0
vn -1 0 0
vn 0 0 -1
vn 0 0 -1
vn 0 0 -1
vn 0 0 -1
vn 1 0 0
vn 1 0 0
vn 1 0 0
vn 1 0 0
vn 1 0 0
vn 0 0 1
vn 0 0 1
vn 0 0 1
vn 0 0 1
vn -1 0 0
vn -1 0 0
vn -1 0 0
vn -1 0 0
vn -1 0 0
vn 0 0 -1
vn 0 0 -1
vn 0 0 -1
vn 0 0 -1
vn 1 0 0
vn 1 0 0
vn 1 0 0
vn 1 0 0
vn 1 0 0
vn 0 0 1
vn 0 0 1
vn 0 0 1
vn 0 0 1
vn -1 0 0
vn -1 0 0
vn -1 0 0
vn -1 0 0
vn -1 0 0
vn 0 0 -1
vn 0 0 -1
vn 0 0 -1
vn 0 0 -1
vn 1 0 0
vn 1 0 0
vn 1 0 0
vn 1 0 0
vn 1 0 0
vn 0 0 1
vn 0 0 1
vn 0 0 1
vn 0 0 1
vn 1 0 0
vn 1 0 0
vn 1 0 0
vn 1 0 0
vn 1 0 0
vn 1 0 0
vn 1 0 0
vn 1 0 0
vn -1 0 0
vn -1 0 0
vn -1 0 0
vn -1 0 0
vn 0 0 1
vn 0 0 1
vn 0 0 1
vn 0 0 1
vn 0 0 -1
vn 0 0 -1
vn 0 0 -1
vn 0 0 -1
vn 1 0 0
vn 1 0 0
vn 1 0 0
vn 1 0 0
vn 0 -1 0
vn 0 -1 0
vn 0 -1 0
vn 0 -1 0
vn 0 -1 0
vn 0 -1 0
vn 0 -1 0
vn 0 -1 0
vn 0 -1 0
vn 0 -1 0
vn 0 -1 0
vn 0 -1 0
vn 0 -1 0
vn 0 -1 0
vn 0 -1 0
vn 0 -1 0
vn 0 -1 0
vn 0 -1 0
vn 0 -1 0
vn 0 -1 0
vn 0 -1 0
vn 0 -1 0
vn 0 -1 0
vn 0 -1 0
vn 0 -1 0
vn 0 -1 0
vn 0 0 -1
vn 0 0 -1
vn 0 0 -1
vn 0 0 -1
vn 0 0 -1
vn 0 0 -1
vn 0 0 -1
vn 0 0 -1
vn 0 0 -1
vn 0 0 -1
vn 0 0 -1
vn 0 0 -1
vn 0 0 -1
vn 0 0 -1
vn 0 0 -1
vn 0 0 -1
vn 0 0 -1
vn 0 0 -1
vn 0 0 -1
vn 0 0 -1
vn 0 0 -1
vn 0 0 -1
vn 0 0 -1
vn 0 0 -1
vn 0 0 -1
vn 0 0 -1
vn 0 0 -1
vn 0 0 -1
vn 0 0 -1
vn 0 0 -1
vn 0 0 -1
vn 0 0 -1
vn 0 0 -1
vn 0 0 -1
vn 0 0 -1
vn 0 0 -1
vn 0 0 -1
vn 0 0 -1
vn 0 0 -1
vn 0 0 -1
vn 0 0 -1
vn 0 0 -1
vn 0 0 -1
vn 0 0 -1
usemtl IfcWall
f 5//5 1//1 4//4
f 7//7 5//5 6//6
f 52//52 7//7 8//8
f 52//52 5//5 7//7
f 11//11 8//8 9//9
f 11//11 9//9 10//10
f 11//11 52//52 8//8
f 12//12 13//13 14//14
f 12//12 52//52 11//11
f 15//15 12//12 14//14
f 15//15 52//52 12//12
f 16//16 17//17 18//18
f 16//16 52//52 15//15
f 19//19 16//16 18//18
f 19//19 52//52 16//16
f 20//20 21//21 22//22
f 20//20 52//52 19//19
f 23//23 52//52 20//20
f 23//23 20//20 22//22
f 27//27 24//24 25//25
f 27//27 25//25 26//26
f 31//31 28//28 29//29
f 31//31 29//29 30//30
f 35//35 32//32 33//33
f 35//35 33//33 34//34
f 36//36 37//37 38//38
f 39//39 36//36 38//38
f 43//43 40//40 41//41
f 43//43 41//41 42//42
f 47//47 44//44 45//45
f 47//47 45//45 46//46
f 48//48 49//49 50//50
f 51//51 28//28 31//31
f 51//51 40//40 43//43
f 51//51 31//31 32//32
f 51//51 44//44 47//47
f 51//51 32//32 35//35
f 51//51 35//35 36//36
f 51//51 39//39 40//40
f 51//51 43//43 44//44
f 51//51 36//36 39//39
f 51//51 47//47 48//48
f 51//51 48//48 50//50
f 3//3 4//4 1//1
f 3//3 1//1 2//2
f 51//51 52//52 23//23
f 51//51 23//23 24//24
f 51//51 24//24 27//27
f 51//51 27//27 28//28
f 52//52 1//1 5//5
f 56//56 54//54 53//53
f 56//56 53//53 55//55
f 64//64 61//61 57//57
f 65//65 64//64 57//57
f 68//68 65//65 57//57
f 69//69 68//68 57//57
f 72//72 69//69 57//57
f 62//62 57//57 61//61
f 73//73 72//72 57//57
f 76//76 73//73 57//57
f 66//66 63//63 64//64
f 66//66 64//64 65//65
f 77//77 76//76 57//57
f 80//80 77//77 57//57
f 60//60 62//62 63//63
f 60//60 66//66 67//67
f 60//60 57//57 62//62
f 60//60 63//63 66//66
f 70//70 67//67 68//68
f 70//70 68//68 69//69
f 70//70 60//60 67//67
f 81//81 80//80 57//57
f 71//71 72//72 73//73
f 71//71 60//60 70//70
f 84//84 81//81 57//57
f 74//74 71//71 73//73
f 74//74 60//60 71//71
f 75//75 76//76 77//77
f 75//75 60//60 74//74
f 78//78 60//60 75//75
f 78//78 75//75 77//77
f 79//79 60//60 78//78
f 79//79 80//80 81//81
f 82//82 60//60 79//79
f 82//82 79//79 81//81
f 83//83 84//84 85//85
f 86//86 83//83 85//85
f 90//90 87//87 88//88
f 90//90 88//88 89//89
f 94//94 92//92 93//93
f 94//94 91//91 92//92
f 58//58 93//93 92//92
f 58//58 97//97 96//96
f 58//58 101//101 100//100
f 58//58 88//88 85//85
f 58//58 92//92 89//89
f 58//58 96//96 93//93
f 58//58 100//100 97//97
f 58//58 104//104 101//101
f 58//58 89//89 88//88
f 58//58 84//84 57//57
f 58//58 85//85 84//84
f 95//95 96//96 97//97
f 98//98 95//95 97//97
f 102//102 100//100 101//101
f 102//102 99//99 100//100
f 103//103 104//104 58//58
f 59//59 87//87 90//90
f 59//59 91//91 94//94
f 59//59 103//103 58//58
f 59//59 90//90 91//91
f 59//59 95//95 98//98
f 59//59 94//94 95//95
f 59//59 98//98 99//99
f 59//59 99//99 102//102
f 59//59 102//102 103//103
f 59//59 60//60 82//82
f 59//59 82//82 83//83
f 59//59 83//83 86//86
f 59//59 86//86 87//87
f 108//108 106//106 105//105
f 108//108 105//105 107//107
f 112//112 109//109 110//110
f 112//112 113//113 109//109
f 111//111 112//112 110//110
f 115//115 114//114 116//116
f 115//115 116//116 117//117
f 118//118 120//120 121//121
f 119//119 121//121 122//122
f 119//119 118//118 121//121
f 123//123 125//125 126//126
f 123//123 126//126 124//124
f 130//130 127//127 128//128
f 130//130 131//131 127//127
f 129//129 130//130 128//128
f 133//133 132//132 134//134
f 133//133 134//134 135//135
f 136//136 138//138 139//139
f 137//137 139//139 140//140
f 137//137 136//136 139//139
f 141//141 143//143 144//144
f 141//141 144//144 142//142
f 148//148 145//145 146//146
f 148//148 149//149 145//145
f 147//147 148//148 146//146
f 151//151 150//150 152//152
f 151//151 152//152 153//153
f 154//154 156//156 157//157
f 155//155 157//157 158//158
f 155//155 154//154 157//157
f 159//159 161//161 162//162
f 159//159 162//162 160//160
f 166//166 163//163 164//164
f 166//166 167//167 163//163
f 165//165 166//166 164//164
f 169//169 168//168 170//170
f 169//169 170//170 171//171
f 172//172 174//174 175//175
f 173//173 175//175 176//176
f 173//173 172//172 175//175
f 177//177 179//179 180//180
f 177//177 180//180 178//178
f 184//184 181//181 182//182
f 184//184 185//185 181//181
f 183//183 184//184 182//182
f 187//187 186//186 188//188
f 187//187 188//188 189//189
f 190//190 192//192 193//193
f 191//191 193//193 194//194
f 191//191 190//190 193//193
f 195//195 197//197 198//198
f 195//195 198//198 196//196
f 202//202 199//199 200//200
f 202//202 203//203 199//199
f 201//201 202//202 200//200
f 205//205 204//204 206//206
f 205//205 206//206 207//207
f 208//208 210//210 211//211
f 209//209 211//211 212//212
f 209//209 208//208 211//211
f 213//213 215//215 216//216
f 213//213 216//216 214//214
f 220//220 217//217 218//218
f 220//220 221//221 217//217
f 219//219 220//220 218//218
f 223//223 222//222 224//224
f 223//223 224//224 225//225
f 226//226 228//228 229//229
f 227//227 229//229 230//230
f 227//227 226//226 229//229
f 231//231 233//233 234//234
f 231//231 234//234 232//232
f 238//238 235//235 236//236
f 238//238 239//239 235//235
f 237//237 238//238 236//236
f 241//241 240//240 242//242
f 241//241 242//242 243//243
f 244//244 246//246 247//247
f 245//245 247//247 248//248
f 245//245 244//244 247//247
f 249//249 251//251 252//252
f 249//249 252//252 250//250
f 256//256 253//253 254//254
f 256//256 257//257 253//253
f 255//255 256//256 254//254
f 259//259 258//258 260//260
f 259//259 260//260 261//261
f 262//262 264//264 265//265
f 263//263 265//265 266//266
f 263//263 262//262 265//265
f 267//267 269//269 270//270
f 267//267 270//270 268//268
f 274//274 271//271 272//272
f 274//274 275//275 271//271
f 273//273 274//274 272//272
f 277//277 276//276 278//278
f 277//277 278//278 279//279
f 280//280 282//282 283//283
f 281//281 283//283 284//284
f 281//281 280//280 283//283
f 285//285 287//287 288//288
f 285//285 288//288 286//286
f 292//292 289//289 290//290
f 292//292 293//293 289//289
f 291//291 292//292 290//290
f 295//295 294//294 296//296
f 295//295 296//296 297//297
f 298//298 300//300 301//301
f 299//299 301//301 302//302
f 299//299 298//298 301//301
f 303//303 305//305 306//306
f 303//303 306//306 304//304
f 312//312 309//309 310//310
f 311//311 312//312 310//310
f 307//307 312//312 313//313
f 308//308 313//313 314//314
f 308//308 307//307 313//313
f 307//307 309//309 312//312
f 315//315 317//317 318//318
f 315//315 318//318 316//316
f 322//322 319//319 320//320
f 322//322 320//320 321//321
f 324//324 325//325 326//326
f 324//324 326//326 323//323
f 329//329 327//327 328//328
f 329//329 330//330 327//327
f 335//335 333//333 334//334
f 336//336 333//333 335//335
f 331//331 355//355 356//356
f 332//332 331//331 356//356
f 331//331 333//333 336//336
f 331//331 336//336 337//337
f 331//331 337//337 338//338
f 331//331 338//338 339//339
f 331//331 339//339 340//340
f 331//331 340//340 341//341
f 331//331 341//341 342//342
f 331//331 342//342 343//343
f 331//331 343//343 344//344
f 331//331 344//344 345//345
f 331//331 345//345 346//346
f 331//331 346//346 347//347
f 331//331 347//347 348//348
f 331//331 348//348 349//349
f 331//331 349//349 350//350
f 331//331 350//350 351//351
f 331//331 351//351 352//352
f 331//331 352//352 353//353
f 331//331 353//353 354//354
f 331//331 354//354 355//355
f 358//358 359//359 360//360
f 358//358 360//360 357//357
f 362//362 363//363 364//364
f 362//362 364//364 361//361
f 366//366 367//367 368//368
f 366//366 368//368 365//365
f 370//370 371//371 372//372
f 370//370 372//372 369//369
f 374//374 375//375 376//376
f 374//374 376//376 373//373
f 378//378 379//379 380//380
f 378//378 380//380 377//377
f 382//382 383//383 384//384
f 382//382 384//384 381//381
f 386//386 387//387 388//388
f 386//386 388//388 385//385
f 390//390 391//391 392//392
f 390//390 392//392 389//389
f 394//394 395//395 396//396
f 394//394 396//396 393//393
f 399//399 400//400 397//397
f 398//398 399//399 397//397
