# File generated by IfcOpenShell v0.7.0-f7c03db75
mtllib IfcBuildingElementProxy_0416184706275995.mtl
g product-8517accc-a080-4a70-add4-bf8daab7f186-body
s 1
v 0.0315952722359177 2.037 1.1
v 0.0315952722359177 2.037 0
v 0.00159527223592456 2.007 0
v 0.0015952722359159 2.007 1.075
v 0.00197073579688283 2.00737546356095 1.07931258854313
v 0.00307031060994192 2.00847503837401 1.08345686219677
v 0.00487551953165506 2.01028024729572 1.08737938241993
v 0.00732668749322624 2.01273141525729 1.09092872403424
v 0.0103480410035315 2.0157527687676 1.09400075557371
v 0.0138552498715461 2.01925997763563 1.09651039570635
v 0.0191056140171709 2.02451034178126 1.09885112548456
v 0.0227838229367905 2.02818855070087 1.09970651025051
v 0.0265952722359189 2.032 1.1
v 0.0315952722359177 0 1.1
v 0.0265952722359189 0.005 1.1
v 0.0184373050756472 0.0131579671602766 1.09863044310457
v 0.011823026034523 0.0197722462013909 1.09516905709915
v 0.00741406061696045 0.0241812116189484 1.09103381503107
v 0.00439614057233176 0.0271991316635732 1.08649632605223
v 0.00257871462488335 0.0290165576110202 1.08194213917703
v 0.0018471881295872 0.0297480841063229 1.07852904476646
v 0.0015952722359159 0.03 1.075
v 0.0015952722359159 0.03 0
v 0.0315952722359177 0 0
v 0.0315952722359177 2.037 1.1
v 0.0315952722359177 2.037 0
v 0.0315952722359177 2.014 1.1
v 0.0315952722359177 0 1.1
v 0.0315952722359177 0 0
v 0.0315952722359177 2.014 0
v 0.0315952722359177 2.037 0
v 0.00159527223592456 2.007 0
v 0.0315952722359177 2.014 0
v 0.0315952722359177 0 0
v 0.0015952722359159 0.03 0
v 0.00159527223592456 2.007 0
v 0.0015952722359159 2.007 1.075
v 0.0015952722359159 0.03 0
v 0.0015952722359159 0.03 1.075
v 0.0015952722359159 2.007 1.075
v 0.00197073579688283 2.00737546356095 1.07931258854313
v 0.00307031060994192 2.00847503837401 1.08345686219677
v 0.00487551953165506 2.01028024729572 1.08737938241993
v 0.00732668749322624 2.01273141525729 1.09092872403424
v 0.0103480410035315 2.0157527687676 1.09400075557371
v 0.0138552498715461 2.01925997763563 1.09651039570635
v 0.0191056140171709 2.02451034178126 1.09885112548456
v 0.0227838229367905 2.02818855070087 1.09970651025051
v 0.0265952722359189 2.032 1.1
v 0.0015952722359159 0.03 1.075
v 0.0265952722359189 0.005 1.1
v 0.0184373050756472 0.0131579671602766 1.09863044310457
v 0.011823026034523 0.0197722462013909 1.09516905709915
v 0.00741406061696045 0.0241812116189484 1.09103381503107
v 0.00439614057233176 0.0271991316635732 1.08649632605223
v 0.00257871462488335 0.0290165576110202 1.08194213917703
v 0.0018471881295872 0.0297480841063229 1.07852904476646
v 0.0265952722359189 2.032 1.1
v 0.0315952722359177 2.037 1.1
v 0.0265952722359189 0.005 1.1
v 0.0315952722359177 0 1.1
v 0.0315952722359177 2.014 1.1
vn -0.707106781186544 0.707106781186551 0
vn -0.707106781186544 0.707106781186551 0
vn -0.707106781186544 0.707106781186551 0
vn -0.707106781186544 0.707106781186551 0
vn -0.707106781186544 0.707106781186551 0
vn -0.707106781186544 0.707106781186551 0
vn -0.707106781186544 0.707106781186551 0
vn -0.707106781186544 0.707106781186551 0
vn -0.707106781186544 0.707106781186551 0
vn -0.707106781186544 0.707106781186551 0
vn -0.707106781186544 0.707106781186551 0
vn -0.707106781186544 0.707106781186551 0
vn -0.707106781186544 0.707106781186551 0
vn -0.707106781186545 -0.70710678118655 0
vn -0.707106781186545 -0.70710678118655 0
vn -0.707106781186545 -0.70710678118655 0
vn -0.707106781186545 -0.70710678118655 0
vn -0.707106781186545 -0.70710678118655 0
vn -0.707106781186545 -0.70710678118655 0
vn -0.707106781186545 -0.70710678118655 0
vn -0.707106781186545 -0.70710678118655 0
vn -0.707106781186545 -0.70710678118655 0
vn -0.707106781186545 -0.70710678118655 0
vn -0.707106781186545 -0.70710678118655 0
vn 1 0 0
vn 1 0 0
vn 1 0 0
vn 1 0 0
vn 1 0 0
vn 1 0 0
vn 0 0 -1
vn 0 0 -1
vn 0 0 -1
vn 0 0 -1
vn 0 0 -1
vn -1 0 0
vn -1 0 0
vn -1 0 0
vn -1 0 0
vn -1 0 0
vn -0.98500808408448 0 0.172508186148432
vn -0.941041861786966 0 0.338290133412903
vn -0.868792449048489 0 0.495176413489505
vn -0.770741781685987 0 0.637147632784985
vn -0.649888607368302 0 0.760029471805462
vn -0.509598726465535 0 0.860412190746218
vn -0.29959304061616 0 0.954067088843528
vn -0.152465423727664 0 0.988308805266625
vn -6.12323399573677e-17 0 1
vn -1 0 0
vn -6.12323399573677e-17 0 1
vn -0.32633172850627 0 0.945255310998097
vn -0.590885067033689 0 0.806755748387697
vn -0.76724717316901 0 0.641351522383913
vn -0.88798871988858 0 0.459865233900804
vn -0.960671217635841 0 0.27768833537992
vn -0.989985280545007 0 0.141170621250399
vn 0 0 1
vn 0 0 1
vn 0 0 1
vn 0 0 1
vn 0 0 1
usemtl DefaultMaterial
f 4//4 1//1 2//2
f 4//4 2//2 3//3
f 4//4 11//11 12//12
f 4//4 12//12 13//13
f 4//4 13//13 1//1
f 10//10 11//11 4//4
f 6//6 4//4 5//5
f 9//9 10//10 4//4
f 7//7 4//4 6//6
f 8//8 9//9 4//4
f 8//8 4//4 7//7
f 22//22 14//14 15//15
f 22//22 15//15 16//16
f 22//22 16//16 17//17
f 22//22 17//17 18//18
f 22//22 18//18 19//19
f 22//22 19//19 20//20
f 22//22 20//20 21//21
f 24//24 14//14 22//22
f 23//23 24//24 22//22
f 30//30 26//26 25//25
f 30//30 25//25 27//27
f 29//29 27//27 28//28
f 29//29 30//30 27//27
f 32//32 31//31 33//33
f 35//35 33//33 34//34
f 35//35 32//32 33//33
f 39//39 37//37 36//36
f 39//39 36//36 38//38
f 40//40 50//50 57//57
f 41//41 57//57 56//56
f 41//41 40//40 57//57
f 42//42 56//56 55//55
f 42//42 41//41 56//56
f 43//43 55//55 54//54
f 43//43 42//42 55//55
f 44//44 43//43 54//54
f 45//45 54//54 53//53
f 45//45 44//44 54//54
f 46//46 53//53 52//52
f 46//46 45//45 53//53
f 47//47 46//46 52//52
f 48//48 52//52 51//51
f 48//48 47//47 52//52
f 49//49 48//48 51//51
f 62//62 59//59 58//58
f 60//60 62//62 58//58
f 61//61 62//62 60//60
