# File generated by IfcOpenShell v0.7.0-f7c03db75
mtllib IfcBuildingElementProxy_0416184706269991.mtl
g product-8517accc-a080-4a70-add4-bf8daab7f199-body
s 1
v 0 0.0315952722359329 1.1
v 0 0.0315952722359329 0
v 0.03 0.00159527223593268 0
v 0.03 0.00159527223593214 1.075
v 0.0296245364390211 0.00197073579691408 1.07931258854322
v 0.0285249616259082 0.00307031061002224 1.08345686219694
v 0.026719752704111 0.00487551953181446 1.08737938242016
v 0.0242685847424525 0.00732668749347375 1.09092872403452
v 0.0212472312320318 0.0103480410038958 1.09400075557401
v 0.0177400223638705 0.0138552498720549 1.09651039570664
v 0.0124896582180707 0.0191056140178543 1.09885112548476
v 0.0088114492987843 0.0227838229371527 1.09970651025055
v 0.005 0.0265952722359335 1.1
v 5.12 0.0315952722359167 1.1
v 5.115 0.0265952722359173 1.1
v 5.1068420328397 0.018437305075635 1.09863044310457
v 5.10022775379859 0.0118230260345195 1.09516905709915
v 5.09581878838103 0.00741406061696401 1.09103381503107
v 5.09280086833642 0.00439614057234497 1.08649632605223
v 5.09098344238896 0.00257871462489817 1.08194213917703
v 5.09025191589366 0.00184718812959502 1.07852904476646
v 5.09 0.0015952722359159 1.075
v 5.09 0.00159527223591644 0
v 5.12 0.0315952722359167 0
v 0.005 0.0265952722359335 1.1
v 0 0.0315952722359329 1.1
v 5.115 0.0265952722359173 1.1
v 5.12 0.0315952722359167 1.1
v 0.023 0.0315952722359329 1.1
v 0.03 0.00159527223593214 1.075
v 0.0296245364390211 0.00197073579691408 1.07931258854322
v 0.0285249616259082 0.00307031061002224 1.08345686219694
v 0.026719752704111 0.00487551953181446 1.08737938242016
v 0.0242685847424525 0.00732668749347375 1.09092872403452
v 0.0212472312320318 0.0103480410038958 1.09400075557401
v 0.0177400223638705 0.0138552498720549 1.09651039570664
v 0.0124896582180707 0.0191056140178543 1.09885112548476
v 0.0088114492987843 0.0227838229371527 1.09970651025055
v 0.005 0.0265952722359335 1.1
v 5.09 0.0015952722359159 1.075
v 5.115 0.0265952722359173 1.1
v 5.1068420328397 0.018437305075635 1.09863044310457
v 5.10022775379859 0.0118230260345195 1.09516905709915
v 5.09581878838103 0.00741406061696401 1.09103381503107
v 5.09280086833642 0.00439614057234497 1.08649632605223
v 5.09098344238896 0.00257871462489817 1.08194213917703
v 5.09025191589366 0.00184718812959502 1.07852904476646
v 0.03 0.00159527223593268 0
v 0.03 0.00159527223593214 1.075
v 5.09 0.00159527223591644 0
v 5.09 0.0015952722359159 1.075
v 0 0.0315952722359329 0
v 0.03 0.00159527223593268 0
v 0.023 0.0315952722359329 0
v 5.12 0.0315952722359167 0
v 5.09 0.00159527223591644 0
v 0 0.0315952722359329 1.1
v 0 0.0315952722359329 0
v 0.023 0.0315952722359329 1.1
v 5.12 0.0315952722359167 1.1
v 5.12 0.0315952722359167 0
v 0.023 0.0315952722359329 0
vn -0.707106781186545 -0.70710678118655 0
vn -0.707106781186545 -0.70710678118655 0
vn -0.707106781186545 -0.70710678118655 0
vn -0.707106781186545 -0.70710678118655 0
vn -0.707106781186545 -0.70710678118655 0
vn -0.707106781186545 -0.70710678118655 0
vn -0.707106781186545 -0.70710678118655 0
vn -0.707106781186545 -0.70710678118655 0
vn -0.707106781186545 -0.70710678118655 0
vn -0.707106781186545 -0.70710678118655 0
vn -0.707106781186545 -0.70710678118655 0
vn -0.707106781186545 -0.70710678118655 0
vn -0.707106781186545 -0.70710678118655 0
vn 0.707106781186544 -0.707106781186551 0
vn 0.707106781186544 -0.707106781186551 0
vn 0.707106781186544 -0.707106781186551 0
vn 0.707106781186544 -0.707106781186551 0
vn 0.707106781186544 -0.707106781186551 0
vn 0.707106781186544 -0.707106781186551 0
vn 0.707106781186544 -0.707106781186551 0
vn 0.707106781186544 -0.707106781186551 0
vn 0.707106781186544 -0.707106781186551 0
vn 0.707106781186544 -0.707106781186551 0
vn 0.707106781186544 -0.707106781186551 0
vn 0 0 1
vn 0 0 1
vn 0 0 1
vn 0 0 1
vn 0 0 1
vn 0 -1 0
vn 0 -0.985008084083844 0.172508186152063
vn 0 -0.941041861784475 0.338290133419834
vn 0 -0.868792449042989 0.495176413499155
vn 0 -0.770741781676627 0.637147632796308
vn 0 -0.649888607354241 0.760029471817485
vn 0 -0.509598726445905 0.860412190757843
vn 0 -0.299593040589523 0.954067088851892
vn 0 -0.152465423713771 0.988308805268768
vn 0 2.01448267082205e-14 1
vn 0 -1 0
vn 0 2.01448267082205e-14 1
vn 0 -0.326331728507207 0.945255310997774
vn 0 -0.590885067034139 0.806755748387367
vn 0 -0.767247173169171 0.64135152238372
vn 0 -0.887988719888573 0.459865233900818
vn 0 -0.960671217635827 0.277688335379969
vn 0 -0.989985280545009 0.141170621250386
vn 0 -1 0
vn 0 -1 0
vn 0 -1 0
vn 0 -1 0
vn 0 0 -1
vn 0 0 -1
vn 0 0 -1
vn 0 0 -1
vn 0 0 -1
vn 0 1 0
vn 0 1 0
vn 0 1 0
vn 0 1 0
vn 0 1 0
vn 0 1 0
usemtl DefaultMaterial
f 4//4 1//1 2//2
f 4//4 2//2 3//3
f 4//4 11//11 12//12
f 4//4 12//12 13//13
f 4//4 13//13 1//1
f 10//10 11//11 4//4
f 6//6 4//4 5//5
f 9//9 10//10 4//4
f 7//7 4//4 6//6
f 8//8 9//9 4//4
f 8//8 4//4 7//7
f 22//22 14//14 15//15
f 22//22 15//15 16//16
f 22//22 16//16 17//17
f 22//22 17//17 18//18
f 22//22 18//18 19//19
f 22//22 19//19 20//20
f 22//22 20//20 21//21
f 24//24 14//14 22//22
f 23//23 24//24 22//22
f 29//29 26//26 25//25
f 27//27 29//29 25//25
f 28//28 29//29 27//27
f 30//30 40//40 47//47
f 31//31 47//47 46//46
f 31//31 30//30 47//47
f 32//32 46//46 45//45
f 32//32 31//31 46//46
f 33//33 45//45 44//44
f 33//33 32//32 45//45
f 34//34 33//33 44//44
f 35//35 44//44 43//43
f 35//35 34//34 44//44
f 36//36 43//43 42//42
f 36//36 35//35 43//43
f 37//37 36//36 42//42
f 38//38 42//42 41//41
f 38//38 37//37 42//42
f 39//39 38//38 41//41
f 51//51 49//49 48//48
f 51//51 48//48 50//50
f 53//53 52//52 54//54
f 56//56 53//53 54//54
f 55//55 56//56 54//54
f 62//62 58//58 57//57
f 62//62 57//57 59//59
f 61//61 59//59 60//60
f 61//61 62//62 59//59
