# File generated by IfcOpenShell v0.7.0-f7c03db75
mtllib IfcBuildingElementProxy_0416184708002915.mtl
g product-e12788ed-ae13-4d5c-b8b9-b4d2049a40a3-body
s 1
v 0 -0.01 0.025
v 1.69 -0.01 0.025
v 1.69 -0.01 0.0185244646984297
v 0 -0.01 0.0185244646984297
v 0 -0.01 0.0185244646984297
v 1.69 -0.01 0.0185244646984297
v 1.69 -0.00700000000000005 0.0185244646984297
v 0 -0.00700000000000005 0.0185244646984297
v 0 -0.00700000000000005 0.0185244646984297
v 1.69 -0.00700000000000005 0.0185244646984297
v 1.69 -0.00700000000000005 0.0221623895678348
v 0 -0.00700000000000005 0.0221623895678348
v 0 -0.00700000000000005 0.0221623895678348
v 1.69 -0.00700000000000005 0.0221623895678348
v 1.69 0.00650034521954957 0.0221623895678348
v 0 0.00650034521954957 0.0221623895678348
v 0 0.00650034521954957 0.0221623895678348
v 1.69 0.00650034521954957 0.0221623895678348
v 1.69 0.00650034521954957 0.0185244646984297
v 0 0.00650034521954957 0.0185244646984297
v 0 0.00650034521954957 0.0185244646984297
v 1.69 0.00650034521954957 0.0185244646984297
v 1.69 0.00498742775042198 0.0152800027157258
v 0 0.00498742775042198 0.0152800027157258
v 0 0.00498742775042198 0.0152800027157258
v 1.69 0.00498742775042198 0.0152800027157258
v 1.69 0.00498742775042199 0
v 0 0.00498742775042199 0
v 0 0.00498742775042199 0
v 1.69 0.00498742775042199 0
v 1.69 0.00498742775042204 -0.0152800027157258
v 0 0.00498742775042204 -0.0152800027157258
v 0 0.00498742775042204 -0.0152800027157258
v 1.69 0.00498742775042204 -0.0152800027157258
v 1.69 0.00650034521954964 -0.0185244646984297
v 0 0.00650034521954964 -0.0185244646984297
v 0 0.00650034521954964 -0.0185244646984297
v 1.69 0.00650034521954964 -0.0185244646984297
v 1.69 0.00650034521954966 -0.0221623895678348
v 0 0.00650034521954966 -0.0221623895678348
v 0 0.00650034521954966 -0.0221623895678348
v 1.69 0.00650034521954966 -0.0221623895678348
v 1.69 -0.00699999999999996 -0.0221623895678348
v 0 -0.00699999999999996 -0.0221623895678348
v 0 -0.00699999999999996 -0.0221623895678348
v 1.69 -0.00699999999999996 -0.0221623895678348
v 1.69 -0.00699999999999997 -0.0185244646984297
v 0 -0.00699999999999997 -0.0185244646984297
v 0 -0.00699999999999997 -0.0185244646984297
v 1.69 -0.00699999999999997 -0.0185244646984297
v 1.69 -0.00999999999999994 -0.0185244646984298
v 0 -0.00999999999999994 -0.0185244646984298
v 0 -0.00999999999999994 -0.0185244646984298
v 1.69 -0.00999999999999994 -0.0185244646984298
v 1.69 -0.00999999999999994 -0.025
v 0 -0.00999999999999994 -0.025
v 0 -0.00999999999999994 -0.025
v 1.69 -0.00999999999999994 -0.025
v 1.69 0.0100000000000001 -0.025
v 0 0.0100000000000001 -0.025
v 0 0.0100000000000001 -0.025
v 1.69 0.0100000000000001 -0.025
v 1.69 0.01 -0.0186651487091792
v 0 0.01 -0.0186651487091792
v 0 0.01 -0.0186651487091792
v 1.69 0.01 -0.0186651487091792
v 1.69 0.00788690869129654 -0.014133609773996
v 0 0.00788690869129654 -0.014133609773996
v 0 0.00788690869129654 -0.014133609773996
v 1.69 0.00788690869129654 -0.014133609773996
v 1.69 0.00788690869129649 0
v 0 0.00788690869129649 0
v 0 0.00788690869129649 0
v 1.69 0.00788690869129649 0
v 1.69 0.00788690869129648 0.014133609773996
v 0 0.00788690869129648 0.014133609773996
v 0 0.00788690869129648 0.014133609773996
v 1.69 0.00788690869129648 0.014133609773996
v 1.69 0.00999999999999996 0.0186651487091792
v 0 0.00999999999999996 0.0186651487091792
v 0 0.00999999999999996 0.0186651487091792
v 1.69 0.00999999999999996 0.0186651487091792
v 1.69 0.00999999999999996 0.025
v 0 0.00999999999999996 0.025
v 0 0.00999999999999996 0.025
v 1.69 0.00999999999999996 0.025
v 1.69 -0.01 0.025
v 0 -0.01 0.025
v 0 -0.01 0.025
v 0 -0.01 0.0185244646984297
v 0 -0.00700000000000005 0.0185244646984297
v 0 -0.00700000000000005 0.0221623895678348
v 0 0.00650034521954957 0.0221623895678348
v 0 0.00650034521954957 0.0185244646984297
v 0 0.00498742775042198 0.0152800027157258
v 0 0.00498742775042199 0
v 0 0.00498742775042204 -0.0152800027157258
v 0 0.00650034521954964 -0.0185244646984297
v 0 0.00650034521954966 -0.0221623895678348
v 0 -0.00699999999999996 -0.0221623895678348
v 0 -0.00699999999999997 -0.0185244646984297
v 0 -0.00999999999999994 -0.0185244646984298
v 0 -0.00999999999999994 -0.025
v 0 0.0100000000000001 -0.025
v 0 0.01 -0.0186651487091792
v 0 0.00788690869129654 -0.014133609773996
v 0 0.00788690869129649 0
v 0 0.00788690869129648 0.014133609773996
v 0 0.00999999999999996 0.0186651487091792
v 0 0.00999999999999996 0.025
v 1.69 -0.01 0.025
v 1.69 -0.01 0.0185244646984297
v 1.69 -0.00700000000000005 0.0185244646984297
v 1.69 -0.00700000000000005 0.0221623895678348
v 1.69 0.00650034521954957 0.0221623895678348
v 1.69 0.00650034521954957 0.0185244646984297
v 1.69 0.00498742775042198 0.0152800027157258
v 1.69 0.00498742775042199 0
v 1.69 0.00498742775042204 -0.0152800027157258
v 1.69 0.00650034521954964 -0.0185244646984297
v 1.69 0.00650034521954966 -0.0221623895678348
v 1.69 -0.00699999999999996 -0.0221623895678348
v 1.69 -0.00699999999999997 -0.0185244646984297
v 1.69 -0.00999999999999994 -0.0185244646984298
v 1.69 -0.00999999999999994 -0.025
v 1.69 0.0100000000000001 -0.025
v 1.69 0.01 -0.0186651487091792
v 1.69 0.00788690869129654 -0.014133609773996
v 1.69 0.00788690869129649 0
v 1.69 0.00788690869129648 0.014133609773996
v 1.69 0.00999999999999996 0.0186651487091792
v 1.69 0.00999999999999996 0.025
vn -0 -1 -0
vn -0 -1 -0
vn -0 -1 -0
vn -0 -1 -0
vn 0 0 -1
vn 0 0 -1
vn 0 0 -1
vn 0 0 -1
vn 0 1 0
vn 0 1 0
vn 0 1 0
vn 0 1 0
vn 0 0 -1
vn 0 0 -1
vn 0 0 -1
vn 0 0 -1
vn -0 -1 -0
vn -0 -1 -0
vn -0 -1 -0
vn -0 -1 -0
vn 0 -0.906307787036649 0.422618261740702
vn 0 -0.906307787036649 0.422618261740702
vn 0 -0.906307787036649 0.422618261740702
vn 0 -0.906307787036649 0.422618261740702
vn -0 -1 -6.52791767936073e-16
vn -0 -1 -6.52791767936073e-16
vn -0 -1 -6.52791767936073e-16
vn -0 -1 -6.52791767936073e-16
vn -0 -1 -3.26395883968036e-15
vn -0 -1 -3.26395883968036e-15
vn -0 -1 -3.26395883968036e-15
vn -0 -1 -3.26395883968036e-15
vn -0 -0.906307787036648 -0.422618261740704
vn -0 -0.906307787036648 -0.422618261740704
vn -0 -0.906307787036648 -0.422618261740704
vn -0 -0.906307787036648 -0.422618261740704
vn -0 -1 -5.48370862232664e-15
vn -0 -1 -5.48370862232664e-15
vn -0 -1 -5.48370862232664e-15
vn -0 -1 -5.48370862232664e-15
vn 0 0 1
vn 0 0 1
vn 0 0 1
vn 0 0 1
vn 0 1 2.38422114014202e-15
vn 0 1 2.38422114014202e-15
vn 0 1 2.38422114014202e-15
vn 0 1 2.38422114014202e-15
vn 0 -3.35379872022186e-14 1
vn 0 -3.35379872022186e-14 1
vn 0 -3.35379872022186e-14 1
vn 0 -3.35379872022186e-14 1
vn -0 -1 -0
vn -0 -1 -0
vn -0 -1 -0
vn -0 -1 -0
vn 0 0 -1
vn 0 0 -1
vn 0 0 -1
vn 0 0 -1
vn 0 1 4.65524725644897e-15
vn 0 1 4.65524725644897e-15
vn 0 1 4.65524725644897e-15
vn 0 1 4.65524725644897e-15
vn 0 0.906307787036649 0.422618261740702
vn 0 0.906307787036649 0.422618261740702
vn 0 0.906307787036649 0.422618261740702
vn 0 0.906307787036649 0.422618261740702
vn 0 1 3.6207553031123e-15
vn 0 1 3.6207553031123e-15
vn 0 1 3.6207553031123e-15
vn 0 1 3.6207553031123e-15
vn 0 1 6.75056073461615e-16
vn 0 1 6.75056073461615e-16
vn 0 1 6.75056073461615e-16
vn 0 1 6.75056073461615e-16
vn 0 0.90630778703665 -0.4226182617407
vn 0 0.90630778703665 -0.4226182617407
vn 0 0.90630778703665 -0.4226182617407
vn 0 0.90630778703665 -0.4226182617407
vn 0 1 0
vn 0 1 0
vn 0 1 0
vn 0 1 0
vn 0 0 1
vn 0 0 1
vn 0 0 1
vn 0 0 1
vn -1 0 0
vn -1 0 0
vn -1 0 0
vn -1 0 0
vn -1 0 0
vn -1 0 0
vn -1 0 0
vn -1 0 0
vn -1 0 0
vn -1 0 0
vn -1 0 0
vn -1 0 0
vn -1 0 0
vn -1 0 0
vn -1 0 0
vn -1 0 0
vn -1 0 0
vn -1 0 0
vn -1 0 0
vn -1 0 0
vn -1 0 0
vn -1 0 0
vn 1 0 0
vn 1 0 0
vn 1 0 0
vn 1 0 0
vn 1 0 0
vn 1 0 0
vn 1 0 0
vn 1 0 0
vn 1 0 0
vn 1 0 0
vn 1 0 0
vn 1 0 0
vn 1 0 0
vn 1 0 0
vn 1 0 0
vn 1 0 0
vn 1 0 0
vn 1 0 0
vn 1 0 0
vn 1 0 0
vn 1 0 0
vn 1 0 0
usemtl DefaultMaterial
f 2//2 1//1 4//4
f 3//3 2//2 4//4
f 6//6 5//5 8//8
f 7//7 6//6 8//8
f 10//10 9//9 12//12
f 11//11 10//10 12//12
f 14//14 13//13 16//16
f 15//15 14//14 16//16
f 18//18 17//17 20//20
f 19//19 18//18 20//20
f 22//22 21//21 24//24
f 23//23 22//22 24//24
f 26//26 25//25 28//28
f 27//27 26//26 28//28
f 30//30 29//29 32//32
f 31//31 30//30 32//32
f 34//34 33//33 36//36
f 35//35 34//34 36//36
f 38//38 37//37 40//40
f 39//39 38//38 40//40
f 42//42 41//41 44//44
f 43//43 42//42 44//44
f 46//46 45//45 48//48
f 47//47 46//46 48//48
f 50//50 49//49 52//52
f 51//51 50//50 52//52
f 54//54 53//53 56//56
f 55//55 54//54 56//56
f 58//58 57//57 60//60
f 59//59 58//58 60//60
f 62//62 61//61 64//64
f 63//63 62//62 64//64
f 66//66 65//65 68//68
f 67//67 66//66 68//68
f 70//70 69//69 72//72
f 71//71 70//70 72//72
f 74//74 73//73 76//76
f 75//75 74//74 76//76
f 78//78 77//77 80//80
f 79//79 78//78 80//80
f 82//82 81//81 84//84
f 83//83 82//82 84//84
f 86//86 85//85 88//88
f 87//87 86//86 88//88
f 89//89 92//92 90//90
f 90//90 92//92 91//91
f 92//92 89//89 93//93
f 93//93 89//89 110//110
f 94//94 93//93 109//109
f 93//93 110//110 109//109
f 95//95 94//94 108//108
f 94//94 109//109 108//108
f 95//95 108//108 96//96
f 96//96 108//108 107//107
f 102//102 101//101 100//100
f 103//103 102//102 100//100
f 97//97 96//96 106//106
f 96//96 107//107 106//106
f 97//97 106//106 98//98
f 103//103 100//100 99//99
f 99//99 98//98 105//105
f 98//98 106//106 105//105
f 99//99 105//105 104//104
f 103//103 99//99 104//104
f 112//112 114//114 111//111
f 113//113 114//114 112//112
f 115//115 111//111 114//114
f 132//132 111//111 115//115
f 131//131 115//115 116//116
f 131//131 132//132 115//115
f 130//130 116//116 117//117
f 130//130 131//131 116//116
f 118//118 130//130 117//117
f 129//129 130//130 118//118
f 122//122 123//123 124//124
f 122//122 124//124 125//125
f 128//128 118//118 119//119
f 128//128 129//129 118//118
f 120//120 128//128 119//119
f 121//121 122//122 125//125
f 127//127 120//120 121//121
f 127//127 128//128 120//120
f 126//126 127//127 121//121
f 126//126 121//121 125//125
