# File generated by IfcOpenShell v0.7.0-f7c03db75
mtllib IfcBuildingElementProxy_0416184706400894.mtl
g product-77f43fa1-842e-472b-9308-e0bae1488211-body
s 1
v 6.682 0.04 0
v 6.682 0.04 0.35
v 0.04 0.04 0.35
v 0.04 0.04 0
v 0.04 0.04 0
v 0.04 0.04 0.35
v 0 0 0.35
v 0 0 0
v 0 0 0
v 0 0 0.35
v 6.682 0 0.35
v 6.682 0 0
v 6.682 0 0
v 6.682 0 0.35
v 6.682 0.04 0.35
v 6.682 0.04 0
v 6.682 0.04 0
v 0.04 0.04 0
v 0 0 0
v 6.682 0 0
v 6.682 0.04 0.35
v 0.04 0.04 0.35
v 0 0 0.35
v 6.682 0 0.35
v 6.682 0.04 0.39
v 6.682 0.04 0.740000000000001
v 0.04 0.04 0.740000000000001
v 0.04 0.04 0.39
v 0.04 0.04 0.39
v 0.04 0.04 0.740000000000001
v 0 0 0.740000000000001
v 0 0 0.39
v 0 0 0.39
v 0 0 0.740000000000001
v 6.682 0 0.740000000000001
v 6.682 0 0.39
v 6.682 0 0.39
v 6.682 0 0.740000000000001
v 6.682 0.04 0.740000000000001
v 6.682 0.04 0.39
v 6.682 0.04 0.39
v 0.04 0.04 0.39
v 0 0 0.39
v 6.682 0 0.39
v 6.682 0.04 0.740000000000001
v 0.04 0.04 0.740000000000001
v 0 0 0.740000000000001
v 6.682 0 0.740000000000001
vn 0 1 0
vn 0 1 0
vn 0 1 0
vn 0 1 0
vn -0.707106781186547 0.707106781186548 0
vn -0.707106781186547 0.707106781186548 0
vn -0.707106781186547 0.707106781186548 0
vn -0.707106781186547 0.707106781186548 0
vn 0 -1 0
vn 0 -1 0
vn 0 -1 0
vn 0 -1 0
vn 1 0 0
vn 1 0 0
vn 1 0 0
vn 1 0 0
vn -0 -0 -1
vn -0 -0 -1
vn -0 -0 -1
vn -0 -0 -1
vn 0 0 1
vn 0 0 1
vn 0 0 1
vn 0 0 1
vn 0 1 0
vn 0 1 0
vn 0 1 0
vn 0 1 0
vn -0.707106781186547 0.707106781186548 0
vn -0.707106781186547 0.707106781186548 0
vn -0.707106781186547 0.707106781186548 0
vn -0.707106781186547 0.707106781186548 0
vn 0 -1 0
vn 0 -1 0
vn 0 -1 0
vn 0 -1 0
vn 1 0 0
vn 1 0 0
vn 1 0 0
vn 1 0 0
vn -0 -0 -1
vn -0 -0 -1
vn -0 -0 -1
vn -0 -0 -1
vn 0 0 1
vn 0 0 1
vn 0 0 1
vn 0 0 1
usemtl DefaultMaterial
f 2//2 1//1 4//4
f 3//3 2//2 4//4
f 6//6 5//5 8//8
f 7//7 6//6 8//8
f 10//10 9//9 12//12
f 11//11 10//10 12//12
f 14//14 13//13 16//16
f 15//15 14//14 16//16
f 17//17 20//20 18//18
f 18//18 20//20 19//19
f 22//22 24//24 21//21
f 23//23 24//24 22//22
f 26//26 25//25 28//28
f 27//27 26//26 28//28
f 30//30 29//29 32//32
f 31//31 30//30 32//32
f 34//34 33//33 36//36
f 35//35 34//34 36//36
f 38//38 37//37 40//40
f 39//39 38//38 40//40
f 41//41 44//44 42//42
f 42//42 44//44 43//43
f 46//46 48//48 45//45
f 47//47 48//48 46//46
