# File generated by IfcOpenShell v0.7.0-f7c03db75
mtllib IfcBuildingElementProxy_0416184707460002.mtl
g product-13d39140-d717-427f-8f55-7bf2042e7060-body
s 1
v 2.315 0.0315952722359239 6.03683769639929e-16
v 4.75300000000048 0.0315952722359239 6.03683769639929e-16
v 4.75300000000048 0.0315952722359238 0.100000000000001
v 2.315 0.0315952722359238 0.100000000000001
v 2.315 0.0315952722359238 0.100000000000001
v 4.75300000000048 0.0315952722359238 0.100000000000001
v 4.75300000000048 0.0235952722359239 0.100000000000001
v 2.315 0.0235952722359239 0.100000000000001
v 2.315 0.0235952722359239 0.100000000000001
v 4.75300000000048 0.0235952722359239 0.100000000000001
v 4.75300000000048 0.0209250210284481 0.0996991349461825
v 4.75300000000048 0.0183886673665132 0.0988116264148296
v 4.75300000000048 0.0161133946136191 0.097381977789617
v 4.75300000000048 0.0142132944463075 0.0954818776223054
v 4.75300000000048 0.0127836458210949 0.0932066048694113
v 4.75300000000048 0.011896137289742 0.0906702512074764
v 4.75300000000048 0.0115952722359238 0.0880000000000006
v 2.315 0.0115952722359238 0.0880000000000006
v 2.315 0.0209250210284481 0.0996991349461825
v 2.315 0.0183886673665132 0.0988116264148296
v 2.315 0.0161133946136191 0.097381977789617
v 2.315 0.0142132944463075 0.0954818776223054
v 2.315 0.0127836458210949 0.0932066048694113
v 2.315 0.011896137289742 0.0906702512074764
v 2.315 0.0115952722359238 0.0880000000000006
v 4.75300000000048 0.0115952722359238 0.0880000000000006
v 4.75300000000048 0.0115952722359238 0.0300000000000008
v 2.315 0.0115952722359238 0.0300000000000008
v 2.315 0.0115952722359238 0.0300000000000008
v 4.75300000000048 0.0115952722359238 0.0300000000000008
v 4.75300000000048 0.00659527223592389 0.0300000000000008
v 2.315 0.00659527223592389 0.0300000000000008
v 2.315 0.00659527223592389 0.0300000000000008
v 4.75300000000048 0.00659527223592389 0.0300000000000008
v 4.75300000000048 0.00548266756614236 0.0298746395609099
v 4.75300000000048 0.00442585354033614 0.0295048443395129
v 4.75300000000048 0.00347782322663026 0.0289091574123409
v 4.75300000000048 0.00268611482358379 0.0281174490092945
v 4.75300000000048 0.00209042789641184 0.0271694186955886
v 4.75300000000048 0.00172063267501482 0.0261126046697824
v 4.75300000000048 0.00159527223592392 0.0250000000000008
v 2.315 0.00159527223592392 0.0250000000000008
v 2.315 0.00548266756614236 0.0298746395609099
v 2.315 0.00442585354033614 0.0295048443395129
v 2.315 0.00347782322663026 0.0289091574123409
v 2.315 0.00268611482358379 0.0281174490092945
v 2.315 0.00209042789641184 0.0271694186955886
v 2.315 0.00172063267501482 0.0261126046697824
v 2.315 0.00159527223592392 0.0250000000000008
v 4.75300000000048 0.00159527223592392 0.0250000000000008
v 4.75300000000048 0.0015952722359239 5.06539254985228e-16
v 2.315 0.0015952722359239 5.06539254985228e-16
v 2.315 0.0015952722359239 5.06539254985228e-16
v 4.75300000000048 0.0015952722359239 5.06539254985228e-16
v 4.75300000000048 0.0315952722359239 6.03683769639929e-16
v 2.315 0.0315952722359239 6.03683769639929e-16
v 2.315 0.0315952722359239 6.03683769639929e-16
v 2.315 0.0315952722359238 0.100000000000001
v 2.315 0.0235952722359239 0.100000000000001
v 2.315 0.0209250210284481 0.0996991349461825
v 2.315 0.0183886673665132 0.0988116264148296
v 2.315 0.0161133946136191 0.097381977789617
v 2.315 0.0142132944463075 0.0954818776223054
v 2.315 0.0127836458210949 0.0932066048694113
v 2.315 0.011896137289742 0.0906702512074764
v 2.315 0.0115952722359238 0.0880000000000006
v 2.315 0.0115952722359238 0.0300000000000008
v 2.315 0.00659527223592389 0.0300000000000008
v 2.315 0.00548266756614236 0.0298746395609099
v 2.315 0.00442585354033614 0.0295048443395129
v 2.315 0.00347782322663026 0.0289091574123409
v 2.315 0.00268611482358379 0.0281174490092945
v 2.315 0.00209042789641184 0.0271694186955886
v 2.315 0.00172063267501482 0.0261126046697824
v 2.315 0.00159527223592392 0.0250000000000008
v 2.315 0.0015952722359239 5.06539254985228e-16
v 4.75300000000048 0.0315952722359239 6.03683769639929e-16
v 4.75300000000048 0.0315952722359238 0.100000000000001
v 4.75300000000048 0.0235952722359239 0.100000000000001
v 4.75300000000048 0.0209250210284481 0.0996991349461825
v 4.75300000000048 0.0183886673665132 0.0988116264148296
v 4.75300000000048 0.0161133946136191 0.097381977789617
v 4.75300000000048 0.0142132944463075 0.0954818776223054
v 4.75300000000048 0.0127836458210949 0.0932066048694113
v 4.75300000000048 0.011896137289742 0.0906702512074764
v 4.75300000000048 0.0115952722359238 0.0880000000000006
v 4.75300000000048 0.0115952722359238 0.0300000000000008
v 4.75300000000048 0.00659527223592389 0.0300000000000008
v 4.75300000000048 0.00548266756614236 0.0298746395609099
v 4.75300000000048 0.00442585354033614 0.0295048443395129
v 4.75300000000048 0.00347782322663026 0.0289091574123409
v 4.75300000000048 0.00268611482358379 0.0281174490092945
v 4.75300000000048 0.00209042789641184 0.0271694186955886
v 4.75300000000048 0.00172063267501482 0.0261126046697824
v 4.75300000000048 0.00159527223592392 0.0250000000000008
v 4.75300000000048 0.0015952722359239 5.06539254985228e-16
v 0 0.0315952722359312 6.03683769639929e-16
v 1.01499999999949 0.0315952722359312 6.03683769639929e-16
v 1.01499999999949 0.0315952722359312 0.100000000000001
v 0 0.0315952722359312 0.100000000000001
v 0 0.0315952722359312 0.100000000000001
v 1.01499999999949 0.0315952722359312 0.100000000000001
v 1.01499999999949 0.0235952722359313 0.100000000000001
v 0 0.0235952722359313 0.100000000000001
v 0 0.0235952722359313 0.100000000000001
v 1.01499999999949 0.0235952722359313 0.100000000000001
v 1.01499999999949 0.0209250210284555 0.0996991349461825
v 1.01499999999949 0.0183886673665206 0.0988116264148296
v 1.01499999999949 0.0161133946136265 0.097381977789617
v 1.01499999999949 0.0142132944463149 0.0954818776223054
v 1.01499999999949 0.0127836458211023 0.0932066048694113
v 1.01499999999949 0.0118961372897494 0.0906702512074764
v 1.01499999999949 0.0115952722359313 0.0880000000000006
v 0 0.0115952722359313 0.0880000000000006
v 0 0.0209250210284555 0.0996991349461825
v 0 0.0183886673665206 0.0988116264148296
v 0 0.0161133946136265 0.097381977789617
v 0 0.0142132944463149 0.0954818776223054
v 0 0.0127836458211023 0.0932066048694113
v 0 0.0118961372897494 0.0906702512074764
v 0 0.0115952722359313 0.0880000000000006
v 1.01499999999949 0.0115952722359313 0.0880000000000006
v 1.01499999999949 0.0115952722359312 0.0300000000000008
v 0 0.0115952722359312 0.0300000000000008
v 0 0.0115952722359312 0.0300000000000008
v 1.01499999999949 0.0115952722359312 0.0300000000000008
v 1.01499999999949 0.00659527223593123 0.0300000000000008
v 0 0.00659527223593123 0.0300000000000008
v 0 0.00659527223593123 0.0300000000000008
v 1.01499999999949 0.00659527223593123 0.0300000000000008
v 1.01499999999949 0.00548266756614966 0.0298746395609099
v 1.01499999999949 0.00442585354034344 0.0295048443395129
v 1.01499999999949 0.00347782322663757 0.0289091574123409
v 1.01499999999949 0.00268611482359109 0.0281174490092945
v 1.01499999999949 0.00209042789641914 0.0271694186955886
v 1.01499999999949 0.00172063267502212 0.0261126046697824
v 1.01499999999949 0.00159527223593122 0.0250000000000008
v 0 0.00159527223593122 0.0250000000000008
v 0 0.00548266756614966 0.0298746395609099
v 0 0.00442585354034344 0.0295048443395129
v 0 0.00347782322663757 0.0289091574123409
v 0 0.00268611482359109 0.0281174490092945
v 0 0.00209042789641914 0.0271694186955886
v 0 0.00172063267502212 0.0261126046697824
v 0 0.00159527223593122 0.0250000000000008
v 1.01499999999949 0.00159527223593122 0.0250000000000008
v 1.01499999999949 0.00159527223593125 6.03683769639929e-16
v 0 0.00159527223593125 6.03683769639929e-16
v 0 0.00159527223593125 6.03683769639929e-16
v 1.01499999999949 0.00159527223593125 6.03683769639929e-16
v 1.01499999999949 0.0315952722359312 6.03683769639929e-16
v 0 0.0315952722359312 6.03683769639929e-16
v 0 0.0315952722359312 6.03683769639929e-16
v 0 0.0315952722359312 0.100000000000001
v 0 0.0235952722359313 0.100000000000001
v 0 0.0209250210284555 0.0996991349461825
v 0 0.0183886673665206 0.0988116264148296
v 0 0.0161133946136265 0.097381977789617
v 0 0.0142132944463149 0.0954818776223054
v 0 0.0127836458211023 0.0932066048694113
v 0 0.0118961372897494 0.0906702512074764
v 0 0.0115952722359313 0.0880000000000006
v 0 0.0115952722359312 0.0300000000000008
v 0 0.00659527223593123 0.0300000000000008
v 0 0.00548266756614966 0.0298746395609099
v 0 0.00442585354034344 0.0295048443395129
v 0 0.00347782322663757 0.0289091574123409
v 0 0.00268611482359109 0.0281174490092945
v 0 0.00209042789641914 0.0271694186955886
v 0 0.00172063267502212 0.0261126046697824
v 0 0.00159527223593122 0.0250000000000008
v 0 0.00159527223593125 6.03683769639929e-16
v 1.01499999999949 0.0315952722359312 6.03683769639929e-16
v 1.01499999999949 0.0315952722359312 0.100000000000001
v 1.01499999999949 0.0235952722359313 0.100000000000001
v 1.01499999999949 0.0209250210284555 0.0996991349461825
v 1.01499999999949 0.0183886673665206 0.0988116264148296
v 1.01499999999949 0.0161133946136265 0.097381977789617
v 1.01499999999949 0.0142132944463149 0.0954818776223054
v 1.01499999999949 0.0127836458211023 0.0932066048694113
v 1.01499999999949 0.0118961372897494 0.0906702512074764
v 1.01499999999949 0.0115952722359313 0.0880000000000006
v 1.01499999999949 0.0115952722359312 0.0300000000000008
v 1.01499999999949 0.00659527223593123 0.0300000000000008
v 1.01499999999949 0.00548266756614966 0.0298746395609099
v 1.01499999999949 0.00442585354034344 0.0295048443395129
v 1.01499999999949 0.00347782322663757 0.0289091574123409
v 1.01499999999949 0.00268611482359109 0.0281174490092945
v 1.01499999999949 0.00209042789641914 0.0271694186955886
v 1.01499999999949 0.00172063267502212 0.0261126046697824
v 1.01499999999949 0.00159527223593122 0.0250000000000008
v 1.01499999999949 0.00159527223593125 6.03683769639929e-16
vn 0 1 0
vn 0 1 0
vn 0 1 0
vn 0 1 0
vn 0 0 1
vn 0 0 1
vn 0 0 1
vn 0 0 1
vn 0 3.16985680890781e-15 1
vn 0 3.16985680890781e-15 1
vn 0 -0.222520933956312 0.974927912181824
vn 0 -0.433883739117557 0.90096886790242
vn 0 -0.623489801858732 0.781831482468031
vn 0 -0.781831482468029 0.623489801858734
vn 0 -0.900968867902419 0.433883739117559
vn 0 -0.974927912181824 0.222520933956314
vn -0 -1 -7.6571373978539e-16
vn -0 -1 -7.6571373978539e-16
vn 0 -0.222520933956312 0.974927912181824
vn 0 -0.433883739117557 0.90096886790242
vn 0 -0.623489801858732 0.781831482468031
vn 0 -0.781831482468029 0.623489801858734
vn 0 -0.900968867902419 0.433883739117559
vn 0 -0.974927912181824 0.222520933956314
vn -0 -1 -3.43953792650575e-16
vn -0 -1 -3.43953792650575e-16
vn -0 -1 -3.43953792650575e-16
vn -0 -1 -3.43953792650575e-16
vn 0 0 1
vn 0 0 1
vn 0 0 1
vn 0 0 1
vn 0 -1.93716910436791e-15 1
vn 0 -1.93716910436791e-15 1
vn 0 -0.222520933956316 0.974927912181823
vn 0 -0.43388373911756 0.900968867902418
vn 0 -0.623489801858735 0.781831482468029
vn 0 -0.781831482468031 0.623489801858732
vn 0 -0.90096886790242 0.433883739117557
vn 0 -0.974927912181824 0.222520933956313
vn -0 -1 -7.6571373978539e-16
vn -0 -1 -7.6571373978539e-16
vn 0 -0.222520933956316 0.974927912181823
vn 0 -0.43388373911756 0.900968867902418
vn 0 -0.623489801858735 0.781831482468029
vn 0 -0.781831482468031 0.623489801858732
vn 0 -0.90096886790242 0.433883739117557
vn 0 -0.974927912181824 0.222520933956313
vn -0 -1 -0
vn -0 -1 -0
vn -0 -1 -0
vn -0 -1 -0
vn 0 3.23815048849004e-15 -1
vn 0 3.23815048849004e-15 -1
vn 0 3.23815048849004e-15 -1
vn 0 3.23815048849004e-15 -1
vn -1 0 0
vn -1 0 0
vn -1 0 0
vn -1 0 0
vn -1 0 0
vn -1 0 0
vn -1 0 0
vn -1 0 0
vn -1 0 0
vn -1 0 0
vn -1 0 0
vn -1 0 0
vn -1 0 0
vn -1 0 0
vn -1 0 0
vn -1 0 0
vn -1 0 0
vn -1 0 0
vn -1 0 0
vn -1 0 0
vn 1 0 0
vn 1 0 0
vn 1 0 0
vn 1 0 0
vn 1 0 0
vn 1 0 0
vn 1 0 0
vn 1 0 0
vn 1 0 0
vn 1 0 0
vn 1 0 0
vn 1 0 0
vn 1 0 0
vn 1 0 0
vn 1 0 0
vn 1 0 0
vn 1 0 0
vn 1 0 0
vn 1 0 0
vn 1 0 0
vn 0 1 0
vn 0 1 0
vn 0 1 0
vn 0 1 0
vn 0 0 1
vn 0 0 1
vn 0 0 1
vn 0 0 1
vn 0 3.16985680890781e-15 1
vn 0 3.16985680890781e-15 1
vn 0 -0.222520933956312 0.974927912181824
vn 0 -0.433883739117557 0.90096886790242
vn 0 -0.623489801858732 0.781831482468031
vn 0 -0.781831482468029 0.623489801858734
vn 0 -0.900968867902419 0.433883739117559
vn 0 -0.974927912181824 0.222520933956314
vn -0 -1 -7.6571373978539e-16
vn -0 -1 -7.6571373978539e-16
vn 0 -0.222520933956312 0.974927912181824
vn 0 -0.433883739117557 0.90096886790242
vn 0 -0.623489801858732 0.781831482468031
vn 0 -0.781831482468029 0.623489801858734
vn 0 -0.900968867902419 0.433883739117559
vn 0 -0.974927912181824 0.222520933956314
vn 0 -1 8.59884481626437e-16
vn 0 -1 8.59884481626437e-16
vn 0 -1 8.59884481626437e-16
vn 0 -1 8.59884481626437e-16
vn 0 0 1
vn 0 0 1
vn 0 0 1
vn 0 0 1
vn 0 -1.93716910436791e-15 1
vn 0 -1.93716910436791e-15 1
vn 0 -0.222520933956316 0.974927912181823
vn 0 -0.43388373911756 0.900968867902418
vn 0 -0.623489801858735 0.781831482468029
vn 0 -0.781831482468031 0.623489801858732
vn 0 -0.90096886790242 0.433883739117557
vn 0 -0.974927912181824 0.222520933956313
vn -0 -1 -7.6571373978539e-16
vn -0 -1 -7.6571373978539e-16
vn 0 -0.222520933956316 0.974927912181823
vn 0 -0.43388373911756 0.900968867902418
vn 0 -0.623489801858735 0.781831482468029
vn 0 -0.781831482468031 0.623489801858732
vn 0 -0.90096886790242 0.433883739117557
vn 0 -0.974927912181824 0.222520933956313
vn -0 -1 -0
vn -0 -1 -0
vn -0 -1 -0
vn -0 -1 -0
vn 0 0 -1
vn 0 0 -1
vn 0 0 -1
vn 0 0 -1
vn -1 0 0
vn -1 0 0
vn -1 0 0
vn -1 0 0
vn -1 0 0
vn -1 0 0
vn -1 0 0
vn -1 0 0
vn -1 0 0
vn -1 0 0
vn -1 0 0
vn -1 0 0
vn -1 0 0
vn -1 0 0
vn -1 0 0
vn -1 0 0
vn -1 0 0
vn -1 0 0
vn -1 0 0
vn -1 0 0
vn 1 0 0
vn 1 0 0
vn 1 0 0
vn 1 0 0
vn 1 0 0
vn 1 0 0
vn 1 0 0
vn 1 0 0
vn 1 0 0
vn 1 0 0
vn 1 0 0
vn 1 0 0
vn 1 0 0
vn 1 0 0
vn 1 0 0
vn 1 0 0
vn 1 0 0
vn 1 0 0
vn 1 0 0
vn 1 0 0
usemtl DefaultMaterial
f 2//2 1//1 4//4
f 3//3 2//2 4//4
f 6//6 5//5 8//8
f 7//7 6//6 8//8
f 10//10 9//9 19//19
f 11//11 10//10 19//19
f 12//12 11//11 20//20
f 11//11 19//19 20//20
f 13//13 12//12 21//21
f 12//12 20//20 21//21
f 14//14 13//13 22//22
f 15//15 14//14 22//22
f 13//13 21//21 22//22
f 15//15 22//22 23//23
f 16//16 15//15 24//24
f 15//15 23//23 24//24
f 17//17 16//16 18//18
f 16//16 24//24 18//18
f 26//26 25//25 28//28
f 27//27 26//26 28//28
f 30//30 29//29 32//32
f 31//31 30//30 32//32
f 34//34 33//33 43//43
f 35//35 34//34 43//43
f 36//36 35//35 44//44
f 35//35 43//43 44//44
f 37//37 36//36 45//45
f 36//36 44//44 45//45
f 38//38 37//37 46//46
f 37//37 45//45 46//46
f 39//39 38//38 47//47
f 38//38 46//46 47//47
f 40//40 39//39 48//48
f 39//39 47//47 48//48
f 41//41 40//40 42//42
f 40//40 48//48 42//42
f 50//50 49//49 52//52
f 51//51 50//50 52//52
f 54//54 53//53 56//56
f 55//55 54//54 56//56
f 57//57 76//76 67//67
f 68//68 67//67 75//75
f 67//67 76//76 75//75
f 69//69 68//68 71//71
f 70//70 69//69 71//71
f 73//73 72//72 71//71
f 74//74 73//73 71//71
f 75//75 74//74 71//71
f 68//68 75//75 71//71
f 57//57 67//67 58//58
f 59//59 58//58 66//66
f 58//58 67//67 66//66
f 60//60 59//59 63//63
f 61//61 60//60 63//63
f 62//62 61//61 63//63
f 65//65 64//64 63//63
f 66//66 65//65 63//63
f 59//59 66//66 63//63
f 87//87 96//96 77//77
f 95//95 87//87 88//88
f 95//95 96//96 87//87
f 91//91 88//88 89//89
f 91//91 89//89 90//90
f 91//91 92//92 93//93
f 91//91 93//93 94//94
f 91//91 94//94 95//95
f 91//91 95//95 88//88
f 78//78 87//87 77//77
f 86//86 78//78 79//79
f 86//86 87//87 78//78
f 83//83 79//79 80//80
f 83//83 80//80 81//81
f 83//83 81//81 82//82
f 83//83 84//84 85//85
f 83//83 85//85 86//86
f 83//83 86//86 79//79
f 98//98 97//97 100//100
f 99//99 98//98 100//100
f 102//102 101//101 104//104
f 103//103 102//102 104//104
f 106//106 105//105 115//115
f 107//107 106//106 115//115
f 108//108 107//107 116//116
f 107//107 115//115 116//116
f 109//109 108//108 117//117
f 108//108 116//116 117//117
f 110//110 109//109 118//118
f 109//109 117//117 118//118
f 111//111 110//110 119//119
f 110//110 118//118 119//119
f 112//112 111//111 120//120
f 111//111 119//119 120//120
f 113//113 112//112 114//114
f 112//112 120//120 114//114
f 122//122 121//121 124//124
f 123//123 122//122 124//124
f 126//126 125//125 128//128
f 127//127 126//126 128//128
f 130//130 129//129 139//139
f 131//131 130//130 139//139
f 132//132 131//131 140//140
f 131//131 139//139 140//140
f 133//133 132//132 141//141
f 132//132 140//140 141//141
f 134//134 133//133 142//142
f 133//133 141//141 142//142
f 135//135 134//134 143//143
f 134//134 142//142 143//143
f 136//136 135//135 144//144
f 135//135 143//143 144//144
f 137//137 136//136 138//138
f 136//136 144//144 138//138
f 146//146 145//145 148//148
f 147//147 146//146 148//148
f 150//150 149//149 152//152
f 151//151 150//150 152//152
f 153//153 172//172 163//163
f 164//164 163//163 171//171
f 163//163 172//172 171//171
f 165//165 164//164 167//167
f 166//166 165//165 167//167
f 169//169 168//168 167//167
f 170//170 169//169 167//167
f 171//171 170//170 167//167
f 164//164 171//171 167//167
f 153//153 163//163 154//154
f 155//155 154//154 162//162
f 154//154 163//163 162//162
f 156//156 155//155 159//159
f 157//157 156//156 159//159
f 158//158 157//157 159//159
f 161//161 160//160 159//159
f 162//162 161//161 159//159
f 155//155 162//162 159//159
f 183//183 192//192 173//173
f 191//191 183//183 184//184
f 191//191 192//192 183//183
f 187//187 184//184 185//185
f 187//187 185//185 186//186
f 187//187 188//188 189//189
f 187//187 189//189 190//190
f 187//187 190//190 191//191
f 187//187 191//191 184//184
f 174//174 183//183 173//173
f 182//182 174//174 175//175
f 182//182 183//183 174//174
f 179//179 175//175 176//176
f 179//179 176//176 177//177
f 179//179 177//177 178//178
f 179//179 180//180 181//181
f 179//179 181//181 182//182
f 179//179 182//182 175//175
