# File generated by IfcOpenShell v0.7.0-f7c03db75
mtllib IfcBuildingElementProxy_0416184706291994.mtl
g product-29b8aac9-aa14-4ba8-85cd-832e1bf2c266-body
s 1
v 0 0 1.1
v 0 0 0
v 0.03 0 0
v 0.03 0 1.075
v 0.029541812850404 0 1.07976439104354
v 0.0281840462387402 0 1.08435414346693
v 0.025976469062098 0 1.08860102002376
v 0.023 0 1.09234935157289
v 0.0191748454044681 0 1.09559305120082
v 0.0147792180330959 0 1.09800797458842
v 0.00999002180804923 0 1.09949693210088
v 0.005 0 1.1
v 0 1.991 0
v 0 1.991 1.1
v 0.005 1.991 1.1
v 0.00999002180804922 1.991 1.09949693210088
v 0.0147792180330959 1.991 1.09800797458842
v 0.0191748454044681 1.991 1.09559305120082
v 0.023 1.991 1.09234935157289
v 0.025976469062098 1.991 1.08860102002376
v 0.0281840462387402 1.991 1.08435414346693
v 0.029541812850404 1.991 1.07976439104354
v 0.03 1.991 1.075
v 0.03 1.991 0
v 0 0 1.1
v 0 0 0
v 0 0.177 1.1
v 0 0.177 0.05
v 0 0.977 0.05
v 0 0.977 1.1
v 0 1.991 1.1
v 0 1.991 0
v 0 0 0
v 0.03 0 0
v 0 1.991 0
v 0.03 1.991 0
v 0.03 0 0
v 0.03 0 1.075
v 0.03 1.991 0
v 0.03 1.991 1.075
v 0.03 0.977 1.075
v 0.03 0.977 0.05
v 0.03 0.177 0.05
v 0.03 0.177 1.075
v 0.023 1.991 1.09234935157289
v 0.025976469062098 1.991 1.08860102002376
v 0.0281840462387402 1.991 1.08435414346693
v 0.029541812850404 1.991 1.07976439104354
v 0.03 1.991 1.075
v 0.005 1.991 1.1
v 0.00999002180804922 1.991 1.09949693210088
v 0.0147792180330959 1.991 1.09800797458842
v 0.0191748454044681 1.991 1.09559305120082
v 0.005 0.977 1.1
v 0.00999002180804922 0.977 1.09949693210088
v 0.0147792180330959 0.977 1.09800797458842
v 0.0191748454044681 0.977 1.09559305120082
v 0.023 0.977 1.09234935157289
v 0.025976469062098 0.977 1.08860102002376
v 0.0281840462387402 0.977 1.08435414346693
v 0.029541812850404 0.977 1.07976439104354
v 0.03 0.977 1.075
v 0.005 0 1.1
v 0 0 1.1
v 0.005 0.177 1.1
v 0 0.177 1.1
v 0 0.977 0.05
v 0.03 0.977 0.05
v 0.03 0.977 1.075
v 0.023 0.977 1.09234935157289
v 0.025976469062098 0.977 1.08860102002376
v 0.0281840462387402 0.977 1.08435414346693
v 0.029541812850404 0.977 1.07976439104354
v 0.005 0.977 1.1
v 0.00999002180804922 0.977 1.09949693210088
v 0.0147792180330959 0.977 1.09800797458842
v 0.0191748454044681 0.977 1.09559305120082
v 0 0.977 1.1
v 0.03 0.177 0.05
v 0 0.177 0.05
v 0 0.177 1.1
v 0.005 0.177 1.1
v 0.023 0.177 1.09234935157289
v 0.0191748454044681 0.177 1.09559305120082
v 0.0147792180330959 0.177 1.09800797458842
v 0.00999002180804923 0.177 1.09949693210088
v 0.03 0.177 1.075
v 0.029541812850404 0.177 1.07976439104354
v 0.0281840462387402 0.177 1.08435414346693
v 0.025976469062098 0.177 1.08860102002376
v 0 0.977 0.05
v 0.03 0.977 0.05
v 0 0.177 0.05
v 0.03 0.177 0.05
v 0 1.991 1.1
v 0.005 1.991 1.1
v 0 0.977 1.1
v 0.005 0.977 1.1
v 0.023 0 1.09234935157289
v 0.0191748454044681 0 1.09559305120082
v 0.0147792180330959 0 1.09800797458842
v 0.00999002180804923 0 1.09949693210088
v 0.005 0 1.1
v 0.03 0 1.075
v 0.029541812850404 0 1.07976439104354
v 0.0281840462387402 0 1.08435414346693
v 0.025976469062098 0 1.08860102002376
v 0.03 0.177 1.075
v 0.029541812850404 0.177 1.07976439104354
v 0.0281840462387402 0.177 1.08435414346693
v 0.025976469062098 0.177 1.08860102002376
v 0.023 0.177 1.09234935157289
v 0.0191748454044681 0.177 1.09559305120082
v 0.0147792180330959 0.177 1.09800797458842
v 0.00999002180804923 0.177 1.09949693210088
v 0.005 0.177 1.1
vn 0 -1 0
vn 0 -1 0
vn 0 -1 0
vn 0 -1 0
vn 0 -1 0
vn 0 -1 0
vn 0 -1 0
vn 0 -1 0
vn 0 -1 0
vn 0 -1 0
vn 0 -1 0
vn 0 -1 0
vn 0 1 0
vn 0 1 0
vn 0 1 0
vn 0 1 0
vn 0 1 0
vn 0 1 0
vn 0 1 0
vn 0 1 0
vn 0 1 0
vn 0 1 0
vn 0 1 0
vn 0 1 0
vn -1 0 0
vn -1 0 0
vn -1 0 0
vn -1 0 0
vn -1 0 0
vn -1 0 0
vn -1 0 0
vn -1 0 0
vn 0 0 -1
vn 0 0 -1
vn 0 0 -1
vn 0 0 -1
vn 1 0 0
vn 1 0 0
vn 1 0 0
vn 1 0 0
vn 1 0 0
vn 1 0 0
vn 1 0 0
vn 1 0 0
vn 0.720000000000146 0 0.693974062915748
vn 0.83905876248392 0 0.544040800950584
vn 0.927361849549609 0 0.374165738677299
vn 0.981672514016158 0 0.190575641741531
vn 1 0 0
vn 6.12323399573677e-17 0 1
vn 0.199600872321969 0 0.979877284035256
vn 0.391168721323838 0 0.920318983536618
vn 0.566993816178723 0 0.823722048032641
vn 6.12323399573677e-17 0 1
vn 0.199600872321969 0 0.979877284035256
vn 0.391168721323838 0 0.920318983536618
vn 0.566993816178723 0 0.823722048032641
vn 0.720000000000145 0 0.693974062915749
vn 0.83905876248392 0 0.544040800950584
vn 0.927361849549609 0 0.374165738677299
vn 0.981672514016158 0 0.190575641741531
vn 1 0 0
vn 0 0 1
vn 0 0 1
vn 0 0 1
vn 0 0 1
vn 0 -1 0
vn 0 -1 0
vn 0 -1 0
vn 0 -1 0
vn 0 -1 0
vn 0 -1 0
vn 0 -1 0
vn 0 -1 0
vn 0 -1 0
vn 0 -1 0
vn 0 -1 0
vn 0 -1 0
vn 0 1 0
vn 0 1 0
vn 0 1 0
vn 0 1 0
vn 0 1 0
vn 0 1 0
vn 0 1 0
vn 0 1 0
vn 0 1 0
vn 0 1 0
vn 0 1 0
vn 0 1 0
vn 0 0 1
vn 0 0 1
vn 0 0 1
vn 0 0 1
vn 0 0 1
vn 0 0 1
vn 0 0 1
vn 0 0 1
vn 0.720000000000145 0 0.693974062915748
vn 0.566993816178721 0 0.823722048032642
vn 0.391168721323836 0 0.920318983536619
vn 0.199600872321968 0 0.979877284035256
vn 6.12323399573677e-17 0 1
vn 1 0 0
vn 0.981672514016158 0 0.190575641741528
vn 0.92736184954961 0 0.374165738677297
vn 0.839058762483921 0 0.544040800950582
vn 1 0 0
vn 0.981672514016158 0 0.190575641741528
vn 0.92736184954961 0 0.374165738677297
vn 0.839058762483921 0 0.544040800950582
vn 0.720000000000144 0 0.693974062915749
vn 0.566993816178721 0 0.823722048032642
vn 0.391168721323836 0 0.920318983536619
vn 0.199600872321968 0 0.979877284035256
vn 6.12323399573677e-17 0 1
usemtl DefaultMaterial
f 4//4 2//2 3//3
f 7//7 5//5 6//6
f 8//8 4//4 5//5
f 8//8 5//5 7//7
f 10//10 8//8 9//9
f 10//10 4//4 8//8
f 12//12 10//10 11//11
f 12//12 4//4 10//10
f 1//1 4//4 12//12
f 1//1 2//2 4//4
f 23//23 13//13 14//14
f 23//23 14//14 15//15
f 23//23 24//24 13//13
f 21//21 22//22 23//23
f 20//20 21//21 23//23
f 19//19 15//15 16//16
f 19//19 16//16 17//17
f 19//19 17//17 18//18
f 19//19 23//23 15//15
f 19//19 20//20 23//23
f 28//28 26//26 25//25
f 28//28 25//25 27//27
f 29//29 30//30 31//31
f 32//32 29//29 31//31
f 32//32 26//26 28//28
f 32//32 28//28 29//29
f 36//36 34//34 33//33
f 36//36 33//33 35//35
f 42//42 43//43 37//37
f 38//38 37//37 43//43
f 44//44 38//38 43//43
f 40//40 41//41 42//42
f 40//40 42//42 39//39
f 37//37 39//39 42//42
f 61//61 49//49 48//48
f 61//61 62//62 49//49
f 60//60 48//48 47//47
f 60//60 61//61 48//48
f 59//59 46//46 45//45
f 59//59 47//47 46//46
f 59//59 60//60 47//47
f 58//58 45//45 53//53
f 58//58 59//59 45//45
f 57//57 58//58 53//53
f 56//56 53//53 52//52
f 56//56 57//57 53//53
f 55//55 52//52 51//51
f 55//55 56//56 52//52
f 54//54 51//51 50//50
f 54//54 55//55 51//51
f 66//66 64//64 63//63
f 66//66 63//63 65//65
f 69//69 71//71 70//70
f 69//69 72//72 71//71
f 69//69 73//73 72//72
f 74//74 76//76 75//75
f 74//74 77//77 76//76
f 74//74 70//70 77//77
f 74//74 69//69 70//70
f 78//78 69//69 74//74
f 67//67 68//68 69//69
f 67//67 69//69 78//78
f 87//87 79//79 80//80
f 90//90 88//88 87//87
f 90//90 89//89 88//88
f 86//86 84//84 83//83
f 86//86 85//85 84//84
f 82//82 83//83 90//90
f 82//82 90//90 87//87
f 82//82 86//86 83//83
f 81//81 87//87 80//80
f 81//81 82//82 87//87
f 93//93 92//92 91//91
f 93//93 94//94 92//92
f 95//95 97//97 98//98
f 95//95 98//98 96//96
f 105//105 104//104 108//108
f 105//105 108//108 109//109
f 106//106 109//109 110//110
f 106//106 105//105 109//109
f 107//107 110//110 111//111
f 107//107 106//106 110//110
f 99//99 111//111 112//112
f 99//99 107//107 111//111
f 100//100 112//112 113//113
f 100//100 99//99 112//112
f 101//101 113//113 114//114
f 101//101 100//100 113//113
f 102//102 114//114 115//115
f 102//102 101//101 114//114
f 103//103 115//115 116//116
f 103//103 102//102 115//115
