# File generated by IfcOpenShell v0.7.0-f7c03db75
mtllib IfcBuildingElementProxy_0416184706283994.mtl
g product-8517accc-a080-4a70-add4-bf8daab7f185-body
s 1
v 5.12 0 1.1
v 5.12 0 0
v 5.09 0.03 0
v 5.09 0.03 1.075
v 5.09037546356095 0.0296245364390297 1.07931258854316
v 5.09147503837402 0.0285249616259539 1.08345686219683
v 5.09328024729576 0.0267197527042128 1.08737938242001
v 5.09573141525736 0.0242685847426199 1.09092872403433
v 5.0987527687677 0.0212472312322794 1.09400075557381
v 5.10225997763576 0.0177400223642106 1.09651039570644
v 5.10751034178145 0.0124896582185217 1.09885112548463
v 5.11118855070097 0.00881144929900838 1.09970651025052
v 5.115 0.005 1.1
v 0 0 0
v 0 0 1.1
v 0.005 0.005 1.1
v 0.0131579671602882 0.0131579671602943 1.09863044310457
v 0.0197722462013997 0.0197722462014122 1.09516905709915
v 0.0241812116189445 0.0241812116189696 1.09103381503107
v 0.0271991316635592 0.0271991316635876 1.08649632605223
v 0.0290165576110186 0.0290165576110352 1.08194213917703
v 0.0297480841063295 0.0297480841063367 1.07852904476646
v 0.03 0.03 1.075
v 0.03 0.03 0
v 5.12 0 1.1
v 5.12 0 0
v 5.097 0 1.1
v 2.945 0 1.1
v 2.945 0 0.05
v 1.645 0 0.05
v 1.645 0 1.1
v 0.023 0 1.1
v 0 0 1.1
v 0 0 0
v 0.023 0 0
v 5.097 0 0
v 5.12 0 0
v 5.09 0.03 0
v 5.097 0 0
v 0.023 0 0
v 0 0 0
v 0.03 0.03 0
v 5.09 0.03 0
v 5.09 0.03 1.075
v 0.03 0.03 0
v 0.03 0.03 1.075
v 1.645 0.03 1.075
v 1.645 0.03 0.05
v 2.945 0.03 0.05
v 2.945 0.03 1.075
v 5.09 0.03 1.075
v 5.09037546356095 0.0296245364390297 1.07931258854316
v 5.09147503837402 0.0285249616259539 1.08345686219683
v 5.09328024729576 0.0267197527042128 1.08737938242001
v 5.09573141525736 0.0242685847426199 1.09092872403433
v 5.0987527687677 0.0212472312322794 1.09400075557381
v 5.10225997763576 0.0177400223642106 1.09651039570644
v 5.10751034178145 0.0124896582185217 1.09885112548463
v 5.11118855070097 0.00881144929900838 1.09970651025052
v 5.115 0.005 1.1
v 2.945 0.03 1.075
v 2.945 0.0295418128504036 1.07976439104354
v 2.945 0.0281840462387389 1.08435414346694
v 2.945 0.0259764690620951 1.08860102002377
v 2.945 0.023 1.0923493515729
v 2.945 0.0191748454044636 1.09559305120082
v 2.945 0.0147792180330926 1.09800797458842
v 2.945 0.00999002180804746 1.09949693210088
v 2.945 0.005 1.1
v 5.115 0.005 1.1
v 5.12 0 1.1
v 2.945 0.005 1.1
v 2.945 0 1.1
v 5.097 0 1.1
v 2.945 0.03 0.05
v 2.945 0 0.05
v 2.945 0 1.1
v 2.945 0.005 1.1
v 2.945 0.023 1.0923493515729
v 2.945 0.0191748454044636 1.09559305120082
v 2.945 0.0147792180330926 1.09800797458842
v 2.945 0.00999002180804746 1.09949693210088
v 2.945 0.03 1.075
v 2.945 0.0295418128504036 1.07976439104354
v 2.945 0.0281840462387389 1.08435414346694
v 2.945 0.0259764690620951 1.08860102002377
v 1.645 0 0.05
v 1.645 0.03 0.05
v 1.645 0.03 1.075
v 1.645 0.023 1.0923493515729
v 1.645 0.0259764690620951 1.08860102002377
v 1.645 0.0281840462387389 1.08435414346694
v 1.645 0.0295418128504036 1.07976439104354
v 1.645 0.005 1.1
v 1.645 0.00999002180804746 1.09949693210088
v 1.645 0.0147792180330926 1.09800797458842
v 1.645 0.0191748454044636 1.09559305120082
v 1.645 0 1.1
v 2.945 0.03 0.05
v 2.945 0 0.05
v 1.645 0.03 0.05
v 1.645 0 0.05
v 0 0 1.1
v 0.005 0.005 1.1
v 0.023 0 1.1
v 1.645 0 1.1
v 1.645 0.005 1.1
v 0.005 0.005 1.1
v 0.0131579671602882 0.0131579671602943 1.09863044310457
v 0.0197722462013997 0.0197722462014122 1.09516905709915
v 0.0241812116189445 0.0241812116189696 1.09103381503107
v 0.0271991316635592 0.0271991316635876 1.08649632605223
v 0.0290165576110186 0.0290165576110352 1.08194213917703
v 0.0297480841063295 0.0297480841063367 1.07852904476646
v 0.03 0.03 1.075
v 1.645 0.005 1.1
v 1.645 0.00999002180804746 1.09949693210088
v 1.645 0.0147792180330926 1.09800797458842
v 1.645 0.0191748454044636 1.09559305120082
v 1.645 0.023 1.0923493515729
v 1.645 0.0259764690620951 1.08860102002377
v 1.645 0.0281840462387389 1.08435414346694
v 1.645 0.0295418128504036 1.07976439104354
v 1.645 0.03 1.075
vn 0.707106781186545 0.70710678118655 0
vn 0.707106781186545 0.70710678118655 0
vn 0.707106781186545 0.70710678118655 0
vn 0.707106781186545 0.70710678118655 0
vn 0.707106781186545 0.70710678118655 0
vn 0.707106781186545 0.70710678118655 0
vn 0.707106781186545 0.70710678118655 0
vn 0.707106781186545 0.70710678118655 0
vn 0.707106781186545 0.70710678118655 0
vn 0.707106781186545 0.70710678118655 0
vn 0.707106781186545 0.70710678118655 0
vn 0.707106781186545 0.70710678118655 0
vn 0.707106781186545 0.70710678118655 0
vn -0.707106781186544 0.707106781186551 0
vn -0.707106781186544 0.707106781186551 0
vn -0.707106781186544 0.707106781186551 0
vn -0.707106781186544 0.707106781186551 0
vn -0.707106781186544 0.707106781186551 0
vn -0.707106781186544 0.707106781186551 0
vn -0.707106781186544 0.707106781186551 0
vn -0.707106781186544 0.707106781186551 0
vn -0.707106781186544 0.707106781186551 0
vn -0.707106781186544 0.707106781186551 0
vn -0.707106781186544 0.707106781186551 0
vn 0 -1 0
vn 0 -1 0
vn 0 -1 0
vn 0 -1 0
vn 0 -1 0
vn 0 -1 0
vn 0 -1 0
vn 0 -1 0
vn 0 -1 0
vn 0 -1 0
vn 0 -1 0
vn 0 -1 0
vn 0 0 -1
vn 0 0 -1
vn 0 0 -1
vn 0 0 -1
vn 0 0 -1
vn 0 0 -1
vn 0 1 0
vn 0 1 0
vn 0 1 0
vn 0 1 0
vn 0 1 0
vn 0 1 0
vn 0 1 0
vn 0 1 0
vn 0 1 0
vn 0 0.985008084084275 0.172508186149605
vn 0 0.941041861786148 0.338290133415179
vn 0 0.868792449046651 0.49517641349273
vn 0 0.770741781683004 0.637147632788593
vn 0 0.649888607363896 0.760029471809229
vn 0 0.509598726459135 0.860412190750008
vn 0 0.299593040607175 0.954067088846349
vn 0 0.152465423722875 0.988308805267364
vn 0 6.12323399573677e-17 1
vn 0 1 0
vn 0 0.981672514016145 0.190575641741599
vn 0 0.927361849549556 0.37416573867743
vn 0 0.839058762483804 0.544040800950763
vn 0 0.719999999999946 0.693974062915955
vn 0 0.566993816178545 0.823722048032763
vn 0 0.391168721323706 0.920318983536674
vn 0 0.199600872321899 0.97987728403527
vn 0 6.12323399573677e-17 1
vn 0 0 1
vn 0 0 1
vn 0 0 1
vn 0 0 1
vn 0 0 1
vn -1 0 0
vn -1 0 0
vn -1 0 0
vn -1 0 0
vn -1 0 0
vn -1 0 0
vn -1 0 0
vn -1 0 0
vn -1 0 0
vn -1 0 0
vn -1 0 0
vn -1 0 0
vn 1 0 0
vn 1 0 0
vn 1 0 0
vn 1 0 0
vn 1 0 0
vn 1 0 0
vn 1 0 0
vn 1 0 0
vn 1 0 0
vn 1 0 0
vn 1 0 0
vn 1 0 0
vn 0 0 1
vn 0 0 1
vn 0 0 1
vn 0 0 1
vn 0 0 1
vn 0 0 1
vn 0 0 1
vn 0 0 1
vn 0 0 1
vn 0 6.12323399573677e-17 1
vn 0 0.326331728507076 0.945255310997819
vn 0 0.590885067034111 0.806755748387388
vn 0 0.76724717316919 0.641351522383698
vn 0 0.887988719888581 0.459865233900802
vn 0 0.960671217635837 0.277688335379933
vn 0 0.98998528054501 0.141170621250376
vn 0 1 0
vn 0 6.12323399573677e-17 1
vn 0 0.199600872321899 0.97987728403527
vn 0 0.391168721323705 0.920318983536674
vn 0 0.566993816178545 0.823722048032764
vn 0 0.719999999999946 0.693974062915955
vn 0 0.839058762483804 0.544040800950763
vn 0 0.927361849549556 0.374165738677429
vn 0 0.981672514016145 0.190575641741597
vn 0 1 0
usemtl DefaultMaterial
f 4//4 1//1 2//2
f 4//4 2//2 3//3
f 4//4 11//11 12//12
f 4//4 12//12 13//13
f 4//4 13//13 1//1
f 10//10 11//11 4//4
f 6//6 4//4 5//5
f 9//9 10//10 4//4
f 7//7 4//4 6//6
f 8//8 9//9 4//4
f 8//8 4//4 7//7
f 23//23 15//15 16//16
f 23//23 16//16 17//17
f 23//23 17//17 18//18
f 23//23 18//18 19//19
f 23//23 19//19 20//20
f 23//23 20//20 21//21
f 23//23 21//21 22//22
f 14//14 15//15 23//23
f 24//24 14//14 23//23
f 36//36 26//26 25//25
f 36//36 25//25 27//27
f 29//29 27//27 28//28
f 29//29 36//36 27//27
f 32//32 30//30 31//31
f 35//35 30//30 32//32
f 34//34 32//32 33//33
f 34//34 35//35 32//32
f 35//35 36//36 29//29
f 35//35 29//29 30//30
f 38//38 37//37 39//39
f 42//42 39//39 40//40
f 42//42 38//38 39//39
f 41//41 42//42 40//40
f 49//49 44//44 43//43
f 50//50 44//44 49//49
f 46//46 47//47 48//48
f 46//46 48//48 45//45
f 43//43 45//45 48//48
f 43//43 48//48 49//49
f 52//52 51//51 61//61
f 52//52 61//61 62//62
f 53//53 62//62 63//63
f 53//53 52//52 62//62
f 54//54 63//63 64//64
f 54//54 53//53 63//63
f 55//55 64//64 65//65
f 55//55 54//54 64//64
f 56//56 65//65 66//66
f 56//56 55//55 65//65
f 57//57 66//66 67//67
f 57//57 56//56 66//66
f 58//58 67//67 68//68
f 58//58 57//57 67//67
f 59//59 68//68 69//69
f 59//59 58//58 68//68
f 60//60 59//59 69//69
f 74//74 71//71 70//70
f 72//72 74//74 70//70
f 73//73 74//74 72//72
f 83//83 77//77 78//78
f 83//83 80//80 79//79
f 83//83 81//81 80//80
f 83//83 82//82 81//81
f 83//83 78//78 82//82
f 83//83 85//85 84//84
f 83//83 86//86 85//85
f 83//83 79//79 86//86
f 76//76 77//77 83//83
f 75//75 76//76 83//83
f 89//89 87//87 88//88
f 89//89 94//94 98//98
f 89//89 98//98 87//87
f 93//93 94//94 89//89
f 96//96 95//95 94//94
f 90//90 92//92 91//91
f 90//90 93//93 92//92
f 90//90 97//97 96//96
f 90//90 94//94 93//93
f 90//90 96//96 94//94
f 101//101 100//100 99//99
f 101//101 102//102 100//100
f 105//105 106//106 107//107
f 104//104 105//105 107//107
f 103//103 105//105 104//104
f 124//124 115//115 114//114
f 123//123 114//114 113//113
f 123//123 124//124 114//114
f 122//122 113//113 112//112
f 122//122 123//123 113//113
f 121//121 112//112 111//111
f 121//121 122//122 112//112
f 120//120 111//111 110//110
f 120//120 121//121 111//111
f 119//119 120//120 110//110
f 118//118 110//110 109//109
f 118//118 119//119 110//110
f 117//117 109//109 108//108
f 117//117 118//118 109//109
f 116//116 117//117 108//108
