# File generated by IfcOpenShell v0.7.0-f7c03db75
mtllib IfcBuildingElementProxy_0416184705679206.mtl
g product-c26cfae2-db8c-4b5c-9dc8-4dd109a7a71e-body
s 1
v 0 0 0
v 0 0 0.12
v 0 0.08 0.12
v 0 0.08 0
v 3.71041324163602 0.08 0
v 3.79041324163602 0 0
v 0 0 0
v 0 0.08 0
v 3.71041324163602 0.08 0.12
v 3.71041324163602 0.08 0
v 0 0.08 0
v 0 0.08 0.12
v 3.79041324163602 0 0.12
v 3.71041324163602 0.08 0.12
v 0 0.08 0.12
v 0 0 0.12
v 3.79041324163602 0 0
v 3.79041324163602 0 0.12
v 0 0 0.12
v 0 0 0
v 3.79041324163602 0.235 0
v 3.71041324163602 0.235 0
v 3.71041324163602 0.235 0.12
v 3.79041324163602 0.235 0.12
v 3.79041324163602 0.235 0
v 3.71041324163602 0.235 0
v 3.79041324163602 0 0
v 3.71041324163602 0.08 0
v 3.71041324163602 0.235 0
v 3.71041324163602 0.235 0.12
v 3.71041324163602 0.08 0
v 3.71041324163602 0.08 0.12
v 3.71041324163602 0.235 0.12
v 3.79041324163602 0.235 0.12
v 3.71041324163602 0.08 0.12
v 3.79041324163602 0 0.12
v 3.79041324163602 0.235 0.12
v 3.79041324163602 0.235 0
v 3.79041324163602 0 0.12
v 3.79041324163602 0 0
vn -1 0 0
vn -1 0 0
vn -1 0 0
vn -1 0 0
vn 0 0 -1
vn 0 0 -1
vn 0 0 -1
vn 0 0 -1
vn 0 1 0
vn 0 1 0
vn 0 1 0
vn 0 1 0
vn 0 0 1
vn 0 0 1
vn 0 0 1
vn 0 0 1
vn 0 -1 0
vn 0 -1 0
vn 0 -1 0
vn 0 -1 0
vn 0 1 0
vn 0 1 0
vn 0 1 0
vn 0 1 0
vn 0 0 -1
vn 0 0 -1
vn 0 0 -1
vn 0 0 -1
vn -1 0 0
vn -1 0 0
vn -1 0 0
vn -1 0 0
vn 0 0 1
vn 0 0 1
vn 0 0 1
vn 0 0 1
vn 1 0 0
vn 1 0 0
vn 1 0 0
vn 1 0 0
usemtl DefaultMaterial
f 2//2 3//3 4//4
f 2//2 4//4 1//1
f 7//7 5//5 6//6
f 8//8 5//5 7//7
f 12//12 9//9 10//10
f 12//12 10//10 11//11
f 16//16 14//14 15//15
f 16//16 13//13 14//14
f 20//20 17//17 18//18
f 20//20 18//18 19//19
f 22//22 23//23 24//24
f 22//22 24//24 21//21
f 28//28 26//26 25//25
f 27//27 28//28 25//25
f 32//32 30//30 29//29
f 32//32 29//29 31//31
f 35//35 34//34 33//33
f 36//36 34//34 35//35
f 40//40 38//38 37//37
f 40//40 37//37 39//39
