# File generated by IfcOpenShell v0.7.0-f7c03db75
mtllib IfcBuildingElementProxy_0416184707473002.mtl
g product-13d39140-d717-427f-8f55-7bf2042e774b-body
s 1
v 0 4.41 0
v 0 4.41 0.025
v 0 4.41012536043909 0.0261126046697816
v 0 4.41049515566049 0.0271694186955878
v 0 4.41109084258766 0.0281174490092937
v 0 4.41188255099071 0.0289091574123401
v 0 4.41283058130441 0.0295048443395121
v 0 4.41388739533022 0.0298746395609091
v 0 4.415 0.03
v 0 4.42 0.03
v 0 4.42 0.088
v 0 4.42030086505382 0.0906702512074758
v 0 4.42118837358517 0.0932066048694107
v 0 4.42261802221038 0.0954818776223048
v 0 4.4245181223777 0.0973819777896164
v 0 4.42679339513059 0.098811626414829
v 0 4.42932974879252 0.0996991349461819
v 0 4.432 0.1
v 0 4.44 0.1
v 0 4.44 0
v 1.61 4.41 0
v 1.64 4.44 0
v 1.64 4.44 0.1
v 1.632 4.432 0.1
v 1.62889417145875 4.42889417145877 0.0995911099154695
v 1.62599999999998 4.426 0.0983923048454128
v 1.62351471862573 4.42351471862576 0.0964852813742387
v 1.62176845523297 4.421768455233 0.0942703945275587
v 1.62076414841422 4.42076414841425 0.0922119799777159
v 1.62021102751583 4.42021102751585 0.0902396459469405
v 1.62005499981204 4.42005499981207 0.0891332000496562
v 1.62 4.42 0.088
v 1.62 4.42 0.03
v 1.615 4.415 0.03
v 1.61369759287207 4.41369759287209 0.029826755171754
v 1.61249999999998 4.4125 0.0293301270189233
v 1.61146446609405 4.41146446609407 0.0285355339059352
v 1.61073679765223 4.41073679765226 0.0276126440919082
v 1.61031845822635 4.41031845822638 0.026755013459134
v 1.61008790949891 4.41008790949894 0.0259331793687164
v 1.6100229060899 4.41002290608992 0.0254721630573728
v 1.61 4.41 0.025
v 0 4.41 0
v 0 4.41 0.025
v 1.61 4.41 0
v 1.61 4.41 0.025
v 0 4.41 0.025
v 0 4.41012536043909 0.0261126046697816
v 0 4.41049515566049 0.0271694186955878
v 0 4.41109084258766 0.0281174490092937
v 0 4.41188255099071 0.0289091574123401
v 0 4.41283058130441 0.0295048443395121
v 0 4.41388739533022 0.0298746395609091
v 0 4.415 0.03
v 1.61 4.41 0.025
v 1.615 4.415 0.03
v 1.61369759287207 4.41369759287209 0.029826755171754
v 1.61249999999998 4.4125 0.0293301270189233
v 1.61146446609405 4.41146446609407 0.0285355339059352
v 1.61073679765223 4.41073679765226 0.0276126440919082
v 1.61031845822635 4.41031845822638 0.026755013459134
v 1.61008790949891 4.41008790949894 0.0259331793687164
v 1.6100229060899 4.41002290608992 0.0254721630573728
v 0 4.415 0.03
v 0 4.42 0.03
v 1.615 4.415 0.03
v 1.62 4.42 0.03
v 0 4.42 0.03
v 0 4.42 0.088
v 1.62 4.42 0.03
v 1.62 4.42 0.088
v 0 4.42 0.088
v 0 4.42030086505382 0.0906702512074758
v 0 4.42118837358517 0.0932066048694107
v 0 4.42261802221038 0.0954818776223048
v 0 4.4245181223777 0.0973819777896164
v 0 4.42679339513059 0.098811626414829
v 0 4.42932974879252 0.0996991349461819
v 0 4.432 0.1
v 1.62 4.42 0.088
v 1.632 4.432 0.1
v 1.62889417145875 4.42889417145877 0.0995911099154695
v 1.62599999999998 4.426 0.0983923048454128
v 1.62351471862573 4.42351471862576 0.0964852813742387
v 1.62176845523297 4.421768455233 0.0942703945275587
v 1.62076414841422 4.42076414841425 0.0922119799777159
v 1.62021102751583 4.42021102751585 0.0902396459469405
v 1.62005499981204 4.42005499981207 0.0891332000496562
v 0 4.432 0.1
v 0 4.44 0.1
v 1.632 4.432 0.1
v 1.64 4.44 0.1
v 0 4.44 0.1
v 0 4.44 0
v 1.64 4.44 0.1
v 1.64 4.44 0
v 0 4.44 0
v 0 4.41 0
v 1.64 4.44 0
v 1.61 4.41 0
v 1.61 4.41 0
v 1.61 4.41 0.025
v 1.61007429617804 4.41007429617806 0.0258580332113932
v 1.61029196895645 4.41029196895648 0.0266827777177014
v 1.61064927301321 4.41064927301324 0.0274639133193454
v 1.61113431665141 4.41113431665143 0.0281715006159637
v 1.61173388082337 4.41173388082339 0.0287854756060467
v 1.6124287640544 4.41242876405443 0.0292881415031744
v 1.61346219512707 4.41346219512709 0.0297573120348248
v 1.61421616080183 4.41421616080185 0.0299369997289489
v 1.615 4.415 0.03
v 1.62 4.42 0.03
v 1.62 4.42 0.088
v 1.62019912155754 4.42019912155756 0.0901757442819729
v 1.62078311845152 4.42078311845154 0.0922621922075666
v 1.62173920775369 4.42173920775371 0.0942223953505232
v 1.62303267917508 4.42303267917511 0.0959741592201074
v 1.62462012785862 4.42462012785866 0.097462497285181
v 1.62645332752949 4.42645332752952 0.0986408314577289
v 1.62914235550705 4.42914235550708 0.0996548395725562
v 1.632 4.432 0.1
v 1.64 4.44 0.1
v 1.64 4.44 0
v 1.61 0 0
v 1.64 0 0
v 1.64 0 0.1
v 1.632 0 0.1
v 1.62932974879252 0 0.0996991349461819
v 1.62679339513059 0 0.098811626414829
v 1.6245181223777 0 0.0973819777896164
v 1.62261802221038 0 0.0954818776223048
v 1.62118837358517 0 0.0932066048694107
v 1.62030086505382 0 0.0906702512074758
v 1.62 0 0.088
v 1.62 0 0.03
v 1.615 0 0.03
v 1.61388739533022 0 0.0298746395609091
v 1.61283058130441 0 0.0295048443395121
v 1.61188255099071 0 0.0289091574123402
v 1.61109084258766 0 0.0281174490092937
v 1.61049515566049 0 0.0271694186955878
v 1.61012536043909 0 0.0261126046697816
v 1.61 0 0.025
v 1.61 4.41 0
v 1.61 4.41 0.025
v 1.61 0 0
v 1.61 0 0.025
v 1.61 4.41 0.025
v 1.61007429617804 4.41007429617806 0.0258580332113932
v 1.61029196895645 4.41029196895648 0.0266827777177014
v 1.61064927301321 4.41064927301324 0.0274639133193454
v 1.61113431665141 4.41113431665143 0.0281715006159637
v 1.61173388082337 4.41173388082339 0.0287854756060467
v 1.6124287640544 4.41242876405443 0.0292881415031744
v 1.61346219512707 4.41346219512709 0.0297573120348248
v 1.61421616080183 4.41421616080185 0.0299369997289489
v 1.615 4.415 0.03
v 1.61 0 0.025
v 1.615 0 0.03
v 1.61388739533022 0 0.0298746395609091
v 1.61283058130441 0 0.0295048443395121
v 1.61188255099071 0 0.0289091574123402
v 1.61109084258766 0 0.0281174490092937
v 1.61049515566049 0 0.0271694186955878
v 1.61012536043909 0 0.0261126046697816
v 1.615 4.415 0.03
v 1.62 4.42 0.03
v 1.615 0 0.03
v 1.62 0 0.03
v 1.62 4.42 0.03
v 1.62 4.42 0.088
v 1.62 0 0.03
v 1.62 0 0.088
v 1.62 4.42 0.088
v 1.62019912155754 4.42019912155756 0.0901757442819729
v 1.62078311845152 4.42078311845154 0.0922621922075666
v 1.62173920775369 4.42173920775371 0.0942223953505232
v 1.62303267917508 4.42303267917511 0.0959741592201074
v 1.62462012785862 4.42462012785866 0.097462497285181
v 1.62645332752949 4.42645332752952 0.0986408314577289
v 1.62914235550705 4.42914235550708 0.0996548395725562
v 1.632 4.432 0.1
v 1.62 0 0.088
v 1.632 0 0.1
v 1.62932974879252 0 0.0996991349461819
v 1.62679339513059 0 0.098811626414829
v 1.6245181223777 0 0.0973819777896164
v 1.62261802221038 0 0.0954818776223048
v 1.62118837358517 0 0.0932066048694107
v 1.62030086505382 0 0.0906702512074758
v 1.632 4.432 0.1
v 1.64 4.44 0.1
v 1.632 0 0.1
v 1.64 0 0.1
v 1.64 4.44 0.1
v 1.64 4.44 0
v 1.64 0 0.1
v 1.64 0 0
v 1.64 4.44 0
v 1.61 4.41 0
v 1.64 0 0
v 1.61 0 0
vn -1 0 0
vn -1 0 0
vn -1 0 0
vn -1 0 0
vn -1 0 0
vn -1 0 0
vn -1 0 0
vn -1 0 0
vn -1 0 0
vn -1 0 0
vn -1 0 0
vn -1 0 0
vn -1 0 0
vn -1 0 0
vn -1 0 0
vn -1 0 0
vn -1 0 0
vn -1 0 0
vn -1 0 0
vn -1 0 0
vn 0.707106781186544 -0.707106781186551 0
vn 0.707106781186544 -0.707106781186551 0
vn 0.707106781186544 -0.707106781186551 0
vn 0.707106781186544 -0.707106781186551 0
vn 0.707106781186544 -0.707106781186551 0
vn 0.707106781186544 -0.707106781186551 0
vn 0.707106781186544 -0.707106781186551 0
vn 0.707106781186544 -0.707106781186551 0
vn 0.707106781186544 -0.707106781186551 0
vn 0.707106781186544 -0.707106781186551 0
vn 0.707106781186544 -0.707106781186551 0
vn 0.707106781186544 -0.707106781186551 0
vn 0.707106781186544 -0.707106781186551 0
vn 0.707106781186544 -0.707106781186551 0
vn 0.707106781186544 -0.707106781186551 0
vn 0.707106781186544 -0.707106781186551 0
vn 0.707106781186544 -0.707106781186551 0
vn 0.707106781186544 -0.707106781186551 0
vn 0.707106781186544 -0.707106781186551 0
vn 0.707106781186544 -0.707106781186551 0
vn 0.707106781186544 -0.707106781186551 0
vn 0.707106781186544 -0.707106781186551 0
vn 0 -1 0
vn 0 -1 0
vn 0 -1 0
vn 0 -1 0
vn -0 -1 -1.22464679914735e-16
vn 0 -0.974927912181824 0.222520933956314
vn 0 -0.900968867902419 0.433883739117558
vn 0 -0.78183148246803 0.623489801858733
vn 0 -0.623489801858734 0.78183148246803
vn 0 -0.433883739117558 0.900968867902419
vn 0 -0.222520933956315 0.974927912181824
vn 0 -1.83697019872103e-16 1
vn -0 -1 -1.22464679914735e-16
vn 0 -1.83697019872103e-16 1
vn 0 -0.260513586133546 0.965470181538425
vn 0 -0.500001920570835 0.866024294939511
vn 0 -0.707106781186517 0.707106781186578
vn 0 -0.85262737073918 0.52251944142433
vn 0 -0.936366270502113 0.351024511203939
vn 0 -0.982429115873785 0.186636095874978
vn 0 -0.995530271346483 0.0944429925023493
vn 0 0 1
vn 0 0 1
vn 0 0 1
vn 0 0 1
vn 0 -1 0
vn 0 -1 0
vn 0 -1 0
vn 0 -1 0
vn -0 -1 -1.22464679914735e-16
vn 0 -0.974927912181824 0.222520933956314
vn 0 -0.900968867902419 0.433883739117558
vn 0 -0.78183148246803 0.623489801858733
vn 0 -0.623489801858734 0.78183148246803
vn 0 -0.433883739117558 0.900968867902419
vn 0 -0.222520933956315 0.974927912181824
vn 0 -1.83697019872103e-16 1
vn -0 -1 -1.22464679914735e-16
vn 0 -1.83697019872103e-16 1
vn 0 -0.258819734132333 0.965925641663823
vn 0 -0.499999846607904 0.866025492345389
vn 0 -0.707106781186704 0.707106781186391
vn 0 -0.852621709674999 0.522528678821442
vn 0 -0.936369294948406 0.351016443315446
vn 0 -0.982428398595333 0.186639871499662
vn 0 -0.995530165937368 0.0944441036206999
vn 0 0 1
vn 0 0 1
vn 0 0 1
vn 0 0 1
vn 0 1 0
vn 0 1 0
vn 0 1 0
vn 0 1 0
vn 0 0 -1
vn 0 0 -1
vn 0 0 -1
vn 0 0 -1
vn -0.707106781186544 0.707106781186551 0
vn -0.707106781186544 0.707106781186551 0
vn -0.707106781186544 0.707106781186551 0
vn -0.707106781186544 0.707106781186551 0
vn -0.707106781186544 0.707106781186551 0
vn -0.707106781186544 0.707106781186551 0
vn -0.707106781186544 0.707106781186551 0
vn -0.707106781186544 0.707106781186551 0
vn -0.707106781186544 0.707106781186551 0
vn -0.707106781186544 0.707106781186551 0
vn -0.707106781186544 0.707106781186551 0
vn -0.707106781186544 0.707106781186551 0
vn -0.707106781186544 0.707106781186551 0
vn -0.707106781186544 0.707106781186551 0
vn -0.707106781186544 0.707106781186551 0
vn -0.707106781186544 0.707106781186551 0
vn -0.707106781186544 0.707106781186551 0
vn -0.707106781186544 0.707106781186551 0
vn -0.707106781186544 0.707106781186551 0
vn -0.707106781186544 0.707106781186551 0
vn -0.707106781186544 0.707106781186551 0
vn -0.707106781186544 0.707106781186551 0
vn -0.707106781186544 0.707106781186551 0
vn 0 -1 0
vn 0 -1 0
vn 0 -1 0
vn 0 -1 0
vn 0 -1 0
vn 0 -1 0
vn 0 -1 0
vn 0 -1 0
vn 0 -1 0
vn 0 -1 0
vn 0 -1 0
vn 0 -1 0
vn 0 -1 0
vn 0 -1 0
vn 0 -1 0
vn 0 -1 0
vn 0 -1 0
vn 0 -1 0
vn 0 -1 0
vn 0 -1 0
vn -1 0 0
vn -1 0 0
vn -1 0 0
vn -1 0 0
vn -1 0 -1.22464679914735e-16
vn -0.985165063921688 0 0.17160943105837
vn -0.941657432546162 0 0.336572844612531
vn -0.870151276222183 0 0.492784695875295
vn -0.773106978048262 0 0.634275650244501
vn -0.653258337794682 0 0.757135089730841
vn -0.514255115120775 0 0.857637263982926
vn -0.307580222354615 0 0.951522152562034
vn -0.156804322037534 0 0.987629690010557
vn -1.83697019872103e-16 0 1
vn -1 0 -1.22464679914735e-16
vn -1.83697019872103e-16 0 1
vn -0.222520933956315 0 0.974927912181824
vn -0.433883739117558 0 0.900968867902419
vn -0.623489801858734 0 0.78183148246803
vn -0.78183148246803 0 0.623489801858733
vn -0.900968867902419 0 0.433883739117558
vn -0.974927912181824 0 0.222520933956314
vn 0 0 1
vn 0 0 1
vn 0 0 1
vn 0 0 1
vn -1 0 0
vn -1 0 0
vn -1 0 0
vn -1 0 0
vn -1 0 -1.22464679914735e-16
vn -0.983424989983541 0 0.181315440809303
vn -0.934789750046952 0 0.355201524781575
vn -0.85505985768556 0 0.518529304644153
vn -0.747276584845264 0 0.664513134363798
vn -0.614986424097979 0 0.788537696102844
vn -0.462234191993038 0 0.886757887899816
vn -0.238135556328323 0 0.971231927405705
vn -1.83697019872103e-16 0 1
vn -1 0 -1.22464679914735e-16
vn -1.83697019872103e-16 0 1
vn -0.222520933956315 0 0.974927912181824
vn -0.433883739117558 0 0.900968867902419
vn -0.623489801858734 0 0.78183148246803
vn -0.78183148246803 0 0.623489801858733
vn -0.900968867902419 0 0.433883739117558
vn -0.974927912181824 0 0.222520933956314
vn 0 0 1
vn 0 0 1
vn 0 0 1
vn 0 0 1
vn 1 0 0
vn 1 0 0
vn 1 0 0
vn 1 0 0
vn 0 0 -1
vn 0 0 -1
vn 0 0 -1
vn 0 0 -1
usemtl DefaultMaterial
f 11//11 12//12 13//13
f 11//11 13//13 14//14
f 11//11 14//14 15//15
f 11//11 15//15 16//16
f 11//11 16//16 17//17
f 11//11 17//17 18//18
f 19//19 11//11 18//18
f 2//2 3//3 4//4
f 2//2 4//4 5//5
f 2//2 5//5 6//6
f 2//2 6//6 7//7
f 2//2 7//7 8//8
f 2//2 8//8 9//9
f 10//10 11//11 19//19
f 10//10 2//2 9//9
f 1//1 2//2 10//10
f 20//20 10//10 19//19
f 20//20 1//1 10//10
f 32//32 23//23 24//24
f 32//32 24//24 25//25
f 32//32 25//25 26//26
f 32//32 26//26 27//27
f 32//32 27//27 28//28
f 32//32 28//28 29//29
f 32//32 29//29 30//30
f 32//32 30//30 31//31
f 33//33 23//23 32//32
f 22//22 23//23 33//33
f 42//42 33//33 34//34
f 42//42 34//34 35//35
f 42//42 35//35 36//36
f 42//42 36//36 37//37
f 42//42 37//37 38//38
f 42//42 38//38 39//39
f 42//42 39//39 40//40
f 42//42 40//40 41//41
f 21//21 22//22 33//33
f 21//21 33//33 42//42
f 46//46 44//44 43//43
f 46//46 43//43 45//45
f 47//47 55//55 63//63
f 48//48 62//62 61//61
f 48//48 63//63 62//62
f 48//48 47//47 63//63
f 49//49 61//61 60//60
f 49//49 48//48 61//61
f 50//50 60//60 59//59
f 50//50 49//49 60//60
f 51//51 59//59 58//58
f 51//51 50//50 59//59
f 52//52 58//58 57//57
f 52//52 51//51 58//58
f 53//53 57//57 56//56
f 53//53 52//52 57//57
f 54//54 53//53 56//56
f 66//66 65//65 64//64
f 67//67 65//65 66//66
f 71//71 69//69 68//68
f 71//71 68//68 70//70
f 72//72 80//80 88//88
f 73//73 87//87 86//86
f 73//73 88//88 87//87
f 73//73 72//72 88//88
f 74//74 86//86 85//85
f 74//74 73//73 86//86
f 75//75 85//85 84//84
f 75//75 74//74 85//85
f 76//76 84//84 83//83
f 76//76 75//75 84//84
f 77//77 83//83 82//82
f 77//77 76//76 83//83
f 78//78 82//82 81//81
f 78//78 77//77 82//82
f 79//79 78//78 81//81
f 91//91 90//90 89//89
f 92//92 90//90 91//91
f 96//96 94//94 93//93
f 96//96 93//93 95//95
f 100//100 98//98 97//97
f 99//99 100//100 97//97
f 112//112 123//123 101//101
f 102//102 109//109 110//110
f 102//102 110//110 111//111
f 102//102 111//111 112//112
f 102//102 112//112 101//101
f 108//108 109//109 102//102
f 104//104 102//102 103//103
f 107//107 108//108 102//102
f 105//105 102//102 104//104
f 106//106 107//107 102//102
f 106//106 102//102 105//105
f 122//122 123//123 112//112
f 113//113 120//120 121//121
f 113//113 121//121 122//122
f 113//113 122//122 112//112
f 119//119 120//120 113//113
f 118//118 119//119 113//113
f 115//115 113//113 114//114
f 117//117 118//118 113//113
f 116//116 113//113 115//115
f 116//116 117//117 113//113
f 134//134 127//127 128//128
f 134//134 128//128 129//129
f 134//134 129//129 130//130
f 134//134 130//130 131//131
f 134//134 131//131 132//132
f 134//134 132//132 133//133
f 126//126 127//127 134//134
f 143//143 141//141 142//142
f 136//136 137//137 138//138
f 136//136 138//138 139//139
f 136//136 139//139 140//140
f 136//136 140//140 141//141
f 136//136 141//141 143//143
f 135//135 126//126 134//134
f 135//135 136//136 143//143
f 124//124 135//135 143//143
f 125//125 135//135 124//124
f 125//125 126//126 135//135
f 147//147 145//145 144//144
f 147//147 144//144 146//146
f 149//149 148//148 158//158
f 149//149 158//158 165//165
f 150//150 165//165 164//164
f 150//150 149//149 165//165
f 151//151 164//164 163//163
f 151//151 150//150 164//164
f 152//152 151//151 163//163
f 153//153 163//163 162//162
f 153//153 152//152 163//163
f 154//154 162//162 161//161
f 154//154 153//153 162//162
f 155//155 161//161 160//160
f 155//155 154//154 161//161
f 156//156 160//160 159//159
f 156//156 155//155 160//160
f 157//157 156//156 159//159
f 169//169 166//166 168//168
f 169//169 167//167 166//166
f 173//173 171//171 170//170
f 173//173 170//170 172//172
f 175//175 174//174 183//183
f 175//175 183//183 190//190
f 176//176 190//190 189//189
f 176//176 175//175 190//190
f 177//177 189//189 188//188
f 177//177 176//176 189//189
f 178//178 188//188 187//187
f 178//178 177//177 188//188
f 179//179 178//178 187//187
f 180//180 187//187 186//186
f 180//180 179//179 187//187
f 181//181 186//186 185//185
f 181//181 180//180 186//186
f 182//182 185//185 184//184
f 182//182 181//181 185//185
f 194//194 191//191 193//193
f 194//194 192//192 191//191
f 198//198 196//196 195//195
f 198//198 195//195 197//197
f 201//201 200//200 199//199
f 202//202 200//200 201//201
