# File generated by IfcOpenShell v0.7.0-f7c03db75
mtllib IfcDoor_0416184700838291.mtl
g product-a2e8c9c9-23e0-4664-a13e-59125efb189f-body
s 1
v 0 0.286 2.29999999999998
v 0 0.311 2.29999999999998
v 0 0.311 0
v 0 0.286 0
v 0 0.286 0
v 0 0.311 0
v -0.075 0.311 0
v -0.075 0.286 0
v -0.075 0.286 0
v -0.075 0.311 0
v -0.075 0.311 2.37499999999998
v -0.075 0.286 2.37499999999998
v -0.075 0.286 2.37499999999998
v -0.075 0.311 2.37499999999998
v 1.375 0.311 2.37499999999998
v 1.375 0.286 2.37499999999998
v 1.375 0.286 2.37499999999998
v 1.375 0.311 2.37499999999998
v 1.375 0.311 0
v 1.375 0.286 0
v 1.375 0.286 0
v 1.375 0.311 0
v 1.3 0.311 0
v 1.3 0.286 0
v 1.3 0.286 0
v 1.3 0.311 0
v 1.3 0.311 2.29999999999998
v 1.3 0.286 2.29999999999998
v 1.3 0.286 2.29999999999998
v 1.3 0.311 2.29999999999998
v 0 0.311 2.29999999999998
v 0 0.286 2.29999999999998
v 0 0.286 2.29999999999998
v 0 0.286 0
v -0.075 0.286 0
v -0.075 0.286 2.37499999999998
v 1.375 0.286 2.37499999999998
v 1.375 0.286 0
v 1.3 0.286 0
v 1.3 0.286 2.29999999999998
v 0 0.311 2.29999999999998
v 0 0.311 0
v -0.075 0.311 0
v -0.075 0.311 2.37499999999998
v 1.375 0.311 2.37499999999998
v 1.375 0.311 0
v 1.3 0.311 0
v 1.3 0.311 2.29999999999998
v -0.075 -0.025 2.37499999999998
v -0.075 0 2.37499999999998
v 1.375 0 2.37499999999998
v 1.375 -0.025 2.37499999999998
v 1.375 -0.025 2.37499999999998
v 1.375 0 2.37499999999998
v 1.375 0 0
v 1.375 -0.025 0
v 1.375 -0.025 0
v 1.375 0 0
v 1.3 0 0
v 1.3 -0.025 0
v 1.3 -0.025 0
v 1.3 0 0
v 1.3 0 2.29999999999998
v 1.3 -0.025 2.29999999999998
v 1.3 -0.025 2.29999999999998
v 1.3 0 2.29999999999998
v 0 0 2.29999999999998
v 0 -0.025 2.29999999999998
v 0 -0.025 2.29999999999998
v 0 0 2.29999999999998
v 0 0 0
v 0 -0.025 0
v 0 -0.025 0
v 0 0 0
v -0.075 0 0
v -0.075 -0.025 0
v -0.075 -0.025 0
v -0.075 0 0
v -0.075 0 2.37499999999998
v -0.075 -0.025 2.37499999999998
v -0.075 -0.025 2.37499999999998
v 1.375 -0.025 2.37499999999998
v 1.375 -0.025 0
v 1.3 -0.025 0
v 1.3 -0.025 2.29999999999998
v 0 -0.025 2.29999999999998
v 0 -0.025 0
v -0.075 -0.025 0
v -0.075 0 2.37499999999998
v 1.375 0 2.37499999999998
v 1.375 0 0
v 1.3 0 0
v 1.3 0 2.29999999999998
v 0 0 2.29999999999998
v 0 0 0
v -0.075 0 0
vn 1 0 0
vn 1 0 0
vn 1 0 0
vn 1 0 0
vn -0 -0 -1
vn -0 -0 -1
vn -0 -0 -1
vn -0 -0 -1
vn -1 0 0
vn -1 0 0
vn -1 0 0
vn -1 0 0
vn 0 0 1
vn 0 0 1
vn 0 0 1
vn 0 0 1
vn 1 0 0
vn 1 0 0
vn 1 0 0
vn 1 0 0
vn -0 -0 -1
vn -0 -0 -1
vn -0 -0 -1
vn -0 -0 -1
vn -1 0 0
vn -1 0 0
vn -1 0 0
vn -1 0 0
vn -0 -0 -1
vn -0 -0 -1
vn -0 -0 -1
vn -0 -0 -1
vn -0 -1 -0
vn -0 -1 -0
vn -0 -1 -0
vn -0 -1 -0
vn -0 -1 -0
vn -0 -1 -0
vn -0 -1 -0
vn -0 -1 -0
vn 0 1 0
vn 0 1 0
vn 0 1 0
vn 0 1 0
vn 0 1 0
vn 0 1 0
vn 0 1 0
vn 0 1 0
vn 0 0 1
vn 0 0 1
vn 0 0 1
vn 0 0 1
vn 1 0 0
vn 1 0 0
vn 1 0 0
vn 1 0 0
vn -0 -0 -1
vn -0 -0 -1
vn -0 -0 -1
vn -0 -0 -1
vn -1 0 0
vn -1 0 0
vn -1 0 0
vn -1 0 0
vn -0 -0 -1
vn -0 -0 -1
vn -0 -0 -1
vn -0 -0 -1
vn 1 0 0
vn 1 0 0
vn 1 0 0
vn 1 0 0
vn -0 -0 -1
vn -0 -0 -1
vn -0 -0 -1
vn -0 -0 -1
vn -1 0 0
vn -1 0 0
vn -1 0 0
vn -1 0 0
vn 0 -1 0
vn 0 -1 0
vn 0 -1 0
vn 0 -1 0
vn 0 -1 0
vn 0 -1 0
vn 0 -1 0
vn 0 -1 0
vn 0 1 0
vn 0 1 0
vn 0 1 0
vn 0 1 0
vn 0 1 0
vn 0 1 0
vn 0 1 0
vn 0 1 0
usemtl IfcDoor
f 2//2 1//1 4//4
f 3//3 2//2 4//4
f 6//6 5//5 8//8
f 7//7 6//6 8//8
f 10//10 9//9 12//12
f 11//11 10//10 12//12
f 14//14 13//13 16//16
f 15//15 14//14 16//16
f 18//18 17//17 20//20
f 19//19 18//18 20//20
f 22//22 21//21 24//24
f 23//23 22//22 24//24
f 26//26 25//25 28//28
f 27//27 26//26 28//28
f 30//30 29//29 32//32
f 31//31 30//30 32//32
f 37//37 36//36 33//33
f 40//40 37//37 33//33
f 37//37 40//40 38//38
f 38//38 40//40 39//39
f 34//34 33//33 35//35
f 33//33 36//36 35//35
f 41//41 44//44 45//45
f 41//41 45//45 48//48
f 46//46 48//48 45//45
f 47//47 48//48 46//46
f 43//43 41//41 42//42
f 43//43 44//44 41//41
f 50//50 49//49 52//52
f 51//51 50//50 52//52
f 54//54 53//53 56//56
f 55//55 54//54 56//56
f 58//58 57//57 60//60
f 59//59 58//58 60//60
f 62//62 61//61 64//64
f 63//63 62//62 64//64
f 66//66 65//65 68//68
f 67//67 66//66 68//68
f 70//70 69//69 72//72
f 71//71 70//70 72//72
f 74//74 73//73 76//76
f 75//75 74//74 76//76
f 78//78 77//77 80//80
f 79//79 78//78 80//80
f 82//82 81//81 85//85
f 81//81 86//86 85//85
f 86//86 81//81 88//88
f 86//86 88//88 87//87
f 85//85 84//84 83//83
f 82//82 85//85 83//83
f 93//93 89//89 90//90
f 93//93 94//94 89//89
f 96//96 89//89 94//94
f 95//95 96//96 94//94
f 91//91 92//92 93//93
f 91//91 93//93 90//90
