# File generated by IfcOpenShell v0.7.0-f7c03db75
mtllib IfcDoor_0416184700737057.mtl
g product-9726558b-5d3b-4dc6-9dbd-be752336ae28-body
s 1
v 0.650000000000001 0.135 0.8
v 0.650000000000001 0.135 2.35
v 0.650000000000001 0.075 2.35
v 0.650000000000001 0.075 0.8
v 0.650000000000001 0.075 0.8
v 0.650000000000001 0.075 2.35
v 1.15 0.075 2.35
v 1.15 0.075 0.8
v 1.15 0.075 0.8
v 1.15 0.075 2.35
v 1.15 0.135 2.35
v 1.15 0.135 0.8
v 1.15 0.135 0.8
v 1.15 0.135 2.35
v 0.650000000000001 0.135 2.35
v 0.650000000000001 0.135 0.8
v 0.650000000000001 0.135 0.8
v 0.650000000000001 0.075 0.8
v 1.15 0.075 0.8
v 1.15 0.135 0.8
v 0.650000000000001 0.135 2.35
v 0.650000000000001 0.075 2.35
v 1.15 0.075 2.35
v 1.15 0.135 2.35
v 0.6 0.075 2.4
v 0.6 0.135 2.4
v 1.2 0.135 2.4
v 1.2 0.075 2.4
v 1.2 0.075 2.4
v 1.2 0.135 2.4
v 1.2 0.135 0
v 1.2 0.075 0
v 1.2 0.075 0
v 1.2 0.135 0
v 0.6 0.135 0
v 0.6 0.075 0
v 0.6 0.075 0
v 0.6 0.135 0
v 0.6 0.135 2.4
v 0.6 0.075 2.4
v 1.15 0.075 2.35
v 1.15 0.135 2.35
v 0.65 0.135 2.35
v 0.65 0.075 2.35
v 0.65 0.075 2.35
v 0.65 0.135 2.35
v 0.65 0.135 0.8
v 0.65 0.075 0.8
v 0.65 0.075 0.8
v 0.65 0.135 0.8
v 1.15 0.135 0.8
v 1.15 0.075 0.8
v 1.15 0.075 0.8
v 1.15 0.135 0.8
v 1.15 0.135 2.35
v 1.15 0.075 2.35
v 0.6 0.075 2.4
v 1.2 0.075 2.4
v 1.2 0.075 0
v 0.6 0.075 0
v 1.15 0.075 2.35
v 0.65 0.075 2.35
v 0.65 0.075 0.8
v 1.15 0.075 0.8
v 0.6 0.135 2.4
v 1.2 0.135 2.4
v 1.2 0.135 0
v 0.6 0.135 0
v 1.15 0.135 2.35
v 0.65 0.135 2.35
v 0.65 0.135 0.8
v 1.15 0.135 0.8
v 0.0499999999999999 0.053 2.45
v 0.0499999999999999 0.053 2.95
v 0.0499999999999999 0.047 2.95
v 0.0499999999999999 0.047 2.45
v 0.0499999999999999 0.047 2.45
v 0.0499999999999999 0.047 2.95
v 1.15 0.047 2.95
v 1.15 0.047 2.45
v 1.15 0.047 2.45
v 1.15 0.047 2.95
v 1.15 0.053 2.95
v 1.15 0.053 2.45
v 1.15 0.053 2.45
v 1.15 0.053 2.95
v 0.0499999999999999 0.053 2.95
v 0.0499999999999999 0.053 2.45
v 0.0499999999999999 0.053 2.45
v 0.0499999999999999 0.047 2.45
v 1.15 0.047 2.45
v 1.15 0.053 2.45
v 0.0499999999999999 0.053 2.95
v 0.0499999999999999 0.047 2.95
v 1.15 0.047 2.95
v 1.15 0.053 2.95
v 0 0.02 3
v 0 0.08 3
v 1.2 0.08 3
v 1.2 0.02 3
v 1.2 0.02 3
v 1.2 0.08 3
v 1.2 0.08 2.4
v 1.2 0.02 2.4
v 1.2 0.02 2.4
v 1.2 0.08 2.4
v 0 0.08 2.4
v 0 0.02 2.4
v 0 0.02 2.4
v 0 0.08 2.4
v 0 0.08 3
v 0 0.02 3
v 0.0499999999999999 0.02 2.95
v 0.0499999999999999 0.08 2.95
v 0.0499999999999999 0.08 2.45
v 0.0499999999999999 0.02 2.45
v 0.0499999999999999 0.02 2.45
v 0.0499999999999999 0.08 2.45
v 1.15 0.08 2.45
v 1.15 0.02 2.45
v 1.15 0.02 2.45
v 1.15 0.08 2.45
v 1.15 0.08 2.95
v 1.15 0.02 2.95
v 1.15 0.02 2.95
v 1.15 0.08 2.95
v 0.0499999999999999 0.08 2.95
v 0.0499999999999999 0.02 2.95
v 0 0.02 3
v 1.2 0.02 3
v 1.2 0.02 2.4
v 0 0.02 2.4
v 0.0499999999999999 0.02 2.95
v 0.0499999999999999 0.02 2.45
v 1.15 0.02 2.45
v 1.15 0.02 2.95
v 0 0.08 3
v 1.2 0.08 3
v 1.2 0.08 2.4
v 0 0.08 2.4
v 0.0499999999999999 0.08 2.95
v 0.0499999999999999 0.08 2.45
v 1.15 0.08 2.45
v 1.15 0.08 2.95
v 0.549999999999999 0.135 0.8
v 0.549999999999999 0.135 2.35
v 0.0500000000000005 0.135 2.35
v 0.0500000000000005 0.135 0.8
v 0.0500000000000005 0.135 0.8
v 0.0500000000000005 0.135 2.35
v 0.0500000000000005 0.075 2.35
v 0.0500000000000005 0.075 0.8
v 0.0500000000000005 0.075 0.8
v 0.0500000000000005 0.075 2.35
v 0.549999999999999 0.075 2.35
v 0.549999999999999 0.075 0.8
v 0.549999999999999 0.075 0.8
v 0.549999999999999 0.075 2.35
v 0.549999999999999 0.135 2.35
v 0.549999999999999 0.135 0.8
v 0.549999999999999 0.135 0.8
v 0.0500000000000005 0.135 0.8
v 0.0500000000000005 0.075 0.8
v 0.549999999999999 0.075 0.8
v 0.549999999999999 0.135 2.35
v 0.0500000000000005 0.135 2.35
v 0.0500000000000005 0.075 2.35
v 0.549999999999999 0.075 2.35
v 0.6 0.075 2.4
v 0.6 0.135 2.4
v 0.6 0.135 0
v 0.6 0.075 0
v 0.6 0.075 0
v 0.6 0.135 0
v 0 0.135 0
v 0 0.075 0
v 0 0.075 0
v 0 0.135 0
v 0 0.135 2.4
v 0 0.075 2.4
v 0 0.075 2.4
v 0 0.135 2.4
v 0.6 0.135 2.4
v 0.6 0.075 2.4
v 0.05 0.075 2.35
v 0.05 0.135 2.35
v 0.05 0.135 0.8
v 0.05 0.075 0.8
v 0.05 0.075 0.8
v 0.05 0.135 0.8
v 0.55 0.135 0.8
v 0.55 0.075 0.8
v 0.55 0.075 0.8
v 0.55 0.135 0.8
v 0.55 0.135 2.35
v 0.55 0.075 2.35
v 0.55 0.075 2.35
v 0.55 0.135 2.35
v 0.05 0.135 2.35
v 0.05 0.075 2.35
v 0.6 0.075 2.4
v 0.6 0.075 0
v 0 0.075 0
v 0 0.075 2.4
v 0.05 0.075 2.35
v 0.05 0.075 0.8
v 0.55 0.075 0.8
v 0.55 0.075 2.35
v 0.6 0.135 2.4
v 0.6 0.135 0
v 0 0.135 0
v 0 0.135 2.4
v 0.05 0.135 2.35
v 0.05 0.135 0.8
v 0.55 0.135 0.8
v 0.55 0.135 2.35
vn -1 -0 -0
vn -1 -0 -0
vn -1 -0 -0
vn -1 -0 -0
vn 0 -1 0
vn 0 -1 0
vn 0 -1 0
vn 0 -1 0
vn 1 0 0
vn 1 0 0
vn 1 0 0
vn 1 0 0
vn 0 1 0
vn 0 1 0
vn 0 1 0
vn 0 1 0
vn 0 0 -1
vn 0 0 -1
vn 0 0 -1
vn 0 0 -1
vn 0 0 1
vn 0 0 1
vn 0 0 1
vn 0 0 1
vn 0 0 1
vn 0 0 1
vn 0 0 1
vn 0 0 1
vn 1 0 0
vn 1 0 0
vn 1 0 0
vn 1 0 0
vn -0 -0 -1
vn -0 -0 -1
vn -0 -0 -1
vn -0 -0 -1
vn -1 0 0
vn -1 0 0
vn -1 0 0
vn -1 0 0
vn -0 -0 -1
vn -0 -0 -1
vn -0 -0 -1
vn -0 -0 -1
vn 1 0 0
vn 1 0 0
vn 1 0 0
vn 1 0 0
vn 0 0 1
vn 0 0 1
vn 0 0 1
vn 0 0 1
vn -1 0 0
vn -1 0 0
vn -1 0 0
vn -1 0 0
vn 0 -1 0
vn 0 -1 0
vn 0 -1 0
vn 0 -1 0
vn 0 -1 0
vn 0 -1 0
vn 0 -1 0
vn 0 -1 0
vn 0 1 0
vn 0 1 0
vn 0 1 0
vn 0 1 0
vn 0 1 0
vn 0 1 0
vn 0 1 0
vn 0 1 0
vn -1 -0 -0
vn -1 -0 -0
vn -1 -0 -0
vn -1 -0 -0
vn 0 -1 0
vn 0 -1 0
vn 0 -1 0
vn 0 -1 0
vn 1 0 0
vn 1 0 0
vn 1 0 0
vn 1 0 0
vn 0 1 0
vn 0 1 0
vn 0 1 0
vn 0 1 0
vn 0 0 -1
vn 0 0 -1
vn 0 0 -1
vn 0 0 -1
vn 0 0 1
vn 0 0 1
vn 0 0 1
vn 0 0 1
vn 0 0 1
vn 0 0 1
vn 0 0 1
vn 0 0 1
vn 1 0 0
vn 1 0 0
vn 1 0 0
vn 1 0 0
vn -0 -0 -1
vn -0 -0 -1
vn -0 -0 -1
vn -0 -0 -1
vn -1 0 0
vn -1 0 0
vn -1 0 0
vn -1 0 0
vn 1 0 0
vn 1 0 0
vn 1 0 0
vn 1 0 0
vn 0 0 1
vn 0 0 1
vn 0 0 1
vn 0 0 1
vn -1 0 0
vn -1 0 0
vn -1 0 0
vn -1 0 0
vn -0 -0 -1
vn -0 -0 -1
vn -0 -0 -1
vn -0 -0 -1
vn 0 -1 0
vn 0 -1 0
vn 0 -1 0
vn 0 -1 0
vn 0 -1 0
vn 0 -1 0
vn 0 -1 0
vn 0 -1 0
vn 0 1 0
vn 0 1 0
vn 0 1 0
vn 0 1 0
vn 0 1 0
vn 0 1 0
vn 0 1 0
vn 0 1 0
vn 0 1 0
vn 0 1 0
vn 0 1 0
vn 0 1 0
vn -1 -0 -0
vn -1 -0 -0
vn -1 -0 -0
vn -1 -0 -0
vn 0 -1 0
vn 0 -1 0
vn 0 -1 0
vn 0 -1 0
vn 1 0 0
vn 1 0 0
vn 1 0 0
vn 1 0 0
vn -0 -0 -1
vn -0 -0 -1
vn -0 -0 -1
vn -0 -0 -1
vn 0 0 1
vn 0 0 1
vn 0 0 1
vn 0 0 1
vn 1 0 0
vn 1 0 0
vn 1 0 0
vn 1 0 0
vn -0 -0 -1
vn -0 -0 -1
vn -0 -0 -1
vn -0 -0 -1
vn -1 0 0
vn -1 0 0
vn -1 0 0
vn -1 0 0
vn 0 0 1
vn 0 0 1
vn 0 0 1
vn 0 0 1
vn 1 0 0
vn 1 0 0
vn 1 0 0
vn 1 0 0
vn 0 0 1
vn 0 0 1
vn 0 0 1
vn 0 0 1
vn -1 0 0
vn -1 0 0
vn -1 0 0
vn -1 0 0
vn -0 -0 -1
vn -0 -0 -1
vn -0 -0 -1
vn -0 -0 -1
vn -0 -1 -0
vn -0 -1 -0
vn -0 -1 -0
vn -0 -1 -0
vn -0 -1 -0
vn -0 -1 -0
vn -0 -1 -0
vn -0 -1 -0
vn 0 1 0
vn 0 1 0
vn 0 1 0
vn 0 1 0
vn 0 1 0
vn 0 1 0
vn 0 1 0
vn 0 1 0
usemtl IfcDoor
f 2//2 1//1 4//4
f 3//3 2//2 4//4
f 6//6 5//5 8//8
f 7//7 6//6 8//8
f 10//10 9//9 12//12
f 11//11 10//10 12//12
f 14//14 13//13 16//16
f 15//15 14//14 16//16
f 18//18 17//17 19//19
f 17//17 20//20 19//19
f 23//23 21//21 22//22
f 23//23 24//24 21//21
f 26//26 25//25 28//28
f 27//27 26//26 28//28
f 30//30 29//29 32//32
f 31//31 30//30 32//32
f 34//34 33//33 36//36
f 35//35 34//34 36//36
f 38//38 37//37 40//40
f 39//39 38//38 40//40
f 42//42 41//41 44//44
f 43//43 42//42 44//44
f 46//46 45//45 48//48
f 47//47 46//46 48//48
f 50//50 49//49 52//52
f 51//51 50//50 52//52
f 54//54 53//53 56//56
f 55//55 54//54 56//56
f 62//62 61//61 58//58
f 57//57 62//62 58//58
f 62//62 57//57 63//63
f 58//58 61//61 64//64
f 64//64 63//63 59//59
f 63//63 60//60 59//59
f 64//64 59//59 58//58
f 63//63 57//57 60//60
f 66//66 69//69 70//70
f 66//66 70//70 65//65
f 71//71 65//65 70//70
f 72//72 69//69 66//66
f 67//67 71//71 72//72
f 67//67 68//68 71//71
f 66//66 67//67 72//72
f 68//68 65//65 71//71
f 74//74 73//73 76//76
f 75//75 74//74 76//76
f 78//78 77//77 80//80
f 79//79 78//78 80//80
f 82//82 81//81 84//84
f 83//83 82//82 84//84
f 86//86 85//85 88//88
f 87//87 86//86 88//88
f 90//90 89//89 91//91
f 89//89 92//92 91//91
f 95//95 93//93 94//94
f 95//95 96//96 93//93
f 98//98 97//97 100//100
f 99//99 98//98 100//100
f 102//102 101//101 104//104
f 103//103 102//102 104//104
f 106//106 105//105 108//108
f 107//107 106//106 108//108
f 110//110 109//109 112//112
f 111//111 110//110 112//112
f 114//114 113//113 116//116
f 115//115 114//114 116//116
f 118//118 117//117 120//120
f 119//119 118//118 120//120
f 122//122 121//121 124//124
f 123//123 122//122 124//124
f 126//126 125//125 128//128
f 127//127 126//126 128//128
f 129//129 132//132 134//134
f 133//133 129//129 134//134
f 130//130 129//129 136//136
f 129//129 133//133 136//136
f 136//136 135//135 131//131
f 130//130 136//136 131//131
f 134//134 132//132 131//131
f 135//135 134//134 131//131
f 142//142 140//140 137//137
f 142//142 137//137 141//141
f 144//144 137//137 138//138
f 144//144 141//141 137//137
f 139//139 143//143 144//144
f 139//139 144//144 138//138
f 139//139 140//140 142//142
f 139//139 142//142 143//143
f 146//146 145//145 148//148
f 147//147 146//146 148//148
f 150//150 149//149 152//152
f 151//151 150//150 152//152
f 154//154 153//153 156//156
f 155//155 154//154 156//156
f 158//158 157//157 160//160
f 159//159 158//158 160//160
f 162//162 161//161 163//163
f 161//161 164//164 163//163
f 167//167 165//165 166//166
f 167//167 168//168 165//165
f 170//170 169//169 172//172
f 171//171 170//170 172//172
f 174//174 173//173 176//176
f 175//175 174//174 176//176
f 178//178 177//177 180//180
f 179//179 178//178 180//180
f 182//182 181//181 184//184
f 183//183 182//182 184//184
f 186//186 185//185 188//188
f 187//187 186//186 188//188
f 190//190 189//189 192//192
f 191//191 190//190 192//192
f 194//194 193//193 196//196
f 195//195 194//194 196//196
f 198//198 197//197 200//200
f 199//199 198//198 200//200
f 205//205 208//208 204//204
f 208//208 201//201 204//204
f 201//201 208//208 207//207
f 205//205 204//204 206//206
f 201//201 207//207 202//202
f 207//207 206//206 203//203
f 202//202 207//207 203//203
f 206//206 204//204 203//203
f 212//212 216//216 213//213
f 212//212 209//209 216//216
f 215//215 216//216 209//209
f 214//214 212//212 213//213
f 210//210 215//215 209//209
f 211//211 214//214 215//215
f 211//211 215//215 210//210
f 211//211 212//212 214//214
