# File generated by IfcOpenShell v0.7.0-f7c03db75
mtllib IfcDoor_0416184700724056.mtl
g product-9726558b-5d3b-4dc6-9dbd-be7523365130-body
s 1
v 0.05 0.053 2.15
v 0.05 0.053 2.35
v 0.05 0.047 2.35
v 0.05 0.047 2.15
v 0.05 0.047 2.15
v 0.05 0.047 2.35
v 0.75 0.047 2.35
v 0.75 0.047 2.15
v 0.75 0.047 2.15
v 0.75 0.047 2.35
v 0.75 0.053 2.35
v 0.75 0.053 2.15
v 0.75 0.053 2.15
v 0.75 0.053 2.35
v 0.05 0.053 2.35
v 0.05 0.053 2.15
v 0.05 0.053 2.15
v 0.05 0.047 2.15
v 0.75 0.047 2.15
v 0.75 0.053 2.15
v 0.05 0.053 2.35
v 0.05 0.047 2.35
v 0.75 0.047 2.35
v 0.75 0.053 2.35
v 0 0.02 2.4
v 0 0.08 2.4
v 0.8 0.08 2.4
v 0.8 0.02 2.4
v 0.8 0.02 2.4
v 0.8 0.08 2.4
v 0.8 0.08 2.1
v 0.8 0.02 2.1
v 0.8 0.02 2.1
v 0.8 0.08 2.1
v 0 0.08 2.1
v 0 0.02 2.1
v 0 0.02 2.1
v 0 0.08 2.1
v 0 0.08 2.4
v 0 0.02 2.4
v 0.05 0.02 2.35
v 0.05 0.08 2.35
v 0.05 0.08 2.15
v 0.05 0.02 2.15
v 0.05 0.02 2.15
v 0.05 0.08 2.15
v 0.75 0.08 2.15
v 0.75 0.02 2.15
v 0.75 0.02 2.15
v 0.75 0.08 2.15
v 0.75 0.08 2.35
v 0.75 0.02 2.35
v 0.75 0.02 2.35
v 0.75 0.08 2.35
v 0.05 0.08 2.35
v 0.05 0.02 2.35
v 0 0.02 2.4
v 0.8 0.02 2.4
v 0.8 0.02 2.1
v 0 0.02 2.1
v 0.05 0.02 2.35
v 0.05 0.02 2.15
v 0.75 0.02 2.15
v 0.75 0.02 2.35
v 0 0.08 2.4
v 0.8 0.08 2.4
v 0.8 0.08 2.1
v 0 0.08 2.1
v 0.05 0.08 2.35
v 0.05 0.08 2.15
v 0.75 0.08 2.15
v 0.75 0.08 2.35
v 0.75 0.078 0.05
v 0.75 0.078 2.05
v 0.0500000000000005 0.078 2.05
v 0.0500000000000005 0.078 0.05
v 0.0500000000000005 0.078 0.05
v 0.0500000000000005 0.078 2.05
v 0.0500000000000005 0.018 2.05
v 0.0500000000000005 0.018 0.05
v 0.0500000000000005 0.018 0.05
v 0.0500000000000005 0.018 2.05
v 0.75 0.018 2.05
v 0.75 0.018 0.05
v 0.75 0.018 0.05
v 0.75 0.018 2.05
v 0.75 0.078 2.05
v 0.75 0.078 0.05
v 0.75 0.078 0.05
v 0.0500000000000005 0.078 0.05
v 0.0500000000000005 0.018 0.05
v 0.75 0.018 0.05
v 0.75 0.078 2.05
v 0.0500000000000005 0.078 2.05
v 0.0500000000000005 0.018 2.05
v 0.75 0.018 2.05
v 0.8 0.018 2.1
v 0.8 0.078 2.1
v 0.8 0.078 0
v 0.8 0.018 0
v 0.8 0.018 0
v 0.8 0.078 0
v 0 0.078 0
v 0 0.018 0
v 0 0.018 0
v 0 0.078 0
v 0 0.078 2.1
v 0 0.018 2.1
v 0 0.018 2.1
v 0 0.078 2.1
v 0.8 0.078 2.1
v 0.8 0.018 2.1
v 0.05 0.018 2.05
v 0.05 0.078 2.05
v 0.05 0.078 0.05
v 0.05 0.018 0.05
v 0.05 0.018 0.05
v 0.05 0.078 0.05
v 0.75 0.078 0.05
v 0.75 0.018 0.05
v 0.75 0.018 0.05
v 0.75 0.078 0.05
v 0.75 0.078 2.05
v 0.75 0.018 2.05
v 0.75 0.018 2.05
v 0.75 0.078 2.05
v 0.05 0.078 2.05
v 0.05 0.018 2.05
v 0.8 0.018 2.1
v 0.8 0.018 0
v 0 0.018 0
v 0 0.018 2.1
v 0.05 0.018 2.05
v 0.05 0.018 0.05
v 0.75 0.018 0.05
v 0.75 0.018 2.05
v 0.8 0.078 2.1
v 0.8 0.078 0
v 0 0.078 0
v 0 0.078 2.1
v 0.05 0.078 2.05
v 0.05 0.078 0.05
v 0.75 0.078 0.05
v 0.75 0.078 2.05
vn -1 -0 -0
vn -1 -0 -0
vn -1 -0 -0
vn -1 -0 -0
vn 0 -1 0
vn 0 -1 0
vn 0 -1 0
vn 0 -1 0
vn 1 0 0
vn 1 0 0
vn 1 0 0
vn 1 0 0
vn 0 1 0
vn 0 1 0
vn 0 1 0
vn 0 1 0
vn 0 0 -1
vn 0 0 -1
vn 0 0 -1
vn 0 0 -1
vn 0 0 1
vn 0 0 1
vn 0 0 1
vn 0 0 1
vn 0 0 1
vn 0 0 1
vn 0 0 1
vn 0 0 1
vn 1 0 0
vn 1 0 0
vn 1 0 0
vn 1 0 0
vn -0 -0 -1
vn -0 -0 -1
vn -0 -0 -1
vn -0 -0 -1
vn -1 0 0
vn -1 0 0
vn -1 0 0
vn -1 0 0
vn 1 0 0
vn 1 0 0
vn 1 0 0
vn 1 0 0
vn 0 0 1
vn 0 0 1
vn 0 0 1
vn 0 0 1
vn -1 0 0
vn -1 0 0
vn -1 0 0
vn -1 0 0
vn -0 -0 -1
vn -0 -0 -1
vn -0 -0 -1
vn -0 -0 -1
vn 0 -1 0
vn 0 -1 0
vn 0 -1 0
vn 0 -1 0
vn 0 -1 0
vn 0 -1 0
vn 0 -1 0
vn 0 -1 0
vn 0 1 0
vn 0 1 0
vn 0 1 0
vn 0 1 0
vn 0 1 0
vn 0 1 0
vn 0 1 0
vn 0 1 0
vn 0 1 0
vn 0 1 0
vn 0 1 0
vn 0 1 0
vn -1 -0 -0
vn -1 -0 -0
vn -1 -0 -0
vn -1 -0 -0
vn 0 -1 0
vn 0 -1 0
vn 0 -1 0
vn 0 -1 0
vn 1 0 0
vn 1 0 0
vn 1 0 0
vn 1 0 0
vn -0 -0 -1
vn -0 -0 -1
vn -0 -0 -1
vn -0 -0 -1
vn 0 0 1
vn 0 0 1
vn 0 0 1
vn 0 0 1
vn 1 0 0
vn 1 0 0
vn 1 0 0
vn 1 0 0
vn -0 -0 -1
vn -0 -0 -1
vn -0 -0 -1
vn -0 -0 -1
vn -1 0 0
vn -1 0 0
vn -1 0 0
vn -1 0 0
vn 0 0 1
vn 0 0 1
vn 0 0 1
vn 0 0 1
vn 1 0 0
vn 1 0 0
vn 1 0 0
vn 1 0 0
vn 0 0 1
vn 0 0 1
vn 0 0 1
vn 0 0 1
vn -1 0 0
vn -1 0 0
vn -1 0 0
vn -1 0 0
vn -0 -0 -1
vn -0 -0 -1
vn -0 -0 -1
vn -0 -0 -1
vn -0 -1 -0
vn -0 -1 -0
vn -0 -1 -0
vn -0 -1 -0
vn -0 -1 -0
vn -0 -1 -0
vn -0 -1 -0
vn -0 -1 -0
vn 0 1 0
vn 0 1 0
vn 0 1 0
vn 0 1 0
vn 0 1 0
vn 0 1 0
vn 0 1 0
vn 0 1 0
usemtl IfcDoor
f 2//2 1//1 4//4
f 3//3 2//2 4//4
f 6//6 5//5 8//8
f 7//7 6//6 8//8
f 10//10 9//9 12//12
f 11//11 10//10 12//12
f 14//14 13//13 16//16
f 15//15 14//14 16//16
f 18//18 17//17 19//19
f 17//17 20//20 19//19
f 23//23 21//21 22//22
f 23//23 24//24 21//21
f 26//26 25//25 28//28
f 27//27 26//26 28//28
f 30//30 29//29 32//32
f 31//31 30//30 32//32
f 34//34 33//33 36//36
f 35//35 34//34 36//36
f 38//38 37//37 40//40
f 39//39 38//38 40//40
f 42//42 41//41 44//44
f 43//43 42//42 44//44
f 46//46 45//45 48//48
f 47//47 46//46 48//48
f 50//50 49//49 52//52
f 51//51 50//50 52//52
f 54//54 53//53 56//56
f 55//55 54//54 56//56
f 57//57 60//60 62//62
f 61//61 57//57 62//62
f 61//61 64//64 58//58
f 57//57 61//61 58//58
f 64//64 63//63 59//59
f 58//58 64//64 59//59
f 62//62 60//60 59//59
f 63//63 62//62 59//59
f 70//70 68//68 65//65
f 70//70 65//65 69//69
f 66//66 72//72 69//69
f 66//66 69//69 65//65
f 67//67 71//71 72//72
f 67//67 72//72 66//66
f 67//67 68//68 70//70
f 67//67 70//70 71//71
f 74//74 73//73 76//76
f 75//75 74//74 76//76
f 78//78 77//77 80//80
f 79//79 78//78 80//80
f 82//82 81//81 84//84
f 83//83 82//82 84//84
f 86//86 85//85 88//88
f 87//87 86//86 88//88
f 90//90 89//89 91//91
f 89//89 92//92 91//91
f 95//95 93//93 94//94
f 95//95 96//96 93//93
f 98//98 97//97 100//100
f 99//99 98//98 100//100
f 102//102 101//101 104//104
f 103//103 102//102 104//104
f 106//106 105//105 108//108
f 107//107 106//106 108//108
f 110//110 109//109 112//112
f 111//111 110//110 112//112
f 114//114 113//113 116//116
f 115//115 114//114 116//116
f 118//118 117//117 120//120
f 119//119 118//118 120//120
f 122//122 121//121 124//124
f 123//123 122//122 124//124
f 126//126 125//125 128//128
f 127//127 126//126 128//128
f 129//129 132//132 133//133
f 136//136 129//129 133//133
f 136//136 135//135 130//130
f 129//129 136//136 130//130
f 135//135 134//134 131//131
f 130//130 135//135 131//131
f 133//133 132//132 131//131
f 134//134 133//133 131//131
f 141//141 140//140 137//137
f 141//141 137//137 144//144
f 138//138 143//143 144//144
f 138//138 144//144 137//137
f 139//139 142//142 143//143
f 139//139 143//143 138//138
f 139//139 140//140 141//141
f 139//139 141//141 142//142
