# File generated by IfcOpenShell v0.7.0-f7c03db75
mtllib IfcWindow_0416184700750506.mtl
g product-9726558b-5d3b-4dc6-9dbd-be752336aff4-body
s 1
v 0.45 0.103 1.625
v 0.45 0.103 2.94999999999998
v 0.05 0.103 2.94999999999998
v 0.05 0.103 1.625
v 0.05 0.103 1.625
v 0.05 0.103 2.94999999999998
v 0.05 0.097 2.94999999999998
v 0.05 0.097 1.625
v 0.05 0.097 1.625
v 0.05 0.097 2.94999999999998
v 0.45 0.097 2.94999999999998
v 0.45 0.097 1.625
v 0.45 0.097 1.625
v 0.45 0.097 2.94999999999998
v 0.45 0.103 2.94999999999998
v 0.45 0.103 1.625
v 0.45 0.103 1.625
v 0.05 0.103 1.625
v 0.05 0.097 1.625
v 0.45 0.097 1.625
v 0.45 0.103 2.94999999999998
v 0.05 0.103 2.94999999999998
v 0.05 0.097 2.94999999999998
v 0.45 0.097 2.94999999999998
v 0.45 0.103 0.05
v 0.45 0.103 0.875000000000004
v 0.05 0.103 0.875000000000004
v 0.05 0.103 0.05
v 0.05 0.103 0.05
v 0.05 0.103 0.875000000000004
v 0.05 0.097 0.875000000000004
v 0.05 0.097 0.05
v 0.05 0.097 0.05
v 0.05 0.097 0.875000000000004
v 0.45 0.097 0.875000000000004
v 0.45 0.097 0.05
v 0.45 0.097 0.05
v 0.45 0.097 0.875000000000004
v 0.45 0.103 0.875000000000004
v 0.45 0.103 0.05
v 0.45 0.103 0.05
v 0.05 0.103 0.05
v 0.05 0.097 0.05
v 0.45 0.097 0.05
v 0.45 0.103 0.875000000000004
v 0.05 0.103 0.875000000000004
v 0.05 0.097 0.875000000000004
v 0.45 0.097 0.875000000000004
v 0.45 0.103 0.925
v 0.45 0.103 1.575
v 0.05 0.103 1.575
v 0.05 0.103 0.925
v 0.05 0.103 0.925
v 0.05 0.103 1.575
v 0.05 0.097 1.575
v 0.05 0.097 0.925
v 0.05 0.097 0.925
v 0.05 0.097 1.575
v 0.45 0.097 1.575
v 0.45 0.097 0.925
v 0.45 0.097 0.925
v 0.45 0.097 1.575
v 0.45 0.103 1.575
v 0.45 0.103 0.925
v 0.45 0.103 0.925
v 0.05 0.103 0.925
v 0.05 0.097 0.925
v 0.45 0.097 0.925
v 0.45 0.103 1.575
v 0.05 0.103 1.575
v 0.05 0.097 1.575
v 0.45 0.097 1.575
v 0.5 0.13 3
v 0.5 0.07 3
v 0 0.07 3
v 0 0.13 3
v 0 0.13 3
v 0 0.07 3
v 0 0.07 0
v 0 0.13 0
v 0 0.13 0
v 0 0.07 0
v 0.5 0.07 0
v 0.5 0.13 0
v 0.5 0.13 0
v 0.5 0.07 0
v 0.5 0.07 3
v 0.5 0.13 3
v 0.05 0.13 0.875
v 0.05 0.07 0.875
v 0.45 0.07 0.875
v 0.45 0.13 0.875
v 0.45 0.13 0.875
v 0.45 0.07 0.875
v 0.45 0.07 0.05
v 0.45 0.13 0.05
v 0.45 0.13 0.05
v 0.45 0.07 0.05
v 0.05 0.07 0.05
v 0.05 0.13 0.05
v 0.05 0.13 0.05
v 0.05 0.07 0.05
v 0.05 0.07 0.875
v 0.05 0.13 0.875
v 0.05 0.13 1.575
v 0.05 0.07 1.575
v 0.45 0.07 1.575
v 0.45 0.13 1.575
v 0.45 0.13 1.575
v 0.45 0.07 1.575
v 0.45 0.07 0.925
v 0.45 0.13 0.925
v 0.45 0.13 0.925
v 0.45 0.07 0.925
v 0.05 0.07 0.925
v 0.05 0.13 0.925
v 0.05 0.13 0.925
v 0.05 0.07 0.925
v 0.05 0.07 1.575
v 0.05 0.13 1.575
v 0.45 0.13 2.95
v 0.45 0.07 2.95
v 0.45 0.07 1.625
v 0.45 0.13 1.625
v 0.45 0.13 1.625
v 0.45 0.07 1.625
v 0.05 0.07 1.625
v 0.05 0.13 1.625
v 0.05 0.13 1.625
v 0.05 0.07 1.625
v 0.05 0.07 2.95
v 0.05 0.13 2.95
v 0.05 0.13 2.95
v 0.05 0.07 2.95
v 0.45 0.07 2.95
v 0.45 0.13 2.95
v 0.5 0.13 3
v 0 0.13 3
v 0 0.13 0
v 0.5 0.13 0
v 0.05 0.13 0.875
v 0.45 0.13 0.875
v 0.45 0.13 0.05
v 0.05 0.13 0.05
v 0.05 0.13 1.575
v 0.45 0.13 1.575
v 0.45 0.13 0.925
v 0.05 0.13 0.925
v 0.45 0.13 2.95
v 0.45 0.13 1.625
v 0.05 0.13 1.625
v 0.05 0.13 2.95
v 0.5 0.07 3
v 0 0.07 3
v 0 0.07 0
v 0.5 0.07 0
v 0.05 0.07 0.875
v 0.45 0.07 0.875
v 0.45 0.07 0.05
v 0.05 0.07 0.05
v 0.05 0.07 1.575
v 0.45 0.07 1.575
v 0.45 0.07 0.925
v 0.05 0.07 0.925
v 0.45 0.07 2.95
v 0.45 0.07 1.625
v 0.05 0.07 1.625
v 0.05 0.07 2.95
vn 0 1 0
vn 0 1 0
vn 0 1 0
vn 0 1 0
vn -1 -0 -0
vn -1 -0 -0
vn -1 -0 -0
vn -1 -0 -0
vn 0 -1 0
vn 0 -1 0
vn 0 -1 0
vn 0 -1 0
vn 1 0 0
vn 1 0 0
vn 1 0 0
vn 1 0 0
vn -0 -0 -1
vn -0 -0 -1
vn -0 -0 -1
vn -0 -0 -1
vn 0 0 1
vn 0 0 1
vn 0 0 1
vn 0 0 1
vn 0 1 0
vn 0 1 0
vn 0 1 0
vn 0 1 0
vn -1 -0 -0
vn -1 -0 -0
vn -1 -0 -0
vn -1 -0 -0
vn 0 -1 0
vn 0 -1 0
vn 0 -1 0
vn 0 -1 0
vn 1 0 0
vn 1 0 0
vn 1 0 0
vn 1 0 0
vn -0 -0 -1
vn -0 -0 -1
vn -0 -0 -1
vn -0 -0 -1
vn 0 0 1
vn 0 0 1
vn 0 0 1
vn 0 0 1
vn 0 1 0
vn 0 1 0
vn 0 1 0
vn 0 1 0
vn -1 -0 -0
vn -1 -0 -0
vn -1 -0 -0
vn -1 -0 -0
vn 0 -1 0
vn 0 -1 0
vn 0 -1 0
vn 0 -1 0
vn 1 0 0
vn 1 0 0
vn 1 0 0
vn 1 0 0
vn -0 -0 -1
vn -0 -0 -1
vn -0 -0 -1
vn -0 -0 -1
vn 0 0 1
vn 0 0 1
vn 0 0 1
vn 0 0 1
vn 0 0 1
vn 0 0 1
vn 0 0 1
vn 0 0 1
vn -1 0 0
vn -1 0 0
vn -1 0 0
vn -1 0 0
vn -0 -0 -1
vn -0 -0 -1
vn -0 -0 -1
vn -0 -0 -1
vn 1 0 0
vn 1 0 0
vn 1 0 0
vn 1 0 0
vn -0 -0 -1
vn -0 -0 -1
vn -0 -0 -1
vn -0 -0 -1
vn -1 0 0
vn -1 0 0
vn -1 0 0
vn -1 0 0
vn 0 0 1
vn 0 0 1
vn 0 0 1
vn 0 0 1
vn 1 0 0
vn 1 0 0
vn 1 0 0
vn 1 0 0
vn -0 -0 -1
vn -0 -0 -1
vn -0 -0 -1
vn -0 -0 -1
vn -1 0 0
vn -1 0 0
vn -1 0 0
vn -1 0 0
vn 0 0 1
vn 0 0 1
vn 0 0 1
vn 0 0 1
vn 1 0 0
vn 1 0 0
vn 1 0 0
vn 1 0 0
vn -1 0 0
vn -1 0 0
vn -1 0 0
vn -1 0 0
vn 0 0 1
vn 0 0 1
vn 0 0 1
vn 0 0 1
vn 1 0 0
vn 1 0 0
vn 1 0 0
vn 1 0 0
vn -0 -0 -1
vn -0 -0 -1
vn -0 -0 -1
vn -0 -0 -1
vn 0 1 0
vn 0 1 0
vn 0 1 0
vn 0 1 0
vn 0 1 0
vn 0 1 0
vn 0 1 0
vn 0 1 0
vn 0 1 0
vn 0 1 0
vn 0 1 0
vn 0 1 0
vn 0 1 0
vn 0 1 0
vn 0 1 0
vn 0 1 0
vn -0 -1 -0
vn -0 -1 -0
vn -0 -1 -0
vn -0 -1 -0
vn -0 -1 -0
vn -0 -1 -0
vn -0 -1 -0
vn -0 -1 -0
vn -0 -1 -0
vn -0 -1 -0
vn -0 -1 -0
vn -0 -1 -0
vn -0 -1 -0
vn -0 -1 -0
vn -0 -1 -0
vn -0 -1 -0
usemtl IfcWindow
f 2//2 1//1 4//4
f 3//3 2//2 4//4
f 6//6 5//5 8//8
f 7//7 6//6 8//8
f 10//10 9//9 12//12
f 11//11 10//10 12//12
f 14//14 13//13 16//16
f 15//15 14//14 16//16
f 18//18 17//17 19//19
f 17//17 20//20 19//19
f 23//23 21//21 22//22
f 23//23 24//24 21//21
f 26//26 25//25 28//28
f 27//27 26//26 28//28
f 30//30 29//29 32//32
f 31//31 30//30 32//32
f 34//34 33//33 36//36
f 35//35 34//34 36//36
f 38//38 37//37 40//40
f 39//39 38//38 40//40
f 42//42 41//41 43//43
f 41//41 44//44 43//43
f 47//47 45//45 46//46
f 47//47 48//48 45//45
f 50//50 49//49 52//52
f 51//51 50//50 52//52
f 54//54 53//53 56//56
f 55//55 54//54 56//56
f 58//58 57//57 60//60
f 59//59 58//58 60//60
f 62//62 61//61 64//64
f 63//63 62//62 64//64
f 66//66 65//65 67//67
f 65//65 68//68 67//67
f 71//71 69//69 70//70
f 71//71 72//72 69//69
f 74//74 73//73 76//76
f 75//75 74//74 76//76
f 78//78 77//77 80//80
f 79//79 78//78 80//80
f 82//82 81//81 84//84
f 83//83 82//82 84//84
f 86//86 85//85 88//88
f 87//87 86//86 88//88
f 90//90 89//89 92//92
f 91//91 90//90 92//92
f 94//94 93//93 96//96
f 95//95 94//94 96//96
f 98//98 97//97 100//100
f 99//99 98//98 100//100
f 102//102 101//101 104//104
f 103//103 102//102 104//104
f 106//106 105//105 108//108
f 107//107 106//106 108//108
f 110//110 109//109 112//112
f 111//111 110//110 112//112
f 114//114 113//113 116//116
f 115//115 114//114 116//116
f 118//118 117//117 120//120
f 119//119 118//118 120//120
f 122//122 121//121 124//124
f 123//123 122//122 124//124
f 126//126 125//125 128//128
f 127//127 126//126 128//128
f 130//130 129//129 132//132
f 131//131 130//130 132//132
f 134//134 133//133 136//136
f 135//135 134//134 136//136
f 138//138 137//137 152//152
f 137//137 149//149 152//152
f 149//149 137//137 150//150
f 138//138 152//152 151//151
f 151//151 150//150 145//145
f 150//150 146//146 145//145
f 147//147 142//142 148//148
f 148//148 142//142 141//141
f 142//142 140//140 143//143
f 144//144 143//143 139//139
f 141//141 144//144 139//139
f 143//143 140//140 139//139
f 141//141 139//139 138//138
f 148//148 141//141 138//138
f 145//145 148//148 138//138
f 151//151 145//145 138//138
f 150//150 137//137 140//140
f 146//146 150//150 140//140
f 147//147 146//146 140//140
f 142//142 147//147 140//140
f 168//168 153//153 154//154
f 168//168 165//165 153//153
f 166//166 153//153 165//165
f 167//167 168//168 154//154
f 161//161 166//166 167//167
f 161//161 162//162 166//166
f 164//164 158//158 163//163
f 157//157 158//158 164//164
f 159//159 156//156 158//158
f 155//155 159//159 160//160
f 155//155 160//160 157//157
f 155//155 156//156 159//159
f 154//154 155//155 157//157
f 154//154 157//157 164//164
f 154//154 164//164 161//161
f 154//154 161//161 167//167
f 156//156 153//153 166//166
f 156//156 166//166 162//162
f 156//156 162//162 163//163
f 156//156 163//163 158//158
