# File generated by IfcOpenShell v0.7.0-f7c03db75
mtllib IfcWindow_0416184700827291.mtl
g product-ef6fa796-6501-4501-aaa4-af8807861911-body
s 1
v 1.25 0.2 0.1
v 1.25 0.2 2.1
v 1.15 0.2 2.1
v 1.15 0.2 0.1
v 1.15 0.2 0.1
v 1.15 0.2 2.1
v 1.15 0 2.1
v 1.15 0 0.1
v 1.15 0 0.1
v 1.15 0 2.1
v 1.25 0 2.1
v 1.25 0 0.1
v 1.25 0 0.1
v 1.25 0 2.1
v 1.25 0.2 2.1
v 1.25 0.2 0.1
v 1.25 0.2 0.1
v 1.15 0.2 0.1
v 1.15 0 0.1
v 1.25 0 0.1
v 1.25 0.2 2.1
v 1.15 0.2 2.1
v 1.15 0 2.1
v 1.25 0 2.1
v 1.85 0.2 0.1
v 1.85 0.2 2.1
v 1.75 0.2 2.1
v 1.75 0.2 0.1
v 1.75 0.2 0.1
v 1.75 0.2 2.1
v 1.75 0 2.1
v 1.75 0 0.1
v 1.75 0 0.1
v 1.75 0 2.1
v 1.85 0 2.1
v 1.85 0 0.1
v 1.85 0 0.1
v 1.85 0 2.1
v 1.85 0.2 2.1
v 1.85 0.2 0.1
v 1.85 0.2 0.1
v 1.75 0.2 0.1
v 1.75 0 0.1
v 1.85 0 0.1
v 1.85 0.2 2.1
v 1.75 0.2 2.1
v 1.75 0 2.1
v 1.85 0 2.1
v 0.65 0.2 0.1
v 0.65 0.2 2.1
v 0.55 0.2 2.1
v 0.55 0.2 0.1
v 0.55 0.2 0.1
v 0.55 0.2 2.1
v 0.55 0 2.1
v 0.55 0 0.1
v 0.55 0 0.1
v 0.55 0 2.1
v 0.65 0 2.1
v 0.65 0 0.1
v 0.65 0 0.1
v 0.65 0 2.1
v 0.65 0.2 2.1
v 0.65 0.2 0.1
v 0.65 0.2 0.1
v 0.55 0.2 0.1
v 0.55 0 0.1
v 0.65 0 0.1
v 0.65 0.2 2.1
v 0.55 0.2 2.1
v 0.55 0 2.1
v 0.65 0 2.1
v 2.45 0.2 0.1
v 2.45 0.2 2.1
v 2.35 0.2 2.1
v 2.35 0.2 0.1
v 2.35 0.2 0.1
v 2.35 0.2 2.1
v 2.35 0 2.1
v 2.35 0 0.1
v 2.35 0 0.1
v 2.35 0 2.1
v 2.45 0 2.1
v 2.45 0 0.1
v 2.45 0 0.1
v 2.45 0 2.1
v 2.45 0.2 2.1
v 2.45 0.2 0.1
v 2.45 0.2 0.1
v 2.35 0.2 0.1
v 2.35 0 0.1
v 2.45 0 0.1
v 2.45 0.2 2.1
v 2.35 0.2 2.1
v 2.35 0 2.1
v 2.45 0 2.1
v 0.0999999999999999 0.103 0.1
v 0.0999999999999999 0.103 2.1
v 0.0999999999999999 0.097 2.1
v 0.0999999999999999 0.097 0.1
v 0.0999999999999999 0.097 0.1
v 0.0999999999999999 0.097 2.1
v 2.9 0.097 2.1
v 2.9 0.097 0.1
v 2.9 0.097 0.1
v 2.9 0.097 2.1
v 2.9 0.103 2.1
v 2.9 0.103 0.1
v 2.9 0.103 0.1
v 2.9 0.103 2.1
v 0.0999999999999999 0.103 2.1
v 0.0999999999999999 0.103 0.1
v 0.0999999999999999 0.103 0.1
v 0.0999999999999999 0.097 0.1
v 2.9 0.097 0.1
v 2.9 0.103 0.1
v 0.0999999999999999 0.103 2.1
v 0.0999999999999999 0.097 2.1
v 2.9 0.097 2.1
v 2.9 0.103 2.1
v 0 0.07 2.2
v 0 0.13 2.2
v 3 0.13 2.2
v 3 0.07 2.2
v 3 0.07 2.2
v 3 0.13 2.2
v 3 0.13 0
v 3 0.07 0
v 3 0.07 0
v 3 0.13 0
v 0 0.13 0
v 0 0.07 0
v 0 0.07 0
v 0 0.13 0
v 0 0.13 2.2
v 0 0.07 2.2
v 0.0999999999999999 0.07 2.1
v 0.0999999999999999 0.13 2.1
v 0.0999999999999999 0.13 0.1
v 0.0999999999999999 0.07 0.1
v 0.0999999999999999 0.07 0.1
v 0.0999999999999999 0.13 0.1
v 2.9 0.13 0.1
v 2.9 0.07 0.1
v 2.9 0.07 0.1
v 2.9 0.13 0.1
v 2.9 0.13 2.1
v 2.9 0.07 2.1
v 2.9 0.07 2.1
v 2.9 0.13 2.1
v 0.0999999999999999 0.13 2.1
v 0.0999999999999999 0.07 2.1
v 0 0.07 2.2
v 3 0.07 2.2
v 3 0.07 0
v 0 0.07 0
v 0.0999999999999999 0.07 2.1
v 0.0999999999999999 0.07 0.1
v 2.9 0.07 0.1
v 2.9 0.07 2.1
v 0 0.13 2.2
v 3 0.13 2.2
v 3 0.13 0
v 0 0.13 0
v 0.0999999999999999 0.13 2.1
v 0.0999999999999999 0.13 0.1
v 2.9 0.13 0.1
v 2.9 0.13 2.1
vn 0 1 0
vn 0 1 0
vn 0 1 0
vn 0 1 0
vn -1 -0 -0
vn -1 -0 -0
vn -1 -0 -0
vn -1 -0 -0
vn 0 -1 0
vn 0 -1 0
vn 0 -1 0
vn 0 -1 0
vn 1 0 0
vn 1 0 0
vn 1 0 0
vn 1 0 0
vn -0 -0 -1
vn -0 -0 -1
vn -0 -0 -1
vn -0 -0 -1
vn 0 0 1
vn 0 0 1
vn 0 0 1
vn 0 0 1
vn 0 1 0
vn 0 1 0
vn 0 1 0
vn 0 1 0
vn -1 -0 -0
vn -1 -0 -0
vn -1 -0 -0
vn -1 -0 -0
vn 0 -1 0
vn 0 -1 0
vn 0 -1 0
vn 0 -1 0
vn 1 0 0
vn 1 0 0
vn 1 0 0
vn 1 0 0
vn -0 -0 -1
vn -0 -0 -1
vn -0 -0 -1
vn -0 -0 -1
vn 0 0 1
vn 0 0 1
vn 0 0 1
vn 0 0 1
vn 0 1 0
vn 0 1 0
vn 0 1 0
vn 0 1 0
vn -1 -0 -0
vn -1 -0 -0
vn -1 -0 -0
vn -1 -0 -0
vn 0 -1 0
vn 0 -1 0
vn 0 -1 0
vn 0 -1 0
vn 1 0 0
vn 1 0 0
vn 1 0 0
vn 1 0 0
vn -0 -0 -1
vn -0 -0 -1
vn -0 -0 -1
vn -0 -0 -1
vn 0 0 1
vn 0 0 1
vn 0 0 1
vn 0 0 1
vn 0 1 0
vn 0 1 0
vn 0 1 0
vn 0 1 0
vn -1 -0 -0
vn -1 -0 -0
vn -1 -0 -0
vn -1 -0 -0
vn 0 -1 0
vn 0 -1 0
vn 0 -1 0
vn 0 -1 0
vn 1 0 0
vn 1 0 0
vn 1 0 0
vn 1 0 0
vn -0 -0 -1
vn -0 -0 -1
vn -0 -0 -1
vn -0 -0 -1
vn 0 0 1
vn 0 0 1
vn 0 0 1
vn 0 0 1
vn -1 -0 -0
vn -1 -0 -0
vn -1 -0 -0
vn -1 -0 -0
vn 0 -1 0
vn 0 -1 0
vn 0 -1 0
vn 0 -1 0
vn 1 0 0
vn 1 0 0
vn 1 0 0
vn 1 0 0
vn 0 1 0
vn 0 1 0
vn 0 1 0
vn 0 1 0
vn 0 0 -1
vn 0 0 -1
vn 0 0 -1
vn 0 0 -1
vn 0 0 1
vn 0 0 1
vn 0 0 1
vn 0 0 1
vn 0 0 1
vn 0 0 1
vn 0 0 1
vn 0 0 1
vn 1 0 0
vn 1 0 0
vn 1 0 0
vn 1 0 0
vn -0 -0 -1
vn -0 -0 -1
vn -0 -0 -1
vn -0 -0 -1
vn -1 0 0
vn -1 0 0
vn -1 0 0
vn -1 0 0
vn 1 0 0
vn 1 0 0
vn 1 0 0
vn 1 0 0
vn 0 0 1
vn 0 0 1
vn 0 0 1
vn 0 0 1
vn -1 0 0
vn -1 0 0
vn -1 0 0
vn -1 0 0
vn -0 -0 -1
vn -0 -0 -1
vn -0 -0 -1
vn -0 -0 -1
vn 0 -1 0
vn 0 -1 0
vn 0 -1 0
vn 0 -1 0
vn 0 -1 0
vn 0 -1 0
vn 0 -1 0
vn 0 -1 0
vn 0 1 0
vn 0 1 0
vn 0 1 0
vn 0 1 0
vn 0 1 0
vn 0 1 0
vn 0 1 0
vn 0 1 0
usemtl IfcWindow
f 2//2 1//1 4//4
f 3//3 2//2 4//4
f 6//6 5//5 8//8
f 7//7 6//6 8//8
f 10//10 9//9 12//12
f 11//11 10//10 12//12
f 14//14 13//13 16//16
f 15//15 14//14 16//16
f 18//18 17//17 19//19
f 17//17 20//20 19//19
f 23//23 21//21 22//22
f 23//23 24//24 21//21
f 26//26 25//25 28//28
f 27//27 26//26 28//28
f 30//30 29//29 32//32
f 31//31 30//30 32//32
f 34//34 33//33 36//36
f 35//35 34//34 36//36
f 38//38 37//37 40//40
f 39//39 38//38 40//40
f 42//42 41//41 43//43
f 41//41 44//44 43//43
f 47//47 45//45 46//46
f 47//47 48//48 45//45
f 50//50 49//49 52//52
f 51//51 50//50 52//52
f 54//54 53//53 56//56
f 55//55 54//54 56//56
f 58//58 57//57 60//60
f 59//59 58//58 60//60
f 62//62 61//61 64//64
f 63//63 62//62 64//64
f 66//66 65//65 67//67
f 65//65 68//68 67//67
f 71//71 69//69 70//70
f 71//71 72//72 69//69
f 74//74 73//73 76//76
f 75//75 74//74 76//76
f 78//78 77//77 80//80
f 79//79 78//78 80//80
f 82//82 81//81 84//84
f 83//83 82//82 84//84
f 86//86 85//85 88//88
f 87//87 86//86 88//88
f 90//90 89//89 91//91
f 89//89 92//92 91//91
f 95//95 93//93 94//94
f 95//95 96//96 93//93
f 98//98 97//97 100//100
f 99//99 98//98 100//100
f 102//102 101//101 104//104
f 103//103 102//102 104//104
f 106//106 105//105 108//108
f 107//107 106//106 108//108
f 110//110 109//109 112//112
f 111//111 110//110 112//112
f 114//114 113//113 115//115
f 113//113 116//116 115//115
f 119//119 117//117 118//118
f 119//119 120//120 117//117
f 122//122 121//121 124//124
f 123//123 122//122 124//124
f 126//126 125//125 128//128
f 127//127 126//126 128//128
f 130//130 129//129 132//132
f 131//131 130//130 132//132
f 134//134 133//133 136//136
f 135//135 134//134 136//136
f 138//138 137//137 140//140
f 139//139 138//138 140//140
f 142//142 141//141 144//144
f 143//143 142//142 144//144
f 146//146 145//145 148//148
f 147//147 146//146 148//148
f 150//150 149//149 152//152
f 151//151 150//150 152//152
f 153//153 156//156 158//158
f 157//157 153//153 158//158
f 154//154 153//153 160//160
f 153//153 157//157 160//160
f 160//160 159//159 155//155
f 154//154 160//160 155//155
f 158//158 156//156 155//155
f 159//159 158//158 155//155
f 166//166 164//164 161//161
f 166//166 161//161 165//165
f 168//168 161//161 162//162
f 168//168 165//165 161//161
f 163//163 167//167 168//168
f 163//163 168//168 162//162
f 163//163 164//164 166//166
f 163//163 166//166 167//167
