# File generated by IfcOpenShell v0.7.0-f7c03db75
mtllib IfcRoof_0416184708387848.mtl
g product-ca82532d-525f-45bc-8ac6-bf49ad05bd8c-body
s 1
v -50.1536044048085 -4.49054103913909 9.3
v -50.1536044048085 -4.49054103913909 9.45
v -43.4716044048085 -4.49054103913909 9.45
v -43.4716044048085 -4.49054103913909 9.3
v -43.4716044048085 -4.49054103913909 9.3
v -43.4716044048085 -4.49054103913909 9.45
v -43.4716044048085 -5.10054107374883 9.45
v -43.4716044048085 -5.10054107374883 9.3
v -43.4716044048085 -5.10054107374883 9.3
v -43.4716044048085 -5.10054107374883 9.45
v -30.2436044048085 -5.10054107374883 9.45
v -30.2436044048085 -5.10054107374883 9.3
v -30.2436044048085 -5.10054107374883 9.3
v -30.2436044048085 -5.10054107374883 9.45
v -30.2436044048085 3.03445896086134 9.45
v -30.2436044048085 3.03445896086134 9.3
v -30.2436044048085 3.03445896086134 9.3
v -30.2436044048085 3.03445896086134 9.45
v -50.7536044048085 3.03445896086134 9.45
v -50.7536044048085 3.03445896086134 9.3
v -50.7536044048085 3.03445896086134 9.3
v -50.7536044048085 3.03445896086134 9.45
v -50.7536044048085 0.757458960861361 9.45
v -50.7536044048085 0.757458960861361 9.3
v -50.7536044048085 0.757458960861361 9.3
v -50.7536044048085 0.757458960861361 9.45
v -50.1536044048085 0.757458960861361 9.45
v -50.1536044048085 0.757458960861361 9.3
v -50.1536044048085 0.757458960861361 9.3
v -50.1536044048085 0.757458960861361 9.45
v -50.1536044048085 -4.49054103913909 9.45
v -50.1536044048085 -4.49054103913909 9.3
v -50.1536044048085 -4.49054103913909 9.3
v -43.4716044048085 -4.49054103913909 9.3
v -43.4716044048085 -5.10054107374883 9.3
v -30.2436044048085 -5.10054107374883 9.3
v -30.2436044048085 3.03445896086134 9.3
v -50.7536044048085 3.03445896086134 9.3
v -50.7536044048085 0.757458960861361 9.3
v -50.1536044048085 0.757458960861361 9.3
v -50.1536044048085 -4.49054103913909 9.45
v -43.4716044048085 -4.49054103913909 9.45
v -43.4716044048085 -5.10054107374883 9.45
v -30.2436044048085 -5.10054107374883 9.45
v -30.2436044048085 3.03445896086134 9.45
v -50.7536044048085 3.03445896086134 9.45
v -50.7536044048085 0.757458960861361 9.45
v -50.1536044048085 0.757458960861361 9.45
vn 0 -1 0
vn 0 -1 0
vn 0 -1 0
vn 0 -1 0
vn -1 -0 -0
vn -1 -0 -0
vn -1 -0 -0
vn -1 -0 -0
vn 0 -1 0
vn 0 -1 0
vn 0 -1 0
vn 0 -1 0
vn 1 0 0
vn 1 0 0
vn 1 0 0
vn 1 0 0
vn 0 1 0
vn 0 1 0
vn 0 1 0
vn 0 1 0
vn -1 -0 -0
vn -1 -0 -0
vn -1 -0 -0
vn -1 -0 -0
vn 0 -1 0
vn 0 -1 0
vn 0 -1 0
vn 0 -1 0
vn -1 -0 -0
vn -1 -0 -0
vn -1 -0 -0
vn -1 -0 -0
vn -0 -0 -1
vn -0 -0 -1
vn -0 -0 -1
vn -0 -0 -1
vn -0 -0 -1
vn -0 -0 -1
vn -0 -0 -1
vn -0 -0 -1
vn 0 0 1
vn 0 0 1
vn 0 0 1
vn 0 0 1
vn 0 0 1
vn 0 0 1
vn 0 0 1
vn 0 0 1
usemtl IfcSlab
f 2//2 1//1 4//4
f 3//3 2//2 4//4
f 6//6 5//5 8//8
f 7//7 6//6 8//8
f 10//10 9//9 12//12
f 11//11 10//10 12//12
f 14//14 13//13 16//16
f 15//15 14//14 16//16
f 18//18 17//17 20//20
f 19//19 18//18 20//20
f 22//22 21//21 24//24
f 23//23 22//22 24//24
f 26//26 25//25 28//28
f 27//27 26//26 28//28
f 30//30 29//29 32//32
f 31//31 30//30 32//32
f 33//33 40//40 34//34
f 40//40 39//39 38//38
f 34//34 40//40 38//38
f 35//35 34//34 36//36
f 36//36 34//34 37//37
f 34//34 38//38 37//37
f 42//42 48//48 41//41
f 46//46 47//47 48//48
f 46//46 48//48 42//42
f 44//44 42//42 43//43
f 45//45 42//42 44//44
f 45//45 46//46 42//42
