# File generated by IfcOpenShell v0.7.0-f7c03db75
mtllib IfcSlab_0416184700695056.mtl
g product-9726558b-5d3b-4dc6-9dbd-be75233652dd-body
s 1
v -50.7536044048084 0.777458960861256 -0.05
v -50.7536044048084 0.777458960861256 -0.26
v -50.7536044048084 3.03445896086134 -0.26
v -50.7536044048084 3.03445896086134 -0.05
v -50.7536044048084 3.03445896086134 -0.05
v -50.7536044048084 3.03445896086134 -0.26
v -45.3936044048085 3.03445896086134 -0.26
v -45.3936044048085 3.03445896086134 -0.05
v -45.3936044048085 3.03445896086134 -0.05
v -45.3936044048085 3.03445896086134 -0.26
v -45.3936044048085 0.777458960861238 -0.26
v -45.3936044048085 0.777458960861238 -0.05
v -45.3936044048085 0.777458960861238 -0.05
v -45.3936044048085 0.777458960861238 -0.26
v -47.6886044048089 0.777458960861246 -0.26
v -47.6886044048089 0.777458960861246 -0.05
v -47.6886044048089 0.777458960861246 -0.05
v -47.6886044048089 0.777458960861246 -0.26
v -47.6886044048089 0.614458960861326 -0.26
v -47.6886044048089 0.614458960861326 -0.05
v -47.6886044048089 0.614458960861326 -0.05
v -47.6886044048089 0.614458960861326 -0.26
v -48.9886044048089 0.614458960861326 -0.26
v -48.9886044048089 0.614458960861326 -0.05
v -48.9886044048089 0.614458960861326 -0.05
v -48.9886044048089 0.614458960861326 -0.26
v -48.9886044048089 0.77745896086125 -0.26
v -48.9886044048089 0.77745896086125 -0.05
v -48.9886044048089 0.77745896086125 -0.05
v -48.9886044048089 0.77745896086125 -0.26
v -50.7536044048084 0.777458960861256 -0.26
v -50.7536044048084 0.777458960861256 -0.05
v -50.7536044048084 0.777458960861256 -0.05
v -50.7536044048084 3.03445896086134 -0.05
v -45.3936044048085 3.03445896086134 -0.05
v -45.3936044048085 0.777458960861238 -0.05
v -47.6886044048089 0.777458960861246 -0.05
v -47.6886044048089 0.614458960861326 -0.05
v -48.9886044048089 0.614458960861326 -0.05
v -48.9886044048089 0.77745896086125 -0.05
v -50.7536044048084 0.777458960861256 -0.26
v -50.7536044048084 3.03445896086134 -0.26
v -45.3936044048085 3.03445896086134 -0.26
v -45.3936044048085 0.777458960861238 -0.26
v -47.6886044048089 0.777458960861246 -0.26
v -47.6886044048089 0.614458960861326 -0.26
v -48.9886044048089 0.614458960861326 -0.26
v -48.9886044048089 0.77745896086125 -0.26
vn -1 -0 -0
vn -1 -0 -0
vn -1 -0 -0
vn -1 -0 -0
vn 0 1 0
vn 0 1 0
vn 0 1 0
vn 0 1 0
vn 1 0 0
vn 1 0 0
vn 1 0 0
vn 1 0 0
vn -3.4346768953538e-15 -1 0
vn -3.4346768953538e-15 -1 0
vn -3.4346768953538e-15 -1 0
vn -3.4346768953538e-15 -1 0
vn 1 0 0
vn 1 0 0
vn 1 0 0
vn 1 0 0
vn 0 -1 0
vn 0 -1 0
vn 0 -1 0
vn 0 -1 0
vn -1 -0 -0
vn -1 -0 -0
vn -1 -0 -0
vn -1 -0 -0
vn -3.39671633596461e-15 -1 0
vn -3.39671633596461e-15 -1 0
vn -3.39671633596461e-15 -1 0
vn -3.39671633596461e-15 -1 0
vn 0 0 1
vn 0 0 1
vn 0 0 1
vn 0 0 1
vn 0 0 1
vn 0 0 1
vn 0 0 1
vn 0 0 1
vn 0 0 -1
vn 0 0 -1
vn 0 0 -1
vn 0 0 -1
vn 0 0 -1
vn 0 0 -1
vn 0 0 -1
vn 0 0 -1
usemtl IfcSlab
f 2//2 1//1 4//4
f 3//3 2//2 4//4
f 6//6 5//5 8//8
f 7//7 6//6 8//8
f 10//10 9//9 12//12
f 11//11 10//10 12//12
f 14//14 13//13 16//16
f 15//15 14//14 16//16
f 18//18 17//17 20//20
f 19//19 18//18 20//20
f 22//22 21//21 24//24
f 23//23 22//22 24//24
f 26//26 25//25 28//28
f 27//27 26//26 28//28
f 30//30 29//29 32//32
f 31//31 30//30 32//32
f 33//33 40//40 34//34
f 39//39 38//38 37//37
f 40//40 39//39 37//37
f 34//34 40//40 37//37
f 37//37 36//36 35//35
f 34//34 37//37 35//35
f 42//42 48//48 41//41
f 45//45 46//46 47//47
f 45//45 47//47 48//48
f 45//45 48//48 42//42
f 43//43 44//44 45//45
f 43//43 45//45 42//42
