# File generated by IfcOpenShell v0.7.0-f7c03db75
mtllib IfcCovering_0416184707534625.mtl
g product-038d3a0b-7792-4b15-b948-dd8a5e160882-body
s 1
v 3.2718302065541 2.20439045759024 0
v 3.2718302065541 2.20439045759024 0.00999999999999989
v -9.99200722162641e-15 2.20439045759024 0.00999999999999989
v -9.99200722162641e-15 2.20439045759024 0
v -9.99200722162641e-15 2.20439045759024 0
v -9.99200722162641e-15 2.20439045759024 0.00999999999999989
v -9.99200722162641e-15 0 0.00999999999999989
v -9.99200722162641e-15 0 0
v -9.99200722162641e-15 0 0
v -9.99200722162641e-15 0 0.00999999999999989
v 3.2718302065541 0 0.00999999999999989
v 3.2718302065541 0 0
v 3.2718302065541 0 0
v 3.2718302065541 0 0.00999999999999989
v 3.2718302065541 2.20439045759024 0.00999999999999989
v 3.2718302065541 2.20439045759024 0
v 0.79482115112714 1.26623871943095 0
v 0.79482115112714 1.26623871943095 0.00999999999999989
v 0.79482115112714 1.00623871943096 0.00999999999999989
v 0.79482115112714 1.00623871943096 0
v 0.79482115112714 1.00623871943096 0
v 0.79482115112714 1.00623871943096 0.00999999999999989
v 0.53482115112714 1.00623871943096 0.00999999999999989
v 0.53482115112714 1.00623871943096 0
v 0.53482115112714 1.00623871943096 0
v 0.53482115112714 1.00623871943096 0.00999999999999989
v 0.53482115112714 1.26623871943095 0.00999999999999989
v 0.53482115112714 1.26623871943095 0
v 0.53482115112714 1.26623871943095 0
v 0.53482115112714 1.26623871943095 0.00999999999999989
v 0.79482115112714 1.26623871943095 0.00999999999999989
v 0.79482115112714 1.26623871943095 0
v 2.80482115112713 1.26623871943095 0
v 2.80482115112713 1.26623871943095 0.00999999999999989
v 2.80482115112713 1.00623871943096 0.00999999999999989
v 2.80482115112713 1.00623871943096 0
v 2.80482115112713 1.00623871943096 0
v 2.80482115112713 1.00623871943096 0.00999999999999989
v 2.54482115112712 1.00623871943096 0.00999999999999989
v 2.54482115112712 1.00623871943096 0
v 2.54482115112712 1.00623871943096 0
v 2.54482115112712 1.00623871943096 0.00999999999999989
v 2.54482115112712 1.26623871943095 0.00999999999999989
v 2.54482115112712 1.26623871943095 0
v 2.54482115112712 1.26623871943095 0
v 2.54482115112712 1.26623871943095 0.00999999999999989
v 2.80482115112713 1.26623871943095 0.00999999999999989
v 2.80482115112713 1.26623871943095 0
v 3.2718302065541 2.20439045759024 0
v -9.99200722162641e-15 2.20439045759024 0
v -9.99200722162641e-15 0 0
v 3.2718302065541 0 0
v 0.79482115112714 1.26623871943095 0
v 0.79482115112714 1.00623871943096 0
v 0.53482115112714 1.00623871943096 0
v 0.53482115112714 1.26623871943095 0
v 2.80482115112713 1.26623871943095 0
v 2.80482115112713 1.00623871943096 0
v 2.54482115112712 1.00623871943096 0
v 2.54482115112712 1.26623871943095 0
v 3.2718302065541 2.20439045759024 0.00999999999999989
v -9.99200722162641e-15 2.20439045759024 0.00999999999999989
v -9.99200722162641e-15 0 0.00999999999999989
v 3.2718302065541 0 0.00999999999999989
v 0.79482115112714 1.26623871943095 0.00999999999999989
v 0.79482115112714 1.00623871943096 0.00999999999999989
v 0.53482115112714 1.00623871943096 0.00999999999999989
v 0.53482115112714 1.26623871943095 0.00999999999999989
v 2.80482115112713 1.26623871943095 0.00999999999999989
v 2.80482115112713 1.00623871943096 0.00999999999999989
v 2.54482115112712 1.00623871943096 0.00999999999999989
v 2.54482115112712 1.26623871943095 0.00999999999999989
vn 0 1 0
vn 0 1 0
vn 0 1 0
vn 0 1 0
vn -1 -0 -0
vn -1 -0 -0
vn -1 -0 -0
vn -1 -0 -0
vn 0 -1 0
vn 0 -1 0
vn 0 -1 0
vn 0 -1 0
vn 1 0 0
vn 1 0 0
vn 1 0 0
vn 1 0 0
vn -1 -0 -0
vn -1 -0 -0
vn -1 -0 -0
vn -1 -0 -0
vn 0 1 0
vn 0 1 0
vn 0 1 0
vn 0 1 0
vn 1 0 0
vn 1 0 0
vn 1 0 0
vn 1 0 0
vn 0 -1 0
vn 0 -1 0
vn 0 -1 0
vn 0 -1 0
vn -1 -0 -0
vn -1 -0 -0
vn -1 -0 -0
vn -1 -0 -0
vn 0 1 0
vn 0 1 0
vn 0 1 0
vn 0 1 0
vn 1 0 0
vn 1 0 0
vn 1 0 0
vn 1 0 0
vn 0 -1 0
vn 0 -1 0
vn 0 -1 0
vn 0 -1 0
vn -0 -0 -1
vn -0 -0 -1
vn -0 -0 -1
vn -0 -0 -1
vn -0 -0 -1
vn -0 -0 -1
vn -0 -0 -1
vn -0 -0 -1
vn -0 -0 -1
vn -0 -0 -1
vn -0 -0 -1
vn -0 -0 -1
vn 0 0 1
vn 0 0 1
vn 0 0 1
vn 0 0 1
vn 0 0 1
vn 0 0 1
vn 0 0 1
vn 0 0 1
vn 0 0 1
vn 0 0 1
vn 0 0 1
vn 0 0 1
usemtl DefaultMaterial
f 2//2 1//1 4//4
f 3//3 2//2 4//4
f 6//6 5//5 8//8
f 7//7 6//6 8//8
f 10//10 9//9 12//12
f 11//11 10//10 12//12
f 14//14 13//13 16//16
f 15//15 14//14 16//16
f 18//18 17//17 20//20
f 19//19 18//18 20//20
f 22//22 21//21 24//24
f 23//23 22//22 24//24
f 26//26 25//25 28//28
f 27//27 26//26 28//28
f 30//30 29//29 32//32
f 31//31 30//30 32//32
f 34//34 33//33 36//36
f 35//35 34//34 36//36
f 38//38 37//37 40//40
f 39//39 38//38 40//40
f 42//42 41//41 44//44
f 43//43 42//42 44//44
f 46//46 45//45 48//48
f 47//47 46//46 48//48
f 57//57 49//49 58//58
f 49//49 57//57 60//60
f 59//59 58//58 52//52
f 58//58 49//49 52//52
f 50//50 49//49 53//53
f 49//49 60//60 53//53
f 60//60 59//59 54//54
f 59//59 52//52 54//54
f 53//53 60//60 54//54
f 50//50 53//53 56//56
f 50//50 56//56 55//55
f 55//55 54//54 51//51
f 54//54 52//52 51//51
f 50//50 55//55 51//51
f 70//70 61//61 69//69
f 72//72 69//69 61//61
f 64//64 70//70 71//71
f 64//64 61//61 70//70
f 65//65 61//61 62//62
f 65//65 72//72 61//61
f 66//66 71//71 72//72
f 66//66 64//64 71//71
f 66//66 72//72 65//65
f 68//68 65//65 62//62
f 67//67 68//68 62//62
f 63//63 66//66 67//67
f 63//63 64//64 66//66
f 63//63 67//67 62//62
