# File generated by IfcOpenShell v0.7.0-f7c03db75
mtllib IfcCovering_0416184707411005.mtl
g product-2dce9102-564c-4f8c-a445-5097d2c8371d-body
s 1
v 0 2.70172458045212 0
v 0 1.35172458045219 0
v 0 0.00159527223594351 0
v 0 0.00159527223594568 0.0447312037092468
v 0 0.123747063923783 0.0790581870150531
v 0 0.246769504160457 0.110120723834198
v 0 0.370575368784591 0.137896790512139
v 0 0.495076878178951 0.162366693535093
v 0 0.620185759507086 0.183513083492938
v 0 0.745813309299668 0.201320967380117
v 0 0.871870456346149 0.215777719225831
v 0 0.998267824847162 0.226873089045983
v 0 1.12491579778287 0.234599210110522
v 0 1.25172458045234 0.238950604521033
v 0 1.25172458045239 0.28
v 0 1.45172458045196 0.28
v 0 1.45172458045195 0.238950604521041
v 0 1.57851989511206 0.23459985185809
v 0 1.70515444375745 0.226875089216456
v 0 1.83153846028452 0.215781792367569
v 0 1.95758235618173 0.201327824900353
v 0 2.08319678403531 0.183523432647047
v 0 2.20829270086397 0.16238123642035
v 0 2.3327814312379 0.137916223067036
v 0 2.45657473013718 0.110145734844385
v 0 2.5795848455051 0.0790894571269627
v 0 2.70172458045206 0.0447694044524455
v 0.03 2.70172458045212 0
v 0.03 2.70172458045212 0.0447694044524368
v 0.03 2.57958484550516 0.0790894571269458
v 0.03 2.45657473013723 0.110145734844372
v 0.03 2.33278143123794 0.137916223067027
v 0.03 2.208292700864 0.162381236420344
v 0.03 2.08319678403533 0.183523432647044
v 0.03 1.95758235618174 0.201327824900351
v 0.03 1.83153846028452 0.215781792367569
v 0.03 1.70515444375744 0.226875089216457
v 0.03 1.57851989511204 0.234599851858091
v 0.03 1.45172458045192 0.238950604521042
v 0.03 1.45172458045196 0.28
v 0.03 1.25172458045239 0.28
v 0.03 1.2517245804524 0.238950604521033
v 0.03 1.12491579778293 0.234599210110525
v 0.03 0.998267824847214 0.226873089045987
v 0.03 0.871870456346192 0.215777719225835
v 0.03 0.745813309299701 0.201320967380122
v 0.03 0.62018575950711 0.183513083492943
v 0.03 0.495076878178966 0.162366693535096
v 0.03 0.370575368784596 0.13789679051214
v 0.03 0.246769504160453 0.110120723834197
v 0.03 0.12374706392377 0.0790581870150504
v 0.03 0.00159527223591698 0.0447312037092393
v 0.03 0.00159527223594351 0
v 0.03 1.35172458045219 0
v 0 2.70172458045212 0
v 0 1.35172458045219 0
v 0.03 2.70172458045212 0
v 0.03 1.35172458045219 0
v 0 1.35172458045219 0
v 0 0.00159527223594351 0
v 0.03 1.35172458045219 0
v 0.03 0.00159527223594351 0
v 0 0.00159527223594351 0
v 0 0.00159527223594568 0.0447312037092468
v 0.03 0.00159527223594351 0
v 0.03 0.00159527223591698 0.0447312037092393
v 0 0.00159527223594568 0.0447312037092468
v 0 0.123747063923783 0.0790581870150531
v 0 0.246769504160457 0.110120723834198
v 0 0.370575368784591 0.137896790512139
v 0 0.495076878178951 0.162366693535093
v 0 0.620185759507086 0.183513083492938
v 0 0.745813309299668 0.201320967380117
v 0 0.871870456346149 0.215777719225831
v 0 0.998267824847162 0.226873089045983
v 0 1.12491579778287 0.234599210110522
v 0 1.25172458045234 0.238950604521033
v 0.03 0.00159527223591698 0.0447312037092393
v 0.03 1.2517245804524 0.238950604521033
v 0.03 1.12491579778293 0.234599210110525
v 0.03 0.998267824847214 0.226873089045987
v 0.03 0.871870456346192 0.215777719225835
v 0.03 0.745813309299701 0.201320967380122
v 0.03 0.62018575950711 0.183513083492943
v 0.03 0.495076878178966 0.162366693535096
v 0.03 0.370575368784596 0.13789679051214
v 0.03 0.246769504160453 0.110120723834197
v 0.03 0.12374706392377 0.0790581870150504
v 0 1.25172458045234 0.238950604521033
v 0 1.25172458045239 0.28
v 0.03 1.2517245804524 0.238950604521033
v 0.03 1.25172458045239 0.28
v 0 1.25172458045239 0.28
v 0 1.45172458045196 0.28
v 0.03 1.25172458045239 0.28
v 0.03 1.45172458045196 0.28
v 0 1.45172458045196 0.28
v 0 1.45172458045195 0.238950604521041
v 0.03 1.45172458045196 0.28
v 0.03 1.45172458045192 0.238950604521042
v 0 1.45172458045195 0.238950604521041
v 0 1.57851989511206 0.23459985185809
v 0 1.70515444375745 0.226875089216456
v 0 1.83153846028452 0.215781792367569
v 0 1.95758235618173 0.201327824900353
v 0 2.08319678403531 0.183523432647047
v 0 2.20829270086397 0.16238123642035
v 0 2.3327814312379 0.137916223067036
v 0 2.45657473013718 0.110145734844385
v 0 2.5795848455051 0.0790894571269627
v 0 2.70172458045206 0.0447694044524455
v 0.03 1.45172458045192 0.238950604521042
v 0.03 2.70172458045212 0.0447694044524368
v 0.03 2.57958484550516 0.0790894571269458
v 0.03 2.45657473013723 0.110145734844372
v 0.03 2.33278143123794 0.137916223067027
v 0.03 2.208292700864 0.162381236420344
v 0.03 2.08319678403533 0.183523432647044
v 0.03 1.95758235618174 0.201327824900351
v 0.03 1.83153846028452 0.215781792367569
v 0.03 1.70515444375744 0.226875089216457
v 0.03 1.57851989511204 0.234599851858091
v 0 2.70172458045206 0.0447694044524455
v 0 2.70172458045212 0
v 0.03 2.70172458045212 0.0447694044524368
v 0.03 2.70172458045212 0
vn -1 0 0
vn -1 0 0
vn -1 0 0
vn -1 0 0
vn -1 0 0
vn -1 0 0
vn -1 0 0
vn -1 0 0
vn -1 0 0
vn -1 0 0
vn -1 0 0
vn -1 0 0
vn -1 0 0
vn -1 0 0
vn -1 0 0
vn -1 0 0
vn -1 0 0
vn -1 0 0
vn -1 0 0
vn -1 0 0
vn -1 0 0
vn -1 0 0
vn -1 0 0
vn -1 0 0
vn -1 0 0
vn -1 0 0
vn -1 0 0
vn 1 0 0
vn 1 0 0
vn 1 0 0
vn 1 0 0
vn 1 0 0
vn 1 0 0
vn 1 0 0
vn 1 0 0
vn 1 0 0
vn 1 0 0
vn 1 0 0
vn 1 0 0
vn 1 0 0
vn 1 0 0
vn 1 0 0
vn 1 0 0
vn 1 0 0
vn 1 0 0
vn 1 0 0
vn 1 0 0
vn 1 0 0
vn 1 0 0
vn 1 0 0
vn 1 0 0
vn 1 0 0
vn 1 0 0
vn 1 0 0
vn 0 0 -1
vn 0 0 -1
vn 0 0 -1
vn 0 0 -1
vn 0 0 -1
vn 0 0 -1
vn 0 0 -1
vn 0 0 -1
vn 0 -1 0
vn 0 -1 0
vn 0 -1 0
vn 0 -1 0
vn 0 -0.283332716300066 0.959021674350495
vn 0 -0.257698431695458 0.966225397255579
vn 0 -0.231881436281763 0.972744056526642
vn 0 -0.205900034571305 0.978573030367962
vn 0 -0.179772647642151 0.983708185977798
vn 0 -0.153517800077373 0.988145882478596
vn 0 -0.127154106830927 0.991882973498401
vn 0 -0.10070026002947 0.994916809401669
vn 0 -0.0741750157194402 0.997245239167889
vn 0 -0.0475971805688403 0.998866611916675
vn 0 -0.0209855985330967 0.999779778078256
vn 0 -0.283332716300066 0.959021674350495
vn 0 -0.0209855985330967 0.999779778078256
vn 0 -0.047597180568827 0.998866611916676
vn 0 -0.0741750157194295 0.99724523916789
vn 0 -0.100700260029461 0.99491680940167
vn 0 -0.12715410683092 0.991882973498402
vn 0 -0.153517800077368 0.988145882478597
vn 0 -0.179772647642149 0.983708185977799
vn 0 -0.205900034571304 0.978573030367962
vn 0 -0.231881436281764 0.972744056526642
vn 0 -0.257698431695461 0.966225397255578
vn 0 -1 0
vn 0 -1 0
vn 0 -1 0
vn 0 -1 0
vn 0 0 1
vn 0 0 1
vn 0 0 1
vn 0 0 1
vn 0 1 0
vn 0 1 0
vn 0 1 0
vn 0 1 0
vn 0 0.0209855985330085 0.999779778078258
vn 0 0.0475943542263706 0.998866746591243
vn 0 0.0741693722092991 0.997245658915635
vn 0 0.10069181452768 0.994917664174842
vn 0 0.127142880496151 0.991884412590067
vn 0 0.153503820025157 0.988148054310529
vn 0 0.179755946912124 0.983711237889313
vn 0 0.205880652087355 0.978577108405917
vn 0 0.231859416805242 0.972749305236829
vn 0 0.257673825771461 0.966231959475725
vn 0 0.283305580196837 0.959029691005098
vn 0 0.0209855985330085 0.999779778078258
vn 0 0.283305580196837 0.959029691005098
vn 0 0.257673825771474 0.966231959475721
vn 0 0.231859416805253 0.972749305236826
vn 0 0.205880652087363 0.978577108405915
vn 0 0.17975594691213 0.983711237889312
vn 0 0.153503820025162 0.988148054310528
vn 0 0.127142880496154 0.991884412590066
vn 0 0.10069181452768 0.994917664174842
vn 0 0.0741693722092964 0.997245658915635
vn 0 0.0475943542263662 0.998866746591243
vn 0 1 0
vn 0 1 0
vn 0 1 0
vn 0 1 0
usemtl DefaultMaterial
f 26//26 27//27 1//1
f 25//25 26//26 1//1
f 24//24 25//25 1//1
f 2//2 19//19 20//20
f 2//2 20//20 21//21
f 2//2 21//21 22//22
f 2//2 22//22 23//23
f 2//2 23//23 24//24
f 2//2 24//24 1//1
f 18//18 19//19 2//2
f 17//17 18//18 2//2
f 14//14 17//17 2//2
f 15//15 16//16 17//17
f 15//15 17//17 14//14
f 13//13 14//14 2//2
f 12//12 13//13 2//2
f 11//11 12//12 2//2
f 10//10 11//11 2//2
f 9//9 10//10 2//2
f 8//8 9//9 2//2
f 7//7 8//8 2//2
f 3//3 5//5 6//6
f 3//3 6//6 7//7
f 3//3 7//7 2//2
f 4//4 5//5 3//3
f 51//51 52//52 53//53
f 50//50 51//51 53//53
f 49//49 50//50 53//53
f 54//54 44//44 45//45
f 54//54 45//45 46//46
f 54//54 46//46 47//47
f 54//54 47//47 48//48
f 54//54 48//48 49//49
f 54//54 49//49 53//53
f 43//43 44//44 54//54
f 42//42 43//43 54//54
f 39//39 41//41 42//42
f 39//39 42//42 54//54
f 40//40 41//41 39//39
f 38//38 39//39 54//54
f 37//37 38//38 54//54
f 36//36 37//37 54//54
f 35//35 36//36 54//54
f 34//34 35//35 54//54
f 33//33 34//34 54//54
f 32//32 33//33 54//54
f 28//28 30//30 31//31
f 28//28 31//31 32//32
f 28//28 32//32 54//54
f 29//29 30//30 28//28
f 58//58 56//56 55//55
f 58//58 55//55 57//57
f 62//62 60//60 59//59
f 62//62 59//59 61//61
f 66//66 64//64 63//63
f 66//66 63//63 65//65
f 67//67 78//78 88//88
f 68//68 88//88 87//87
f 68//68 67//67 88//88
f 69//69 68//68 87//87
f 70//70 87//87 86//86
f 70//70 69//69 87//87
f 71//71 86//86 85//85
f 71//71 70//70 86//86
f 72//72 85//85 84//84
f 72//72 71//71 85//85
f 73//73 84//84 83//83
f 73//73 72//72 84//84
f 74//74 83//83 82//82
f 74//74 73//73 83//83
f 75//75 82//82 81//81
f 75//75 74//74 82//82
f 76//76 81//81 80//80
f 76//76 75//75 81//81
f 77//77 80//80 79//79
f 77//77 76//76 80//80
f 92//92 90//90 89//89
f 92//92 89//89 91//91
f 96//96 94//94 93//93
f 96//96 93//93 95//95
f 100//100 98//98 97//97
f 100//100 97//97 99//99
f 101//101 112//112 122//122
f 102//102 122//122 121//121
f 102//102 101//101 122//122
f 103//103 121//121 120//120
f 103//103 102//102 121//121
f 104//104 103//103 120//120
f 105//105 120//120 119//119
f 105//105 104//104 120//120
f 106//106 119//119 118//118
f 106//106 105//105 119//119
f 107//107 118//118 117//117
f 107//107 106//106 118//118
f 108//108 117//117 116//116
f 108//108 107//107 117//117
f 109//109 116//116 115//115
f 109//109 108//108 116//116
f 110//110 115//115 114//114
f 110//110 109//109 115//115
f 111//111 114//114 113//113
f 111//111 110//110 114//114
f 126//126 124//124 123//123
f 126//126 123//123 125//125
