# File generated by IfcOpenShell v0.7.0-f7c03db75
mtllib IfcWallStandardCase_0416184706336915.mtl
g product-f98688c4-5d7a-4391-9a8d-c945249f5c4e-body
s 1
v 13.237 0.00749999999999993 0
v 13.237 0.00749999999999993 3.5
v 0 0.00749999999999993 3.5
v 0 0.00749999999999993 0
v 0 0.00749999999999993 0
v 0 0.00749999999999993 3.5
v 0 -0.00749999999999987 3.5
v 0 -0.00749999999999987 0
v 0 -0.00749999999999987 0
v 0 -0.00749999999999987 3.5
v 13.237 -0.00749999999999987 3.5
v 13.237 -0.00749999999999987 0
v 13.237 -0.00749999999999987 0
v 13.237 -0.00749999999999987 3.5
v 13.237 0.00749999999999993 3.5
v 13.237 0.00749999999999993 0
v 13.237 0.00749999999999993 0
v 0 0.00749999999999993 0
v 0 -0.00749999999999987 0
v 13.237 -0.00749999999999987 0
v 13.237 0.00749999999999993 3.5
v 0 0.00749999999999993 3.5
v 0 -0.00749999999999987 3.5
v 13.237 -0.00749999999999987 3.5
vn 0 1 0
vn 0 1 0
vn 0 1 0
vn 0 1 0
vn -1 -0 -0
vn -1 -0 -0
vn -1 -0 -0
vn -1 -0 -0
vn 0 -1 0
vn 0 -1 0
vn 0 -1 0
vn 0 -1 0
vn 1 0 0
vn 1 0 0
vn 1 0 0
vn 1 0 0
vn -0 -0 -1
vn -0 -0 -1
vn -0 -0 -1
vn -0 -0 -1
vn 0 0 1
vn 0 0 1
vn 0 0 1
vn 0 0 1
usemtl IfcWallStandardCase
f 2//2 1//1 4//4
f 3//3 2//2 4//4
f 6//6 5//5 8//8
f 7//7 6//6 8//8
f 10//10 9//9 12//12
f 11//11 10//10 12//12
f 14//14 13//13 16//16
f 15//15 14//14 16//16
f 19//19 18//18 17//17
f 20//20 19//19 17//17
f 21//21 22//22 23//23
f 21//21 23//23 24//24
