# File generated by IfcOpenShell v0.7.0-f7c03db75
mtllib IfcWallStandardCase_0416184708415788.mtl
g product-af2a45ba-8505-4107-af48-e5b161ddc43a-body
s 1
v 4.88498130835069e-15 -0.143 0
v 9.76996261670138e-15 -0.143 0.79
v 4.88498130835069e-15 0.143 0
v 4.88498130835069e-15 0.143 6.74999999999764
v 4.88498130835069e-15 -0.143 6.74999999999764
v 9.76996261670138e-15 -0.143 1
v 9.76996261670138e-15 -0.02 1
v 9.76996261670138e-15 -0.02 0.79
v 4.88498130835069e-15 -0.143 0
v 9.76996261670138e-15 -0.143 0.79
v 5.07399999999997 -0.143 0
v 5.07399999999998 -0.143 0.79
v 2.15200000000048 -0.02 0.79
v 9.76996261670138e-15 -0.02 0.79
v 9.76996261670138e-15 -0.143 0.79
v 5.07399999999998 -0.143 0.79
v 5.07399999999998 -0.02 0.79
v 3.45200000000048 -0.02 0.79
v 3.45200000000048 0.143 0.79
v 2.15200000000048 0.143 0.79
v 2.15200000000048 -0.02 0.79
v 2.15200000000048 -0.02 1
v 9.76996261670138e-15 -0.02 1
v 9.76996261670138e-15 -0.02 0.79
v 2.15200000000048 -0.02 1
v 9.76996261670138e-15 -0.02 1
v 9.76996261670138e-15 -0.143 1
v 5.07399999999998 -0.143 1
v 5.07399999999998 -0.02 1
v 3.45200000000048 -0.02 1
v 3.45200000000048 0.143 1
v 2.15200000000048 0.143 1
v 9.76996261670138e-15 -0.143 1
v 4.88498130835069e-15 -0.143 6.74999999999764
v 5.07399999999998 -0.143 1
v 5.07399999999997 -0.143 6.74999999999764
v 3.452 -0.143 1.05
v 3.452 -0.143 3.34999999999998
v 2.152 -0.143 1.05
v 2.152 -0.143 3.34999999999998
v 4.88498130835069e-15 -0.143 6.74999999999764
v 4.88498130835069e-15 0.143 6.74999999999764
v 5.07399999999997 0.143 6.74999999999764
v 5.07399999999997 -0.143 6.74999999999764
v 4.88498130835069e-15 0.143 0
v 4.88498130835069e-15 0.143 6.74999999999764
v 5.07399999999997 0.143 0
v 5.07399999999997 0.143 6.74999999999764
v 3.452 0.143 1.05
v 3.452 0.143 3.34999999999998
v 2.152 0.143 1.05
v 2.152 0.143 3.34999999999998
v 3.45200000000048 0.143 0.79
v 3.45200000000048 0.143 1
v 2.15200000000048 0.143 0.79
v 2.15200000000048 0.143 1
v 4.88498130835069e-15 -0.143 0
v 4.88498130835069e-15 0.143 0
v 5.07399999999997 0.143 0
v 5.07399999999997 -0.143 0
v 5.07399999999997 -0.143 0
v 5.07399999999998 -0.143 0.79
v 5.07399999999997 0.143 0
v 5.07399999999997 0.143 6.74999999999764
v 5.07399999999997 -0.143 6.74999999999764
v 5.07399999999998 -0.143 1
v 5.07399999999998 -0.02 1
v 5.07399999999998 -0.02 0.79
v 5.07399999999998 -0.02 0.79
v 5.07399999999998 -0.02 1
v 3.45200000000048 -0.02 1
v 3.45200000000048 -0.02 0.79
v 3.45200000000048 -0.02 0.79
v 3.45200000000048 -0.02 1
v 3.45200000000048 0.143 1
v 3.45200000000048 0.143 0.79
v 2.15200000000048 0.143 0.79
v 2.15200000000048 0.143 1
v 2.15200000000048 -0.02 1
v 2.15200000000048 -0.02 0.79
v 3.452 -0.143 1.05
v 3.452 0.143 1.05
v 3.452 0.143 3.34999999999998
v 3.452 -0.143 3.34999999999998
v 2.152 -0.143 1.05
v 2.152 0.143 1.05
v 3.452 0.143 1.05
v 3.452 -0.143 1.05
v 3.452 -0.143 3.34999999999998
v 3.452 0.143 3.34999999999998
v 2.152 0.143 3.34999999999998
v 2.152 -0.143 3.34999999999998
v 2.152 -0.143 3.34999999999998
v 2.152 0.143 3.34999999999998
v 2.152 0.143 1.05
v 2.152 -0.143 1.05
vn -1 0 0
vn -1 0 0
vn -1 0 0
vn -1 0 0
vn -1 0 0
vn -1 0 0
vn -1 0 0
vn -1 0 0
vn 0 -1 0
vn 0 -1 0
vn 0 -1 0
vn 0 -1 0
vn 0 0 1
vn 0 0 1
vn 0 0 1
vn 0 0 1
vn 0 0 1
vn 0 0 1
vn 0 0 1
vn 0 0 1
vn -0 -1 -0
vn -0 -1 -0
vn -0 -1 -0
vn -0 -1 -0
vn -0 -0 -1
vn -0 -0 -1
vn -0 -0 -1
vn -0 -0 -1
vn -0 -0 -1
vn -0 -0 -1
vn -0 -0 -1
vn -0 -0 -1
vn 0 -1 0
vn 0 -1 0
vn 0 -1 0
vn 0 -1 0
vn 0 -1 0
vn 0 -1 0
vn 0 -1 0
vn 0 -1 0
vn 0 0 1
vn 0 0 1
vn 0 0 1
vn 0 0 1
vn 0 1 0
vn 0 1 0
vn 0 1 0
vn 0 1 0
vn 0 1 0
vn 0 1 0
vn 0 1 0
vn 0 1 0
vn 0 1 0
vn 0 1 0
vn 0 1 0
vn 0 1 0
vn 0 0 -1
vn 0 0 -1
vn 0 0 -1
vn 0 0 -1
vn 1 0 0
vn 1 0 0
vn 1 0 0
vn 1 0 0
vn 1 0 0
vn 1 0 0
vn 1 0 0
vn 1 0 0
vn -0 -1 -0
vn -0 -1 -0
vn -0 -1 -0
vn -0 -1 -0
vn -1 -6.1300657801389e-15 0
vn -1 -6.1300657801389e-15 0
vn -1 -6.1300657801389e-15 0
vn -1 -6.1300657801389e-15 0
vn 1 6.1300657801389e-15 0
vn 1 6.1300657801389e-15 0
vn 1 6.1300657801389e-15 0
vn 1 6.1300657801389e-15 0
vn -1 0 0
vn -1 0 0
vn -1 0 0
vn -1 0 0
vn 0 0 1
vn 0 0 1
vn 0 0 1
vn 0 0 1
vn -0 -0 -1
vn -0 -0 -1
vn -0 -0 -1
vn -0 -0 -1
vn 1 0 0
vn 1 0 0
vn 1 0 0
vn 1 0 0
usemtl IfcWallStandardCase
f 3//3 1//1 8//8
f 8//8 1//1 2//2
f 3//3 8//8 7//7
f 3//3 7//7 4//4
f 7//7 6//6 5//5
f 4//4 7//7 5//5
f 11//11 10//10 9//9
f 11//11 12//12 10//10
f 18//18 16//16 17//17
f 13//13 18//18 19//19
f 13//13 19//19 20//20
f 15//15 13//13 14//14
f 15//15 16//16 18//18
f 15//15 18//18 13//13
f 24//24 21//21 22//22
f 24//24 22//22 23//23
f 29//29 28//28 30//30
f 31//31 30//30 25//25
f 32//32 31//31 25//25
f 26//26 25//25 27//27
f 30//30 28//28 27//27
f 25//25 30//30 27//27
f 40//40 36//36 34//34
f 33//33 40//40 34//34
f 38//38 36//36 40//40
f 39//39 40//40 33//33
f 35//35 38//38 37//37
f 35//35 36//36 38//38
f 33//33 35//35 37//37
f 33//33 37//37 39//39
f 42//42 41//41 44//44
f 43//43 42//42 44//44
f 46//46 48//48 52//52
f 46//46 52//52 45//45
f 52//52 48//48 50//50
f 45//45 52//52 51//51
f 45//45 51//51 56//56
f 45//45 56//56 55//55
f 56//56 51//51 49//49
f 56//56 49//49 54//54
f 49//49 50//50 47//47
f 53//53 54//54 47//47
f 55//55 53//53 47//47
f 45//45 55//55 47//47
f 54//54 49//49 47//47
f 50//50 48//48 47//47
f 60//60 57//57 58//58
f 60//60 58//58 59//59
f 68//68 61//61 63//63
f 62//62 61//61 68//68
f 67//67 68//68 63//63
f 64//64 67//67 63//63
f 65//65 66//66 67//67
f 65//65 67//67 64//64
f 72//72 69//69 70//70
f 72//72 70//70 71//71
f 76//76 73//73 74//74
f 76//76 74//74 75//75
f 80//80 77//77 78//78
f 80//80 78//78 79//79
f 82//82 81//81 84//84
f 83//83 82//82 84//84
f 86//86 85//85 88//88
f 87//87 86//86 88//88
f 90//90 89//89 92//92
f 91//91 90//90 92//92
f 94//94 93//93 96//96
f 95//95 94//94 96//96
