# File generated by IfcOpenShell v0.7.0-f7c03db75
mtllib IfcWallStandardCase_0416184708484229.mtl
g product-af2a45ba-8505-4107-af48-e5b161ddc7bc-body
s 1
v 0.811999999999527 0.129999999999997 0
v -4.44089209850063e-16 0.129999999999997 0
v 0.811999999999527 0.129999999999996 0.8
v 0.681999999999517 0.129999999999996 0.8
v 0.681999999999517 0.129999999999996 1
v 0.811999999999527 0.129999999999996 1
v 0.811999999999527 0.129999999999997 2
v 0.36 0.129999999999996 2
v 0.36 0.129999999999997 4.35
v 0.811999999999527 0.129999999999997 4.35
v 0.811999999999527 0.129999999999997 6.69999999999764
v -4.44089209850063e-16 0.129999999999997 6.69999999999764
v 0.811999999999527 0.129999999999997 0
v -4.44089209850063e-16 0.129999999999997 0
v -4.44089209850063e-16 -0.129999999999997 0
v 0.811999999999527 -0.129999999999997 0
v -4.44089209850063e-16 0.129999999999997 0
v -4.44089209850063e-16 0.129999999999997 6.69999999999764
v -4.44089209850063e-16 -0.129999999999997 6.69999999999764
v -4.44089209850063e-16 -0.129999999999997 0
v 0.811999999999527 0.129999999999997 6.69999999999764
v -4.44089209850063e-16 0.129999999999997 6.69999999999764
v -4.44089209850063e-16 -0.129999999999997 6.69999999999764
v 0.811999999999527 -0.129999999999997 6.69999999999764
v 0.811999999999527 -0.130000000000005 1
v 0.811999999999527 0.129999999999996 1
v 0.811999999999527 -0.129999999999997 6.69999999999764
v 0.811999999999527 0.129999999999997 6.69999999999764
v 0.811999999999527 0.129999999999997 4.35
v 0.811999999999527 -0.0680000000000005 4.35
v 0.811999999999527 -0.0680000000000005 2
v 0.811999999999527 0.129999999999997 2
v 0.811999999999527 0.129999999999997 4.35
v 0.36 0.129999999999997 4.35
v 0.36 -0.0680000000000005 4.35
v 0.811999999999527 -0.0680000000000005 4.35
v 0.36 -0.0680000000000005 4.35
v 0.36 0.129999999999997 4.35
v 0.36 0.129999999999996 2
v 0.36 -0.0680000000000005 2
v 0.36 0.129999999999996 2
v 0.36 -0.0680000000000005 2
v 0.811999999999527 0.129999999999997 2
v 0.811999999999527 -0.0680000000000005 2
v 0.681999999999517 0 1
v 0.13 0 1
v 0.13 -0.130000000000005 1
v 0.811999999999527 -0.130000000000005 1
v 0.811999999999527 0.129999999999996 1
v 0.681999999999517 0.129999999999996 1
v 0.681999999999517 0.129999999999996 0.8
v 0.681999999999517 0.129999999999996 1
v 0.681999999999517 0 1
v 0.681999999999517 0 0.8
v 0.681999999999517 0 0.8
v 0.13 0 0.8
v 0.13 -0.130000000000005 0.8
v 0.811999999999527 -0.130000000000005 0.8
v 0.811999999999527 0.129999999999996 0.8
v 0.681999999999517 0.129999999999996 0.8
v 0.811999999999527 -0.129999999999997 0
v 0.811999999999527 0.129999999999997 0
v 0.811999999999527 -0.130000000000005 0.8
v 0.811999999999527 0.129999999999996 0.8
v -4.44089209850063e-16 -0.129999999999997 0
v 0.811999999999527 -0.129999999999997 0
v -4.44089209850063e-16 -0.129999999999997 6.69999999999764
v 0.811999999999527 -0.129999999999997 6.69999999999764
v 0.811999999999527 -0.130000000000005 1
v 0.13 -0.130000000000005 1
v 0.13 -0.130000000000005 0.8
v 0.811999999999527 -0.130000000000005 0.8
v 0.811999999999527 -0.0680000000000005 2
v 0.811999999999527 -0.0680000000000005 4.35
v 0.36 -0.0680000000000005 4.35
v 0.36 -0.0680000000000005 2
v 0.681999999999517 0 0.8
v 0.681999999999517 0 1
v 0.13 0 1
v 0.13 0 0.8
v 0.13 0 0.8
v 0.13 0 1
v 0.13 -0.130000000000005 1
v 0.13 -0.130000000000005 0.8
vn 0 1 0
vn 0 1 0
vn 0 1 0
vn 0 1 0
vn 0 1 0
vn 0 1 0
vn 0 1 0
vn 0 1 0
vn 0 1 0
vn 0 1 0
vn 0 1 0
vn 0 1 0
vn -0 -0 -1
vn -0 -0 -1
vn -0 -0 -1
vn -0 -0 -1
vn -1 -0 -0
vn -1 -0 -0
vn -1 -0 -0
vn -1 -0 -0
vn 0 0 1
vn 0 0 1
vn 0 0 1
vn 0 0 1
vn 1 0 0
vn 1 0 0
vn 1 0 0
vn 1 0 0
vn 1 0 0
vn 1 0 0
vn 1 0 0
vn 1 0 0
vn -0 -0 -1
vn -0 -0 -1
vn -0 -0 -1
vn -0 -0 -1
vn 1 0 0
vn 1 0 0
vn 1 0 0
vn 1 0 0
vn 0 0 1
vn 0 0 1
vn 0 0 1
vn 0 0 1
vn -0 -0 -1
vn -0 -0 -1
vn -0 -0 -1
vn -0 -0 -1
vn -0 -0 -1
vn -0 -0 -1
vn 1 0 0
vn 1 0 0
vn 1 0 0
vn 1 0 0
vn 0 0 1
vn 0 0 1
vn 0 0 1
vn 0 0 1
vn 0 0 1
vn 0 0 1
vn 1 0 0
vn 1 0 0
vn 1 0 0
vn 1 0 0
vn 0 -1 0
vn 0 -1 0
vn 0 -1 0
vn 0 -1 0
vn 0 -1 0
vn 0 -1 0
vn 0 -1 0
vn 0 -1 0
vn 0 1 0
vn 0 1 0
vn 0 1 0
vn 0 1 0
vn -0 -1 -0
vn -0 -1 -0
vn -0 -1 -0
vn -0 -1 -0
vn 1 0 0
vn 1 0 0
vn 1 0 0
vn 1 0 0
usemtl IfcWallStandardCase
f 11//11 10//10 9//9
f 12//12 11//11 9//9
f 7//7 6//6 5//5
f 8//8 7//7 5//5
f 4//4 3//3 1//1
f 5//5 4//4 2//2
f 8//8 5//5 2//2
f 4//4 1//1 2//2
f 8//8 2//2 12//12
f 9//9 8//8 12//12
f 15//15 14//14 13//13
f 16//16 15//15 13//13
f 18//18 17//17 20//20
f 19//19 18//18 20//20
f 21//21 22//22 23//23
f 21//21 23//23 24//24
f 28//28 27//27 30//30
f 28//28 30//30 29//29
f 32//32 31//31 26//26
f 31//31 25//25 26//26
f 31//31 27//27 25//25
f 30//30 27//27 31//31
f 34//34 33//33 35//35
f 33//33 36//36 35//35
f 39//39 38//38 37//37
f 40//40 39//39 37//37
f 44//44 43//43 41//41
f 42//42 44//44 41//41
f 49//49 48//48 45//45
f 50//50 49//49 45//45
f 46//46 45//45 47//47
f 45//45 48//48 47//47
f 54//54 51//51 52//52
f 54//54 52//52 53//53
f 55//55 58//58 59//59
f 55//55 59//59 60//60
f 57//57 55//55 56//56
f 57//57 58//58 55//55
f 64//64 63//63 61//61
f 64//64 61//61 62//62
f 68//68 67//67 70//70
f 68//68 70//70 69//69
f 71//71 70//70 65//65
f 72//72 71//71 66//66
f 71//71 65//65 66//66
f 70//70 67//67 65//65
f 74//74 73//73 75//75
f 73//73 76//76 75//75
f 80//80 77//77 78//78
f 80//80 78//78 79//79
f 84//84 81//81 82//82
f 84//84 82//82 83//83
