# File generated by IfcOpenShell v0.7.0-f7c03db75
mtllib IfcWallStandardCase_0416184708591742.mtl
g product-77f43fa1-842e-472b-9308-e0bae14882e5-body
s 1
v 6.68199999999998 0.13 0
v 0 0.13 0
v 6.68199999999998 0.13 0.075
v 0 0.13 0.075
v 6.68199999999998 0.13 0
v 0 0.13 0
v 0 -0.13 0
v 6.68199999999998 -0.13 0
v 0 0.13 0
v 0 -0.13 0
v 0 0.13 0.075
v 0 -0.13 0.075
v 0 -0.13 0.075
v 0 0.13 0.075
v 6.68199999999998 0.13 0.075
v 6.68199999999998 -0.13 0.075
v 6.68199999999998 -0.13 0
v 6.68199999999998 0.13 0
v 6.68199999999998 -0.13 0.075
v 6.68199999999998 0.13 0.075
v 0 -0.13 0
v 6.68199999999998 -0.13 0
v 0 -0.13 0.075
v 6.68199999999998 -0.13 0.075
v 6.68199999999998 0.13 2.425
v 0 0.13 2.425
v 6.68199999999998 0.13 4.77499999999823
v 0 0.13 4.77499999999823
v 6.68199999999998 -0.13 2.425
v 6.68199999999998 0.13 2.425
v 0 0.13 2.425
v 0 -0.13 2.425
v 0 0.13 2.425
v 0 -0.13 2.425
v 0 0.13 4.77499999999823
v 0 -0.13 4.77499999999823
v 6.68199999999998 0.13 4.77499999999823
v 0 0.13 4.77499999999823
v 0 -0.13 4.77499999999823
v 6.68199999999998 -0.13 4.77499999999823
v 6.68199999999998 -0.13 2.425
v 6.68199999999998 0.13 2.425
v 6.68199999999998 -0.13 4.77499999999823
v 6.68199999999998 0.13 4.77499999999823
v 0 -0.13 2.425
v 6.68199999999998 -0.13 2.425
v 0 -0.13 4.77499999999823
v 6.68199999999998 -0.13 4.77499999999823
vn 0 1 0
vn 0 1 0
vn 0 1 0
vn 0 1 0
vn -0 -0 -1
vn -0 -0 -1
vn -0 -0 -1
vn -0 -0 -1
vn -1 -0 -0
vn -1 -0 -0
vn -1 -0 -0
vn -1 -0 -0
vn 0 0 1
vn 0 0 1
vn 0 0 1
vn 0 0 1
vn 1 0 0
vn 1 0 0
vn 1 0 0
vn 1 0 0
vn 0 -1 0
vn 0 -1 0
vn 0 -1 0
vn 0 -1 0
vn 0 1 0
vn 0 1 0
vn 0 1 0
vn 0 1 0
vn 0 0 -1
vn 0 0 -1
vn 0 0 -1
vn 0 0 -1
vn -1 -0 -0
vn -1 -0 -0
vn -1 -0 -0
vn -1 -0 -0
vn 0 0 1
vn 0 0 1
vn 0 0 1
vn 0 0 1
vn 1 0 0
vn 1 0 0
vn 1 0 0
vn 1 0 0
vn 0 -1 0
vn 0 -1 0
vn 0 -1 0
vn 0 -1 0
usemtl IfcWallStandardCase
f 3//3 1//1 2//2
f 4//4 3//3 2//2
f 7//7 6//6 5//5
f 8//8 7//7 5//5
f 11//11 9//9 10//10
f 12//12 11//11 10//10
f 14//14 13//13 15//15
f 13//13 16//16 15//15
f 19//19 17//17 18//18
f 20//20 19//19 18//18
f 23//23 21//21 22//22
f 24//24 23//23 22//22
f 27//27 25//25 26//26
f 28//28 27//27 26//26
f 30//30 29//29 31//31
f 29//29 32//32 31//31
f 35//35 33//33 34//34
f 36//36 35//35 34//34
f 37//37 38//38 39//39
f 37//37 39//39 40//40
f 43//43 41//41 42//42
f 44//44 43//43 42//42
f 47//47 45//45 46//46
f 48//48 47//47 46//46
