# File generated by IfcOpenShell v0.7.0-f7c03db75
mtllib IfcWallStandardCase_0416184708493712.mtl
g product-9726558b-5d3b-4dc6-9dbd-be7523365099-body
s 1
v 1.99840144432528e-15 -0.0730000000000005 0
v 1.99840144432528e-15 0.0730000000000005 0
v 1.99840144432528e-15 0.0730000000000005 4.84999999999764
v 1.99840144432528e-15 -0.0730000000000005 4.84999999999764
v 1.99099999999998 -0.0730000000000005 0
v 1.99099999999998 0.0730000000000005 0
v 1.99099999999998 0.0730000000000005 4.84999999999764
v 1.99099999999998 -0.0730000000000005 4.84999999999764
v 1.99840144432528e-15 -0.0730000000000005 0
v 1.99840144432528e-15 0.0730000000000005 0
v 1.99099999999998 0.0730000000000005 0
v 1.99099999999998 -0.0730000000000005 0
v 1.99840144432528e-15 -0.0730000000000005 4.84999999999764
v 1.99840144432528e-15 0.0730000000000005 4.84999999999764
v 1.99099999999998 0.0730000000000005 4.84999999999764
v 1.99099999999998 -0.0730000000000005 4.84999999999764
v 0.177 -0.0730000000000005 0.05
v 0.177 0.0730000000000005 0.05
v 0.177 0.0730000000000005 2.44999999999998
v 0.177 -0.0730000000000005 2.44999999999998
v 0.177 -0.0730000000000005 2.44999999999998
v 0.177 0.0730000000000005 2.44999999999998
v 0.977 0.0730000000000005 2.44999999999998
v 0.977 -0.0730000000000005 2.44999999999998
v 0.977 -0.0730000000000005 2.44999999999998
v 0.977 0.0730000000000005 2.44999999999998
v 0.977 0.0730000000000005 0.05
v 0.977 -0.0730000000000005 0.05
v 0.977 -0.0730000000000005 0.05
v 0.977 0.0730000000000005 0.05
v 0.177 0.0730000000000005 0.05
v 0.177 -0.0730000000000005 0.05
v 1.99840144432528e-15 -0.0730000000000005 4.84999999999764
v 1.99099999999998 -0.0730000000000005 4.84999999999764
v 1.99840144432528e-15 -0.0730000000000005 0
v 1.99099999999998 -0.0730000000000005 0
v 0.177 -0.0730000000000005 0.05
v 0.177 -0.0730000000000005 2.44999999999998
v 0.977 -0.0730000000000005 2.44999999999998
v 0.977 -0.0730000000000005 0.05
v 1.99840144432528e-15 0.0730000000000005 4.84999999999764
v 1.99099999999998 0.0730000000000005 4.84999999999764
v 1.99840144432528e-15 0.0730000000000005 0
v 1.99099999999998 0.0730000000000005 0
v 0.177 0.0730000000000005 0.05
v 0.177 0.0730000000000005 2.44999999999998
v 0.977 0.0730000000000005 2.44999999999998
v 0.977 0.0730000000000005 0.05
vn -1 0 0
vn -1 0 0
vn -1 0 0
vn -1 0 0
vn 1 0 0
vn 1 0 0
vn 1 0 0
vn 1 0 0
vn 0 0 -1
vn 0 0 -1
vn 0 0 -1
vn 0 0 -1
vn 0 0 1
vn 0 0 1
vn 0 0 1
vn 0 0 1
vn 1 0 0
vn 1 0 0
vn 1 0 0
vn 1 0 0
vn 0 0 -1
vn 0 0 -1
vn 0 0 -1
vn 0 0 -1
vn -1 0 0
vn -1 0 0
vn -1 0 0
vn -1 0 0
vn 0 0 1
vn 0 0 1
vn 0 0 1
vn 0 0 1
vn -3.03111759749908e-33 -1 -0
vn -3.03111759749908e-33 -1 -0
vn -3.03111759749908e-33 -1 -0
vn -3.03111759749908e-33 -1 -0
vn -3.03111759749908e-33 -1 -0
vn -3.03111759749908e-33 -1 -0
vn -3.03111759749908e-33 -1 -0
vn -3.03111759749908e-33 -1 -0
vn 3.03111759749908e-33 1 0
vn 3.03111759749908e-33 1 0
vn 3.03111759749908e-33 1 0
vn 3.03111759749908e-33 1 0
vn 3.03111759749908e-33 1 0
vn 3.03111759749908e-33 1 0
vn 3.03111759749908e-33 1 0
vn 3.03111759749908e-33 1 0
usemtl IfcWallStandardCase
f 2//2 1//1 4//4
f 3//3 2//2 4//4
f 8//8 5//5 6//6
f 8//8 6//6 7//7
f 12//12 9//9 10//10
f 12//12 10//10 11//11
f 14//14 13//13 16//16
f 15//15 14//14 16//16
f 20//20 17//17 18//18
f 20//20 18//18 19//19
f 24//24 21//21 22//22
f 24//24 22//22 23//23
f 28//28 25//25 26//26
f 28//28 26//26 27//27
f 32//32 29//29 30//30
f 32//32 30//30 31//31
f 39//39 34//34 33//33
f 38//38 39//39 33//33
f 36//36 34//34 39//39
f 40//40 36//36 39//39
f 35//35 37//37 38//38
f 35//35 40//40 37//37
f 33//33 35//35 38//38
f 35//35 36//36 40//40
f 41//41 42//42 47//47
f 41//41 47//47 46//46
f 47//47 42//42 44//44
f 47//47 44//44 48//48
f 46//46 45//45 43//43
f 45//45 48//48 43//43
f 46//46 43//43 41//41
f 48//48 44//44 43//43
